<svg width="1316" height="1126" viewBox="0 0 1316 1126" fill="none" xmlns="http://www.w3.org/2000/svg">
<g clip-path="url(#clip0_437_30)">
<path d="M1 993.469C1.65815 992.493 2.7887 992.078 2.90663 991.467C8.44058 962.79 24.6467 941.239 47.4036 923.841C61.7444 912.878 78.0205 906.609 95.5935 904.167C118.581 900.972 141 903.922 162.05 914.124C168.73 917.361 174.826 921.806 182 926.194C182 924.212 182 922.533 182 920.854C182 890.369 182.026 859.885 181.984 829.4C181.971 819.969 185.575 812.525 194.638 809.275C206.391 805.061 221.469 808.871 223.982 824.425C224.528 827.808 224.955 831.256 224.958 834.674C225.016 895.31 225.335 955.948 224.841 1016.58C224.633 1042.17 216.956 1065.54 200.064 1085.58C182.447 1106.48 161.029 1120.53 133.811 1125.14C133.261 1125.23 132.816 1125.95 132.661 1126.69C119.646 1127 106.292 1127 92.8077 1126.68C88.9947 1125.33 85.3057 1124.31 81.6291 1123.24C59.5091 1116.83 41.2118 1104.79 26.388 1087.05C15.6479 1074.19 7.91454 1060.04 3.92695 1043.78C3.42602 1041.74 1.99832 1039.92 1.00002 1038C1 1023.31 1 1008.63 1 993.469ZM154.328 960.058C153.024 959.081 151.79 957.991 150.407 957.144C134.769 947.57 117.933 943.527 99.7659 947.066C82.283 950.471 67.6915 959.26 57.27 973.648C46.442 988.597 41.0859 1005.3 43.871 1024.26C46.0081 1038.8 51.7293 1051.52 61.6774 1062.01C77.0777 1078.26 95.9025 1086.12 118.727 1084.11C134.903 1082.69 148.571 1076.28 160.08 1065.29C171.729 1054.18 178.857 1040.65 181.168 1024.4C183.308 1009.35 180.413 995.722 173.286 982.5C168.613 973.828 162.138 966.899 154.328 960.058Z" fill="#2496ED"/>
<path d="M992.469 1127C991.541 1126.34 991.167 1125.2 990.61 1125.1C964.836 1120.56 944.559 1106.59 927.986 1087.22C914.991 1072.04 906.889 1054.37 903.757 1034.23C900.79 1015.14 902.082 996.622 908.127 978.56C915.063 957.835 928.098 941.293 944.939 927.377C960.922 914.17 979.251 906.451 999.451 904.283C1019.52 902.13 1039.56 903.541 1058.48 912.09C1084.38 923.788 1103.84 942.077 1116.28 967.703C1124.43 984.484 1127.01 1002.31 1125.96 1020.76C1125.63 1026.75 1117.47 1035.08 1111.12 1035.94C1106.73 1036.54 1102.29 1036.95 1097.87 1036.96C1048.21 1037.03 998.556 1037 947.117 1037C951.561 1044.55 954.934 1051.69 959.578 1057.88C969.852 1071.57 983.823 1079.71 1000.59 1083.28C1020.45 1087.51 1038.45 1083.58 1054.77 1071.67C1057.29 1069.84 1059.57 1067.68 1061.89 1065.59C1067.59 1060.41 1080.2 1058.7 1088.59 1064.23C1095.48 1068.77 1098.25 1078.83 1096.3 1087.47C1094.31 1096.28 1087.79 1100.99 1081.47 1105.68C1068.43 1115.36 1054.12 1122.59 1037.8 1125.14C1037.26 1125.22 1036.81 1125.95 1036.66 1126.69C1022.31 1127 1007.62 1127 992.469 1127ZM1069.46 994C1072.9 994 1076.35 994 1079.89 994C1074.52 970.849 1047.79 947.156 1017.24 946.099C983.274 944.923 955.109 968.158 948.601 994C988.586 994 1028.53 994 1069.46 994Z" fill="#2496ED"/>
<path d="M717.468 1127C716.416 1126.23 715.989 1125.21 715.222 1124.74C707.929 1120.3 703.987 1114.02 703.988 1105.34C704.007 1013.35 704.02 921.361 703.974 829.372C703.969 818.505 713.005 807.149 726.561 807.672C736.877 808.069 747.059 817.683 747.037 829.469C746.948 878.463 747 927.457 747 976.451C747 978.208 747 979.965 747 982.978C754.597 978.1 761.271 973.87 767.89 969.555C799.646 948.851 831.346 928.061 863.153 907.435C876.977 898.47 893.344 903.784 897.26 918.969C899.838 928.96 897.733 936.215 888.808 942.038C861.701 959.725 834.605 977.43 807.269 995.282C810.552 999.059 813.779 1002.88 817.12 1006.6C829.357 1020.22 841.671 1033.77 853.882 1047.41C864.317 1059.08 874.685 1070.8 885.01 1082.56C888.359 1086.37 891.973 1090.08 894.61 1094.36C901.887 1106.18 897.307 1118.6 886.673 1125.13C886.14 1125.46 885.77 1126.05 885.662 1126.76C880.312 1127 874.624 1127 868.807 1126.76C865.299 1123.69 861.573 1121.19 858.614 1117.99C851.821 1110.62 845.457 1102.86 838.82 1095.35C828.027 1083.13 817.155 1070.99 806.316 1058.81C795.476 1046.64 784.632 1034.47 773.796 1022.29C771.83 1020.08 770.064 1019.08 767.068 1021.26C761.686 1025.17 756.019 1028.72 750.27 1032.08C747.593 1033.64 746.915 1035.48 746.932 1038.42C747.057 1060.74 746.978 1083.05 747.011 1105.36C747.024 1114.04 743.063 1120.31 735.775 1124.74C735.009 1125.21 734.583 1126.23 734 1127C728.645 1127 723.29 1127 717.468 1127Z" fill="#2496ED"/>
<path d="M336.469 1127C335.541 1126.34 335.168 1125.2 334.609 1125.1C309.368 1120.58 288.991 1107.55 272.313 1088.66C258.572 1073.09 250.063 1054.96 246.81 1034.17C242.969 1009.61 245.575 986.051 257.13 964.163C273.641 932.888 299.318 912.311 334.195 905.267C361.6 899.732 388.566 902.975 412.893 917.61C441.29 934.692 461.138 958.754 466.798 992.266C468.789 1004.06 469.708 1016.38 468.701 1028.26C466.833 1050.3 458.363 1069.96 443.694 1086.99C432.581 1099.88 419.757 1110.33 404.257 1117.12C396.452 1120.54 387.969 1122.41 379.808 1125.03C378.927 1125.32 378.148 1125.92 377.661 1126.69C364.312 1127 350.625 1127 336.469 1127ZM309.513 964.991C307.479 967.358 305.454 969.732 303.409 972.09C293.986 982.955 289.44 995.943 288.132 1009.93C286.922 1022.87 289.797 1035.14 295.879 1046.86C309.836 1073.75 338.767 1088.45 367.612 1083.81C384.641 1081.08 399.058 1072.94 410.27 1059.33C423.842 1042.86 429.834 1024.03 425.739 1003.28C419.605 972.199 396.555 950.41 365.133 946.233C344.311 943.465 325.775 950.484 309.513 964.991Z" fill="#2496ED"/>
<path d="M581.469 1127C580.373 1126.34 579.828 1125.21 579.107 1125.08C560.713 1121.85 544.717 1113.81 530.335 1101.96C512.372 1087.15 499.819 1068.79 493.437 1046.52C491.211 1038.75 491.115 1030.38 489.987 1022.3C487.978 1007.9 490.246 993.815 494.542 980.266C499.309 965.234 507.285 951.808 518.221 940.128C527.468 930.251 537.574 921.517 549.527 915.313C561.87 908.907 575.039 904.541 589.119 904.058C598.136 903.748 607.291 903.09 616.167 904.249C625.577 905.476 635.259 907.481 643.859 911.309C654.148 915.89 663.715 922.33 673.043 928.764C682.372 935.198 684.599 947.327 679.3 957.236C674.405 966.386 662.992 970.701 652.554 966.646C648.719 965.156 645.488 962.046 642.074 959.548C627.568 948.937 611.248 944.109 593.511 946.216C580.481 947.764 568.583 952.846 558.049 961.255C545.779 971.051 537.928 983.503 534.078 998.406C528.787 1018.89 532.472 1038.15 544.87 1055.17C557.292 1072.21 574.051 1082.22 595.576 1084.12C614.526 1085.79 630.637 1080.13 645.274 1068.37C657.656 1058.41 676.207 1062.27 680.546 1077.99C683.071 1087.15 679.365 1097.27 670.831 1103.63C659.127 1112.36 646.613 1119.47 632.386 1123.24C628.682 1124.23 625.009 1125.32 621.661 1126.68C608.646 1127 595.292 1127 581.469 1127Z" fill="#2496ED"/>
<path d="M1317 940.532C1315.97 941.86 1314.72 942.555 1313.96 943.607C1307.71 952.237 1299.14 955.222 1289.15 951.536C1278.57 947.639 1267.83 945.38 1256.52 945.981C1240.27 946.843 1226.16 952.908 1214.02 963.531C1201.52 974.463 1194.15 988.367 1191.21 1004.65C1190.95 1006.1 1191.01 1007.62 1191.01 1009.11C1191 1040.57 1191.06 1072.03 1190.96 1103.49C1190.93 1110.9 1188.96 1117.72 1182.85 1122.63C1181.1 1124.04 1179.17 1125.22 1177.66 1126.76C1172.31 1127 1166.62 1127 1160.47 1127C1159.57 1126.3 1159.31 1125.33 1158.68 1124.94C1151.04 1120.19 1147.91 1113.39 1147.93 1104.4C1148.07 1044.25 1148 984.096 1148 923.942C1148 913.415 1155.54 904.445 1166.39 903.143C1175.61 902.037 1185.52 906.494 1189.64 917.3C1190.65 919.964 1190.76 922.973 1191.36 926.234C1202.75 918.246 1214.42 911.563 1227.51 907.886C1241.95 903.83 1256.6 901.422 1271.67 903.965C1279.05 905.211 1286.57 905.856 1293.85 907.514C1303.21 909.643 1310.86 914.796 1316.77 922.337C1317 928.021 1317 934.042 1317 940.532Z" fill="#2496ED"/>
<path d="M768.531 1C772.917 8.09253 771.983 15.839 771.992 23.4473C772.016 43.4359 772.039 63.4246 771.952 83.4128C771.94 85.9913 772.098 89.2273 770.699 90.9799C768.874 93.2682 765.59 95.7573 762.907 95.7882C733.594 96.1254 704.276 96.0324 674.96 95.9686C669.766 95.9573 666.07 92.0438 666.046 86.2835C665.942 61.1316 665.874 35.9776 666.164 10.8287C666.2 7.71696 668.46 4.63091 669.345 1.26648C702.021 1 735.042 1 768.531 1Z" fill="#2496ED"/>
<path d="M1236.44 1127C1235.39 1126.32 1234.91 1125.34 1234.15 1125.02C1228.19 1122.55 1225.32 1117.96 1225.03 1111.71C1224.72 1105.04 1228.03 1099.68 1233.76 1097.12C1238.96 1094.79 1245.85 1096.41 1250.35 1099.68C1258.3 1105.45 1256.68 1122.48 1245.2 1125.07C1244.5 1125.22 1243.94 1125.99 1243.66 1126.74C1241.63 1127 1239.26 1127 1236.44 1127ZM1246.99 1106.59C1245.76 1110.47 1245.52 1114.28 1247.86 1117.97C1251.73 1112.58 1251.47 1106.35 1247.3 1102.81C1242.83 1099.03 1238.06 1099.02 1235.37 1101.95C1238.92 1103.13 1242.92 1104.45 1246.99 1106.59ZM1239.66 1121.99C1241.94 1121.38 1244.23 1120.76 1245.89 1120.32C1243.41 1117.45 1241.3 1115.02 1238.29 1111.54C1238.07 1115.07 1237.96 1116.86 1237.85 1118.61C1236.59 1118.91 1235.52 1119.17 1233.41 1119.67C1235.96 1120.73 1237.41 1121.34 1239.66 1121.99ZM1234 1114.15C1234 1110.81 1234 1107.48 1234 1103.46C1228.45 1108.18 1228.57 1114.46 1233.74 1117.98C1233.84 1116.87 1233.92 1115.96 1234 1114.15Z" fill="#2496ED"/>
<path d="M727 341C788.5 341 849.505 341.468 910.496 340.734C930.514 340.493 950.238 335.98 968.895 328.02C971.857 326.757 974.814 325.484 978.079 324.085C967.427 306.904 960.635 288.745 958.082 269.206C955.127 246.588 957.769 224.336 964.208 202.553C971.05 179.409 981.743 158.169 996.924 138.975C1008.86 145.023 1020.19 152.176 1030.65 160.941C1042.14 170.56 1051.8 181.716 1060.19 193.906C1069.27 207.091 1076.03 221.551 1079.98 237.171C1081.17 241.888 1081.72 246.787 1083.22 251.394C1083.62 252.65 1086.55 254.106 1088.03 253.844C1104.06 251.002 1120.24 250.397 1136.41 251.101C1157.07 252.001 1177.26 255.895 1195.91 265.167C1203.27 268.827 1209.73 274.308 1216.49 279.125C1217.17 279.609 1217.48 281.365 1217.21 282.316C1212.27 299.636 1203.54 314.805 1192.01 328.676C1180.04 343.091 1165.35 353.887 1148.96 362.29C1135.81 369.032 1121.73 373.48 1107.04 376.148C1093.62 378.583 1080.2 379.329 1066.66 378.913C1063.56 378.817 1062.18 380.134 1061.09 382.616C1051.15 405.223 1041.78 428.108 1031.06 450.34C1016.46 480.606 998.716 509.117 978.384 535.867C968.752 548.539 957.972 560.382 947.202 572.133C938.386 581.752 929.244 591.163 919.486 599.808C900.526 616.605 880.336 631.814 858.704 645.131C834.362 660.117 808.889 672.664 782.285 683.064C758.66 692.301 734.523 699.888 709.816 705.48C694.589 708.927 679.153 711.574 663.708 713.91C647.535 716.355 631.259 718.186 614.989 719.909C607.275 720.725 599.469 720.892 591.702 720.954C573.704 721.098 555.684 721.514 537.709 720.848C521.293 720.24 504.827 719.075 488.561 716.851C466.949 713.896 445.351 710.413 424.045 705.786C404.071 701.448 384.76 694.652 366.047 686.128C346.4 677.18 328.762 665.55 312.577 651.269C292.902 633.909 277.444 613.364 264.428 590.831C251.444 568.353 241.446 544.567 233.896 519.723C227.886 499.948 222.632 480.013 219.992 459.475C218.241 445.846 216.201 432.231 215.119 418.544C213.92 403.39 213.344 388.167 213.081 372.965C212.752 353.938 227.377 341.12 245.004 341.101C405.502 340.929 566.001 341 727 341Z" fill="#2496ED"/>
<path d="M752.989 228C756.316 228 759.148 228.073 761.976 227.986C770.246 227.732 771.721 230.717 771.835 237.575C772.246 262.538 772.193 287.516 771.883 312.482C771.784 320.48 767.599 323.145 760.849 323.092C732.883 322.873 704.915 323.003 676.948 322.998C669.465 322.997 666.032 319.719 666.018 312.284C665.971 287.813 665.736 263.338 666.133 238.873C666.287 229.36 668.407 227.772 677.081 227.885C702.214 228.21 727.354 228 752.989 228Z" fill="#2496ED"/>
<path d="M666 172C666 156.176 665.987 140.852 666.005 125.528C666.015 117.068 669.135 114.001 677.646 114.001C705.296 113.999 732.947 114.145 760.595 113.901C767.704 113.838 771.806 116.583 771.898 124.774C772.177 149.59 772.342 174.418 771.803 199.224C771.626 207.375 768.877 209.131 761.538 209.08C733.223 208.883 704.905 208.897 676.589 209.068C668.886 209.115 666.445 207.256 666.079 198.481C665.718 189.835 666 181.162 666 172Z" fill="#2496ED"/>
<path d="M649 268C649 283.49 649.009 298.481 648.996 313.471C648.99 320.331 646.327 322.994 639.458 322.996C610.81 323.006 582.162 323.006 553.514 322.996C546.665 322.993 544.007 320.321 544.004 313.443C543.994 287.793 543.995 262.143 544.004 236.493C544.006 230.746 546.672 228.007 552.292 228.005C581.773 227.994 611.254 227.994 640.735 228.006C646.341 228.008 648.99 230.754 648.997 236.52C649.009 246.847 649 257.173 649 268Z" fill="#2496ED"/>
<path d="M450 228C472.319 228 494.139 227.998 515.958 228.002C522.629 228.003 524.998 230.427 524.999 237.242C525.001 262.559 525.004 287.876 524.997 313.193C524.996 320.423 522.436 322.996 515.237 322.997C486.755 323.004 458.274 323.004 429.792 322.998C422.573 322.996 420.005 320.431 420.003 313.222C419.996 287.738 419.997 262.255 420.002 236.771C420.004 230.473 422.548 228.006 429.013 228.001C435.842 227.996 442.671 228 450 228Z" fill="#2496ED"/>
<path d="M396.349 322.984C366.579 322.997 337.248 323.002 307.917 322.998C300.635 322.997 298.006 320.44 298.003 313.337C297.995 287.839 297.996 262.341 298.002 236.843C298.004 229.993 299.959 228.004 306.708 228.003C336.039 227.996 365.37 227.995 394.701 228.005C399.882 228.006 402.963 230.907 402.974 236.138C403.03 262.302 402.974 288.467 403.025 314.632C403.033 319.093 400.793 321.632 396.349 322.984Z" fill="#2496ED"/>
<path d="M796.565 228.002C826.655 228.001 856.3 227.999 885.945 228.002C892.62 228.002 894.998 230.429 894.999 237.228C895.001 262.543 895.004 287.858 894.998 313.173C894.996 320.417 892.442 322.996 885.259 322.997C856.779 323.004 828.3 323.004 799.821 322.998C792.582 322.996 790.005 320.44 790.003 313.252C789.996 287.937 790.017 262.622 789.984 237.307C789.979 232.788 791.285 229.266 796.565 228.002Z" fill="#2496ED"/>
<path d="M649 150C649 166.817 649.008 183.134 648.996 199.451C648.991 206.341 646.367 208.999 639.628 208.999C610.658 209.001 581.687 209.003 552.717 208.998C546.638 208.997 544.005 206.415 544.003 200.438C543.995 174.797 543.994 149.156 544.004 123.516C544.007 116.668 546.678 114.006 553.549 114.004C582.187 113.995 610.824 113.995 639.462 114.004C646.326 114.007 648.984 116.67 648.996 123.527C649.012 132.184 649 140.842 649 150Z" fill="#2496ED"/>
<path d="M445 114C468.831 114 492.163 113.993 515.494 114.004C522.34 114.008 524.993 116.682 524.996 123.573C525.006 148.904 525.007 174.235 524.995 199.566C524.992 206.422 522.372 208.999 515.498 208.999C486.501 209.001 457.503 209.004 428.506 208.996C422.968 208.995 420.029 206.172 420.019 200.57C419.976 174.572 419.98 148.575 420.016 122.577C420.024 116.984 422.946 114.08 428.502 114.014C433.834 113.95 439.168 114 445 114Z" fill="#2496ED"/>
</g>
<defs>
<clipPath id="clip0_437_30">
<rect width="1316" height="1126" fill="white"/>
</clipPath>
</defs>
</svg>
