<svg width="2000" height="2000" viewBox="0 0 2000 2000" fill="none" xmlns="http://www.w3.org/2000/svg">
<path d="M1325.31 1569.76C1326.24 1484.97 1314.21 1312.84 1227.06 1168.7L1141.85 1220.66C1220.93 1351.39 1226.85 1503.97 1225.03 1570.54C1224.83 1576.04 1275.96 1581.02 1325.31 1569.76Z" fill="url(#paint0_linear_302_185)"/>
<path d="M1225.03 1569.6L1303.94 1569.24L1377.62 1993.1L1219.22 1993.83C1207.16 1993.87 1198.03 1984.12 1198.84 1972.01L1225.03 1569.6Z" fill="#522CD5"/>
<path d="M1546.52 1881.62C1560.21 1892.47 1559.97 1908.18 1558.91 1924.74L1555.62 1975.52C1555.01 1984.61 1547.14 1992.08 1538.08 1992.12L1373.03 1992.85C1362.75 1992.89 1354.99 1984.58 1355.68 1974.29L1356.78 1921.67C1358.04 1902.55 1351.62 1895.54 1336.88 1877.5C1311.62 1846.71 1236.93 1678.87 1244.03 1569.52L1325.31 1569.15C1330.71 1634.04 1415.95 1778.19 1546.52 1881.62Z" fill="url(#paint1_linear_302_185)"/>
<path d="M1558.87 1924.74C1559.64 1913.15 1559.85 1902.06 1555.33 1892.68L1349.47 1893.61C1355.15 1902.02 1357.55 1909.36 1356.78 1921.64L1355.68 1974.25C1354.99 1984.57 1362.79 1992.89 1373.03 1992.81L1538.08 1992.08C1547.14 1992.03 1555.01 1984.57 1555.62 1975.48L1558.87 1924.74Z" fill="url(#paint2_radial_302_185)"/>
<path d="M804.076 1633.11L703.315 1620.51L760.011 1162.95L860.769 1175.51L804.076 1633.11Z" fill="url(#paint3_linear_302_185)"/>
<path d="M710.626 1566.26L790.471 1565.89L812.565 1994.48L652.305 1995.22C640.122 1995.25 632.081 1985.39 634.395 1973.15L710.626 1566.26Z" fill="#522CD5"/>
<path d="M942.65 1883.25C954.957 1894.43 954.667 1908.79 951.504 1925.55L941.88 1976.9C940.171 1986.08 931.239 1993.63 922.094 1993.67L692.919 1994.73C682.521 1994.77 675.698 1986.37 677.648 1975.92L685.811 1922.7C689.426 1903.36 686.623 1897.66 686.989 1872.86C687.68 1826.36 709.042 1676.67 729.755 1566.14L811.996 1565.77C809.478 1631.43 837.867 1787.85 942.65 1883.25Z" fill="url(#paint4_linear_302_185)"/>
<path d="M685.892 1922.74L677.729 1975.97C675.779 1986.37 682.602 1994.81 693 1994.77L922.179 1993.71C931.359 1993.67 940.256 1986.12 941.957 1976.94L951.581 1925.6C953.855 1913.44 954.547 1902.55 950.12 1893.21L687.517 1894.39C687.883 1903.85 688.167 1910.63 685.892 1922.74Z" fill="url(#paint5_radial_302_185)"/>
<path d="M1307.92 925.442L1310.2 811.608C1432.97 809.528 1518.67 774.695 1575.4 704.623C1678.23 577.57 1642.13 380.118 1641.72 378.12L1739.88 365.109C1741.75 375.02 1784.6 609.711 1653.46 771.718C1577.75 865.322 1460.83 922.876 1307.92 925.442Z" fill="#8A6FE8"/>
<path d="M1676.93 463.284C1732.27 463.284 1777.13 418.234 1777.13 362.662C1777.13 307.089 1732.27 262.039 1676.93 262.039C1621.6 262.039 1576.74 307.089 1576.74 362.662C1576.74 418.234 1621.6 463.284 1676.93 463.284Z" fill="url(#paint6_radial_302_185)"/>
<path d="M1706.58 285.736L1663.69 195.882C1652.12 172.021 1623.44 162.11 1599.68 173.775C1575.93 185.399 1566.06 214.196 1577.68 238.056L1621.66 330.195L1706.58 285.736Z" fill="#8A6FE8"/>
<path d="M1634.01 293.853L1546.44 247.029C1523.01 234.711 1494.09 243.807 1481.83 267.3C1469.56 290.834 1478.62 319.876 1502.01 332.193L1591.8 380.2L1634.01 293.853Z" fill="#8A6FE8"/>
<path d="M1857.09 304.335L1830.45 336.883C1813.76 357.277 1783.74 360.214 1763.44 343.451C1743.13 326.687 1740.21 296.545 1756.9 276.151L1783.54 243.603C1800.23 223.209 1830.25 220.272 1850.56 237.036C1870.86 253.84 1873.79 283.942 1857.09 304.335Z" fill="#D0C5F3"/>
<path d="M1910.33 183.93C1927.19 178.873 1945.02 188.499 1950.09 205.426L1976.09 292.466C1981.13 309.392 1971.54 327.298 1954.68 332.397L91.9258 893.425C75.0714 898.481 57.2423 888.858 52.1656 871.931L26.1732 784.892C21.1372 767.965 30.7219 750.059 47.5764 744.961L1910.33 183.93Z" fill="#FF00FF"/>
<path d="M1904.49 164.393L41.7689 725.464C14.152 733.785 -1.52461 763.03 6.76046 790.766L32.7529 877.803C41.0379 905.545 70.1575 921.288 97.7745 912.961L1960.5 351.934C1988.11 343.613 2003.79 314.368 1995.5 286.633L1969.51 199.593C1961.27 171.816 1932.15 156.073 1904.49 164.393Z" fill="#B3AFAB"/>
<path d="M1904.49 164.393L1715.67 221.251L1771.68 408.791L1960.5 351.934C1988.11 343.613 2003.79 314.368 1995.5 286.633L1969.51 199.593C1961.26 171.816 1932.14 156.073 1904.49 164.393Z" fill="#797673"/>
<path d="M164.948 776.367L164.461 776.53L160.643 763.682C155.931 747.857 139.28 738.843 123.522 743.615L121.492 744.227C105.734 748.958 96.7588 765.681 101.51 781.506L105.328 794.354L103.988 794.762C97.3272 796.761 93.5503 803.817 95.54 810.547L106.708 847.908C108.699 854.597 115.725 858.395 122.426 856.392L183.467 837.997C190.128 835.998 193.905 828.942 191.915 822.212L180.746 784.851C178.675 778.162 171.649 774.369 164.948 776.367ZM110.892 778.692C107.724 768.088 113.735 756.912 124.294 753.73L126.325 753.118C136.884 749.937 148.012 755.973 151.18 766.579L154.997 779.427L114.669 791.581L110.892 778.692Z" fill="#797673"/>
<path d="M1408.15 385.667L245.999 735.761L261.6 787.991L1423.75 437.898L1408.15 385.667Z" fill="#E1DFDD"/>
<path d="M1921.14 305.028L1884.83 285.368C1887.75 276.967 1888.21 267.626 1885.48 258.489C1878.57 235.445 1854.29 222.27 1831.34 229.204C1808.36 236.138 1795.28 260.529 1802.18 283.573C1809.09 306.659 1833.38 319.793 1856.32 312.859C1865.58 310.086 1873.21 304.416 1878.57 297.156L1914.85 316.774C1917 317.917 1919.68 317.142 1920.81 314.98L1922.92 311.024C1924.1 308.862 1923.29 306.211 1921.14 305.028ZM1852.5 300.093C1836.54 304.906 1819.68 295.769 1814.9 279.74C1810.1 263.71 1819.2 246.784 1835.16 241.971C1851.12 237.158 1867.97 246.294 1872.77 262.324C1877.52 278.353 1868.46 295.28 1852.5 300.093Z" fill="white"/>
<path d="M361.069 1404.37L427.025 1478.81C444.732 1498.51 474.989 1500.06 494.645 1482.27C514.262 1464.49 515.804 1434.1 498.098 1414.36L416.831 1324.64L361.069 1404.37Z" fill="#8A6FE8"/>
<path d="M742.425 266.647L647.106 305.151L621.154 201.47L689.628 173.815L742.425 266.647Z" fill="#D0C5F3"/>
<path d="M721.103 445.622C775.025 445.622 818.737 401.723 818.737 347.57C818.737 293.416 775.025 249.517 721.103 249.517C667.182 249.517 623.47 293.416 623.47 347.57C623.47 401.723 667.182 445.622 721.103 445.622Z" fill="#512BD4"/>
<path d="M1443.53 953.219C1478.66 817.767 1456 709.639 1456 709.639H1487.72L1488.49 709.027C1443.04 460.469 1226.25 272.113 965.598 272.113C671.961 272.113 433.929 511.168 433.929 806.061C433.929 1100.95 671.961 1340.01 965.598 1340.01C1197.29 1340.01 1394.35 1191.13 1467.16 983.485C1469.32 974.678 1469.15 958.85 1443.53 953.219Z" fill="url(#paint7_radial_302_185)"/>
<path d="M1424.03 1076.48H507.236C527.827 1111.6 552.276 1144.11 580.055 1173.48H1351.3C1378.99 1144.07 1403.49 1111.6 1424.03 1076.48Z" fill="#D8CFF7"/>
<path d="M159.1 1436.15H135.748C129.981 1436.15 124.58 1438.96 121.29 1443.73L59.5578 1532.64C56.7149 1536.73 55.1716 1541.62 55.1716 1546.64L54.8467 1792.87C54.8467 1802.66 62.7257 1810.58 72.4727 1810.58H222.416C232.163 1810.58 240.042 1802.66 240.042 1792.87V1544.56C240.042 1540.93 238.945 1537.38 236.834 1534.4L173.559 1443.73C170.228 1438.92 164.827 1436.15 159.1 1436.15Z" fill="#ED9583"/>
<path d="M198.698 1436.15H156.988L85.6308 1538.88H85.2656V1810.49H270.421V1538.88L198.698 1436.15Z" fill="#E86E58"/>
<path d="M514.667 1482.6H182.127C175.06 1482.6 169.334 1476.85 169.334 1469.75C169.334 1462.65 175.06 1456.9 182.127 1456.9H514.667C521.734 1456.9 527.46 1462.65 527.46 1469.75C527.46 1476.85 521.734 1482.6 514.667 1482.6Z" fill="#ED9583"/>
<path d="M519.094 1436.15H477.385L405.987 1538.88H405.663V1810.49H590.817V1538.88L519.094 1436.15Z" fill="#ED9583"/>
<path d="M538.914 1436.15H518.484C511.825 1436.15 505.529 1439.41 501.712 1444.91L440.345 1532.81C437.584 1536.76 436.081 1541.5 436.081 1546.35V1789.97C436.081 1801.31 445.219 1810.49 456.509 1810.49H600.808C612.098 1810.49 621.236 1801.31 621.236 1789.97V1545.37C621.236 1541.17 619.937 1537.06 617.54 1533.59L555.605 1444.88C551.828 1439.41 545.573 1436.15 538.914 1436.15Z" fill="#E86E58"/>
<path d="M414.597 1810.41L75.8026 1811.72C64.8371 1811.72 55.9429 1802.78 55.9429 1791.77V1560.06C55.9429 1549.05 64.8371 1540.11 75.8026 1540.11H415.816C426.781 1540.11 435.675 1549.05 435.675 1560.06V1791.77C435.675 1802.78 425.563 1810.41 414.597 1810.41Z" fill="#ED9583"/>
<path d="M257.79 1369.74L242.032 1468.12C238.011 1494.34 255.921 1518.9 282.076 1522.94C308.191 1526.98 332.64 1508.99 336.661 1482.72L352.825 1381.85L257.79 1369.74Z" fill="#8A6FE8"/>
<path d="M321.349 1380.83L308.069 1479.58C304.698 1505.93 323.258 1530 349.494 1533.38C375.73 1536.76 399.692 1518.13 403.063 1491.78L416.668 1390.54L321.349 1380.83Z" fill="#8A6FE8"/>
<path d="M233.138 1340.38L197.642 1433.42C188.341 1458.25 200.891 1485.98 225.624 1495.33C250.357 1504.67 277.974 1492.06 287.275 1467.23L323.705 1371.82L233.138 1340.38Z" fill="#8A6FE8"/>
<path d="M1804.74 183.646L1825.7 220.11C1838.85 242.991 1831.06 272.196 1808.27 285.41C1785.49 298.626 1756.41 290.795 1743.26 267.912L1722.3 231.449C1709.14 208.567 1716.94 179.363 1739.72 166.148C1762.46 152.933 1791.58 160.764 1804.74 183.646Z" fill="#8A6FE8"/>
<path d="M1726.11 189.967L1747.07 226.432C1760.23 249.313 1752.44 278.517 1729.65 291.732C1706.86 304.948 1677.79 297.116 1664.62 274.234L1643.67 237.771C1630.51 214.888 1638.31 185.685 1661.09 172.47C1683.88 159.295 1713 167.127 1726.11 189.967Z" fill="#8A6FE8"/>
<path d="M840.141 394.475L609.295 527.197C597.274 534.09 582.004 528.094 577.821 514.839L549.798 425.718L840.141 394.475Z" fill="#605D5A"/>
<path d="M518.486 399.043C479.213 409.607 470.359 470.543 527.461 464.262C623.593 453.658 969.778 392.191 1128.17 311.024C1208.54 269.828 1216.46 200.898 1072.53 222.475C928.599 244.051 518.486 399.043 518.486 399.043Z" fill="#FCCF84"/>
<path d="M506.504 401.94C508.779 415.033 521.044 423.883 534.121 421.885C579.486 414.951 688.248 395.985 822.433 356.054C962.103 314.451 1037.92 272.847 1066.68 254.983C1075.13 249.721 1078.91 239.443 1075.9 229.939C1057.67 172.143 943.256 -52.9622 703.153 19.4762C460.409 92.6893 493.305 325.422 506.504 401.94Z" fill="url(#paint8_linear_302_185)"/>
<path d="M672.774 29.9984C634.72 45.0489 604.544 64.4637 580.786 86.6524C789.619 42.6833 904.35 162.761 937.812 205.629C944.555 214.276 955.966 217.784 966.444 214.48L982 209.626C998 204.609 1004.14 185.031 993.743 171.857C950.974 117.446 840.182 4.50625 672.774 29.9984Z" fill="#FCCF84"/>
<path d="M299.134 1380.96C259.617 1299.87 236.549 1161.24 301.692 1037.29C341.25 962.034 427.959 866.592 616.444 839.18L630.131 941.356C515.723 957.991 434.7 1008.08 394.372 1084.76C350.713 1167.8 358.957 1269.53 389.823 1332.91L299.134 1380.96Z" fill="url(#paint9_linear_302_185)"/>
<path d="M652.752 973.82C706.674 973.82 750.386 929.923 750.386 875.768C750.386 821.614 706.674 777.713 652.752 777.713C598.83 777.713 555.118 821.614 555.118 875.768C555.118 929.923 598.83 973.82 652.752 973.82Z" fill="url(#paint10_radial_302_185)"/>
<path d="M326.467 1433.49C381.801 1433.49 426.659 1388.45 426.659 1332.88C426.659 1277.3 381.801 1232.25 326.467 1232.25C271.132 1232.25 226.274 1277.3 226.274 1332.88C226.274 1388.45 271.132 1433.49 326.467 1433.49Z" fill="url(#paint11_radial_302_185)"/>
<path d="M1443.53 953.219C1478.21 819.44 1456.56 712.373 1456.03 709.762H904.428C904.428 709.762 869.667 706.214 869.667 738.109C869.667 770.005 870.966 860.06 870.966 959.708C870.966 980.18 887.658 990.052 900.821 990.052C900.821 990.009 1381.96 989.974 1443.53 953.219Z" fill="url(#paint12_radial_302_185)"/>
<path d="M1111.27 953.511C1111.27 953.511 1196.11 886.086 1212.64 873.605C1229.21 861.125 1243.68 860.429 1258.86 873.605C1274.05 886.781 1358.97 953.511 1358.97 953.511H1111.27Z" fill="#A08BE8"/>
<path d="M1465.05 989.648C1465.05 989.648 1479.79 961.176 1443.53 953.219C1443.57 953.099 901.222 952.815 901.222 952.815C888.59 952.815 872.35 945.27 870.966 932.953C870.966 941.76 871.009 950.652 871.009 959.665C871.009 978.266 884.778 988.094 897.12 989.725C898.342 989.888 899.598 990.009 900.855 990.009H937.94L1465.05 989.648Z" fill="#512BD4"/>
<path d="M1424.27 828.28C1424.84 789.494 1406.68 757.773 1383.72 757.428C1360.75 757.085 1341.67 788.249 1341.09 827.035C1340.52 865.82 1358.67 897.545 1381.63 897.888C1404.6 898.232 1423.68 867.064 1424.27 828.28Z" fill="#512BD4"/>
<path d="M1382.16 790.52C1366.97 805.775 1366.97 830.492 1382.16 845.747C1392.56 856.188 1407.38 859.494 1420.58 855.617C1422.82 847.256 1424.12 837.997 1424.28 828.289C1424.56 809.282 1420.34 791.989 1413.23 779.222C1402.15 778.244 1390.69 781.996 1382.16 790.52Z" fill="#8065E0"/>
<path d="M1048.8 898.232C1071.76 897.888 1089.91 866.172 1089.33 827.381C1088.76 788.595 1069.68 757.431 1046.71 757.775C1023.74 758.118 1005.59 789.839 1006.16 828.626C1006.74 867.416 1025.83 898.575 1048.8 898.232Z" fill="#512BD4"/>
<path d="M1047.43 792.806C1032.24 808.06 1032.24 832.778 1047.43 848.032C1057.79 858.429 1072.49 861.7 1085.61 857.943C1088.12 848.644 1089.5 838.284 1089.34 827.312C1089.1 809.692 1085 793.703 1078.46 781.507C1067.37 780.529 1055.91 784.282 1047.43 792.806Z" fill="#8065E0"/>
<path d="M1139.28 1202.34L1313.31 1201.55L1312.61 1046.96L1138.58 1047.76L1139.28 1202.34Z" fill="#512BD4"/>
<path d="M1169.39 1144.56C1168.21 1144.56 1167.24 1144.19 1166.43 1143.42C1165.62 1142.64 1165.21 1141.66 1165.21 1140.6C1165.21 1139.49 1165.62 1138.51 1166.43 1137.74C1167.24 1136.93 1168.21 1136.56 1169.39 1136.56C1170.57 1136.56 1171.55 1136.97 1172.36 1137.74C1173.17 1138.51 1173.62 1139.49 1173.62 1140.6C1173.62 1141.7 1173.21 1142.64 1172.39 1143.42C1171.55 1144.15 1170.57 1144.56 1169.39 1144.56Z" fill="white"/>
<path d="M1215.65 1143.78H1208.14L1188.24 1112.41C1187.75 1111.64 1187.3 1110.78 1186.97 1109.92H1186.81C1186.97 1110.82 1187.06 1112.78 1187.06 1115.8L1187.09 1143.82H1180.44L1180.36 1101.07H1188.36L1207.56 1131.71C1208.38 1132.97 1208.91 1133.87 1209.15 1134.32H1209.27C1209.07 1133.18 1208.99 1131.26 1208.99 1128.57L1208.95 1101.04H1215.56L1215.65 1143.78Z" fill="white"/>
<path d="M1248.06 1143.74L1224.74 1143.78L1224.67 1101.04L1247.04 1101V1107.03L1231.57 1107.07L1231.61 1119.18L1245.86 1119.14V1125.14L1231.61 1125.18L1231.65 1137.83L1248.06 1137.79V1143.74Z" fill="white"/>
<path d="M1281.08 1106.95L1269.14 1106.99L1269.21 1143.7H1262.32L1262.23 1106.99L1250.33 1107.03V1101L1281.03 1100.91L1281.08 1106.95Z" fill="white"/>
<defs>
<linearGradient id="paint0_linear_302_185" x1="1196.92" y1="1175.35" x2="1282.09" y2="1579.24" gradientUnits="userSpaceOnUse">
<stop stop-color="#522CD5"/>
<stop offset="0.4397" stop-color="#8A6FE8"/>
</linearGradient>
<linearGradient id="paint1_linear_302_185" x1="1262.33" y1="1558.94" x2="1514.92" y2="2007.33" gradientUnits="userSpaceOnUse">
<stop stop-color="#522CD5"/>
<stop offset="0.4397" stop-color="#8A6FE8"/>
</linearGradient>
<radialGradient id="paint2_radial_302_185" cx="0" cy="0" r="1" gradientUnits="userSpaceOnUse" gradientTransform="translate(1449.34 1808.21) rotate(-0.26186) scale(173.914 174.66)">
<stop offset="0.034" stop-color="#522CD5"/>
<stop offset="0.9955" stop-color="#8A6FE8"/>
</radialGradient>
<linearGradient id="paint3_linear_302_185" x1="733.485" y1="1168.61" x2="831.397" y2="1627.28" gradientUnits="userSpaceOnUse">
<stop stop-color="#522CD5"/>
<stop offset="0.4397" stop-color="#8A6FE8"/>
</linearGradient>
<linearGradient id="paint4_linear_302_185" x1="681.355" y1="1592.62" x2="900.448" y2="2008.33" gradientUnits="userSpaceOnUse">
<stop stop-color="#522CD5"/>
<stop offset="0.4397" stop-color="#8A6FE8"/>
</linearGradient>
<radialGradient id="paint5_radial_302_185" cx="0" cy="0" r="1" gradientUnits="userSpaceOnUse" gradientTransform="translate(825.688 1807.89) rotate(-0.261729) scale(189.275 189.887)">
<stop offset="0.034" stop-color="#522CD5"/>
<stop offset="0.9955" stop-color="#8A6FE8"/>
</radialGradient>
<radialGradient id="paint6_radial_302_185" cx="0" cy="0" r="1" gradientUnits="userSpaceOnUse" gradientTransform="translate(1676.92 362.646) scale(100.202 100.632)">
<stop stop-color="#8065E0"/>
<stop offset="1" stop-color="#512BD4"/>
</radialGradient>
<radialGradient id="paint7_radial_302_185" cx="0" cy="0" r="1" gradientUnits="userSpaceOnUse" gradientTransform="translate(1041.59 709.834) scale(529.485 531.758)">
<stop offset="0.4744" stop-color="#A08BE8"/>
<stop offset="0.8618" stop-color="#8065E0"/>
</radialGradient>
<linearGradient id="paint8_linear_302_185" x1="787.088" y1="5.24141" x2="787.088" y2="422.178" gradientUnits="userSpaceOnUse">
<stop offset="0.5634" stop-color="#F7B548"/>
<stop offset="1" stop-color="#FCCF84"/>
</linearGradient>
<linearGradient id="paint9_linear_302_185" x1="445.472" y1="839.211" x2="445.472" y2="1380.97" gradientUnits="userSpaceOnUse">
<stop offset="0.3344" stop-color="#9780E6"/>
<stop offset="0.8488" stop-color="#8A6FE8"/>
</linearGradient>
<radialGradient id="paint10_radial_302_185" cx="0" cy="0" r="1" gradientUnits="userSpaceOnUse" gradientTransform="translate(649.536 841.949) scale(97.6521 98.0712)">
<stop stop-color="#8065E0"/>
<stop offset="1" stop-color="#512BD4"/>
</radialGradient>
<radialGradient id="paint11_radial_302_185" cx="0" cy="0" r="1" gradientUnits="userSpaceOnUse" gradientTransform="translate(321.174 1257.74) scale(194.719 195.554)">
<stop stop-color="#8065E0"/>
<stop offset="1" stop-color="#512BD4"/>
</radialGradient>
<radialGradient id="paint12_radial_302_185" cx="0" cy="0" r="1" gradientUnits="userSpaceOnUse" gradientTransform="translate(938.941 623.34) scale(412.462 414.233)">
<stop offset="0.0933" stop-color="#E1DFDD"/>
<stop offset="0.8998" stop-color="white"/>
</radialGradient>
</defs>
</svg>
