<svg width="2000" height="2000" viewBox="0 0 2000 2000" fill="none" xmlns="http://www.w3.org/2000/svg">
<g clip-path="url(#clip0_302_85)">
<path d="M525.564 1112.11C497.601 1111.76 470.384 1111.71 443.168 1111.67C428.51 1111.64 423.336 1106.38 423.336 1091.44C423.334 875.366 423.334 659.289 423.336 443.213C423.336 430.325 428.721 425.002 441.736 425.002C760.296 425.001 1078.86 425.001 1397.42 425.002C1412.35 425.002 1421.67 434.269 1421.66 449.118C1421.65 586.04 1421.64 722.962 1421.62 860.649C1418.39 862.609 1417.16 860.045 1415.81 858.116C1408.85 848.182 1401.91 838.247 1393.99 829.021C1391.83 826.503 1390.25 823.537 1390.58 819.242C1390.06 815.201 1390.25 811.863 1390.25 808.533C1390.25 696.33 1390.25 584.127 1390.24 471.923C1390.24 456.458 1390.22 456.424 1374.62 456.424C1073.56 456.416 772.504 456.415 471.444 456.425C456.454 456.426 456.424 456.465 456.423 471.622C456.415 669.089 456.414 866.555 456.425 1064.02C456.426 1080.2 456.463 1080.23 472.301 1080.24C503.684 1080.27 535.068 1080.23 566.451 1080.27C570.884 1080.27 575.362 1079.97 580.428 1081.8C582.095 1082.86 582.797 1083.71 583.537 1085.54C584.869 1093.97 585.521 1101.59 582.616 1109.79C580.375 1111.96 578.233 1112.65 576.01 1112.68C559.443 1112.93 542.871 1113.63 525.564 1112.11Z" fill="#E4EFF8"/>
<path d="M1056.94 1225.46C1027.47 1207.31 1002.48 1185.21 982.858 1157.27C980.527 1153.95 976.763 1151.73 975.263 1147.14C982.025 1143.22 988.06 1146.67 994.811 1148.98C995.707 1149.83 996.275 1150.32 996.229 1150.77C995.049 1162.47 1003.07 1163.45 1011.65 1164.66C1028.08 1166.98 1044.47 1169.71 1060.79 1172.72C1069.93 1174.41 1077.44 1174.96 1081.16 1163.73C1085.92 1161.92 1090.02 1163.05 1094.1 1163.73C1177.9 1177.58 1261.73 1191.28 1345.47 1205.52C1349.02 1206.12 1352.73 1206.4 1354.79 1210.73C1341.17 1221.85 1326.21 1230 1310.77 1238.36C1299.88 1245.19 1287.93 1248.18 1276.7 1252.81C1274.16 1253.86 1271.36 1254.28 1268.19 1256.31C1283.04 1261.11 1298.29 1261.88 1312.64 1267.95C1313.7 1273.45 1314.34 1278.53 1314.85 1284.32C1311.04 1288.39 1306.84 1286.91 1302.88 1286.03C1288.55 1282.87 1274.18 1279.91 1259.15 1277.1C1258.52 1272.71 1258.44 1268.74 1258.45 1264.02C1258.39 1261.78 1257.99 1260.33 1257.01 1258.65C1242.23 1260.21 1227.94 1262.1 1213.63 1263.84C1200.25 1265.48 1186.97 1264.93 1173.47 1263.8C1154.38 1262.2 1136.04 1257.81 1117.58 1253.37C1113.03 1252.28 1108.99 1250.13 1104.01 1248.64C1087.11 1242.91 1071.9 1235.11 1056.94 1225.46Z" fill="#7C67D9"/>
<path d="M1391.4 821.205C1401.68 834.519 1411.78 847.31 1421.1 861.24C1429.84 871.022 1434.47 882.755 1439.26 894.07C1446.07 910.158 1451.78 926.764 1455.08 944.111C1458.78 963.552 1460.93 983.036 1460.04 1002.84C1459.5 1014.81 1461.37 1026.96 1456.98 1039.27C1453.47 1042.58 1450.43 1040.39 1447.61 1038.95C1432.2 1031.07 1415.95 1025.47 1398.83 1020.31C1394.67 1018.48 1394.7 1014.51 1392.45 1011.31C1388.96 1001.1 1379.99 996.227 1373.88 988.258C1381.91 943.625 1378.21 900.83 1359.83 859.784C1343.36 822.999 1319.04 792.594 1285.14 770.226C1281.05 767.528 1276.16 765.598 1273.99 759.925C1274.6 755.825 1277.01 753.302 1279.14 749.94C1282.2 747.806 1284.94 748.337 1287.54 749.326C1326.89 764.245 1361.5 786.258 1389.82 817.677C1390.57 818.508 1391.02 819.52 1391.4 821.205Z" fill="#7C67D9"/>
<path d="M1355.33 1211.54C1347 1206.43 1337.85 1206.94 1329.35 1205.5C1260.7 1193.9 1191.98 1182.77 1123.28 1171.49C1109.92 1169.3 1096.57 1167.08 1082.51 1164.92C1080.04 1163.37 1079.22 1161.28 1079.46 1159.02C1080.83 1145.86 1082.5 1132.75 1085.89 1119.92C1086.24 1118.58 1087.1 1117.46 1088.74 1116.1C1098.06 1114.4 1106.39 1116.9 1114.76 1118.38C1136.52 1122.22 1158.35 1125.59 1180.83 1129.46C1200.21 1132.73 1218.91 1135.74 1237.61 1138.78C1240.86 1139.31 1244.14 1139.74 1248.02 1140.78C1295.85 1148.31 1342.87 1156.35 1389.93 1164.17C1392.68 1164.63 1395.37 1165.33 1397.91 1167.9C1393.39 1178.42 1384.97 1185.44 1377.27 1192.86C1370.47 1199.41 1362.26 1204.46 1355.33 1211.54Z" fill="#D5CDF4"/>
<path d="M1398.85 1168.29C1354.45 1161.21 1310.58 1153.94 1266.73 1146.61C1261.03 1145.66 1255.38 1144.45 1249.04 1143.22C1245.06 1136.64 1250.81 1135.52 1254.3 1133.74C1268.61 1126.45 1282.26 1118.17 1294.8 1108.11C1307.12 1098.24 1318.3 1087.25 1328.25 1074.19C1331.19 1072.79 1333.65 1073.02 1336.07 1073.71C1352.95 1078.54 1368.21 1075.6 1381.75 1064.26C1382.6 1063.55 1383.63 1063.13 1385.31 1062.59C1405.29 1067 1423.08 1075.19 1439.85 1085.71C1442.71 1087.51 1445.38 1089.65 1443.78 1094.25C1435.88 1111.78 1428.44 1128.85 1417.86 1144.25C1412.17 1152.52 1406.81 1161.12 1398.85 1168.29Z" fill="#7C67D9"/>
<path d="M1085.88 1367.81C1087.08 1386.24 1086.18 1404.39 1088.71 1422.04C1092.18 1446.28 1090.61 1470.81 1094.77 1494.97C1096.58 1505.46 1094.73 1516.32 1096.36 1527.11C1098.38 1540.39 1098.92 1553.94 1098.39 1567.48C1098.01 1576.96 1095.42 1579.97 1086.18 1579.98C1062.88 1580 1039.58 1579.95 1015.48 1579.78C1017.77 1568.94 1017.33 1557.95 1017.47 1546.31C1017.25 1540.53 1017.66 1535.57 1020.47 1530.4C1033.59 1511.52 1044.28 1492.11 1051.55 1470.23C1055.36 1461.73 1057.57 1453.29 1060.95 1444.64C1062.42 1436.91 1065.29 1430.18 1066.45 1422.36C1069.16 1414.36 1069.66 1406.6 1071.03 1398.99C1072.32 1391.81 1069.63 1387.44 1063.54 1384.18C1060.14 1382.36 1056.66 1380.58 1053.57 1378.24C1050.7 1376.06 1047.63 1373.74 1050.6 1368.95C1062.51 1367.15 1073.83 1364.95 1085.88 1367.81Z" fill="#4F30CD"/>
<path d="M524.895 1112.56C531.734 1108.76 539.021 1110.49 546.13 1110.29C557.464 1109.98 568.812 1110.15 580.937 1110.06C584.54 1107.23 588.158 1107 591.768 1107C632.103 1106.99 672.438 1106.65 713.577 1107.26C721.865 1106.93 729.35 1106.78 737.634 1107.37C751.818 1106.72 765.202 1106.8 779.396 1107.36C816.133 1106.54 852.065 1106.86 888.796 1107.3C910.217 1106.87 930.837 1106.54 952.197 1107.73C961.57 1112.24 964.754 1119.91 965.317 1129.49C822.463 1130.05 680.043 1130.02 537.623 1130C525.007 1130 525.008 1130 524.996 1117.48C524.994 1116.1 524.981 1114.71 524.895 1112.56Z" fill="#B2AFAB"/>
<path d="M1562.66 1266.44C1568.7 1281.1 1574.57 1295.24 1579.73 1309.63C1582.48 1317.32 1575.34 1333.77 1567.28 1336C1558.05 1338.56 1550.62 1343.67 1542.83 1348.47C1535.68 1352.87 1528.12 1353.37 1521.04 1349.53C1516.09 1346.85 1514.36 1351.16 1511.97 1352.64C1497.21 1361.71 1478.8 1356.01 1472.6 1340.09C1470.59 1334.91 1473.39 1328.92 1469.06 1324.16C1467.11 1324.39 1466.01 1326.55 1464.5 1328.05C1449.54 1342.83 1431.4 1340.98 1420.57 1322.96C1415.4 1314.35 1417.84 1305.7 1423.17 1297.69C1430.51 1286.69 1441.7 1279.14 1449.31 1268.33C1451.91 1264.63 1455.58 1261.68 1459.34 1258.28C1465.18 1256.54 1465.15 1260.8 1465.75 1263.75C1466.99 1269.81 1469.27 1275.39 1472.4 1280.67C1482.11 1297.07 1497.14 1304.67 1515.52 1303.5C1534.68 1302.28 1548.62 1292.1 1555.95 1273.77C1557.21 1270.64 1557.35 1266.36 1562.66 1266.44Z" fill="#856FE1"/>
<path d="M1202.46 1530.54C1203.05 1525.12 1206.8 1522.19 1210.16 1519.06C1230.47 1500.16 1243.02 1476.21 1254.28 1451.43C1255.6 1448.53 1255.03 1444.96 1257.6 1441.9C1262.18 1438.37 1266.02 1440.4 1269.71 1442.21C1282.32 1448.42 1294.64 1455.2 1306.91 1462.01C1315.34 1466.69 1324.3 1470.24 1332.97 1475.73C1337.19 1493.87 1339.95 1511.45 1335.75 1530.03C1328.18 1534.48 1320.56 1532.62 1312.32 1532.65C1282.62 1533.26 1253.73 1533.41 1224.07 1532.41C1216.63 1530.08 1209.57 1534.29 1202.46 1530.54Z" fill="#856FE1"/>
<path d="M1053.32 1469.43C1047.89 1489.04 1039.59 1506.74 1027.97 1522.84C1026.51 1524.86 1025.07 1526.89 1023.33 1529.4C1019.81 1532.51 1016.03 1533.2 1012.06 1532.77C986.064 1529.94 959.981 1532.03 933.946 1531.36C929.544 1531.25 925.026 1531.82 920.369 1528.87C919.782 1523.93 923.877 1522.45 926.302 1520.55C948.453 1503.19 967.437 1482.65 985.433 1461.27C990.32 1455.47 995.45 1449.27 999.364 1441.89C1002.46 1439.76 1005.14 1440.1 1007.7 1441.54C1021.69 1449.46 1035.71 1457.31 1049.63 1465.35C1051.07 1466.18 1052.31 1467.32 1053.32 1469.43Z" fill="#856FE1"/>
<path d="M1086.54 1367.53C1074.81 1369.08 1063.2 1370.46 1050.71 1369.81C1044.76 1371.91 1039.68 1371.47 1034.11 1368.84C1033.99 1347.33 1034.82 1326.4 1037.74 1305.45C1039.65 1291.73 1043.2 1278.4 1045.17 1264.05C1046.34 1263.01 1044.9 1262.95 1045.97 1262.94C1063.24 1262.77 1079.82 1265.77 1095.19 1274.47C1096.23 1283.53 1092.93 1291.46 1091.17 1299.15C1086.03 1321.6 1086.97 1344.16 1086.54 1367.53Z" fill="#856FE1"/>
<path d="M1496.97 1208.76C1500.02 1192.34 1495.88 1176.91 1493.49 1160.69C1493.13 1131.24 1495.41 1102.45 1492.25 1073.73C1492.03 1071.78 1492 1069.84 1494.39 1068.3C1516.42 1088.52 1530.38 1112.82 1538.71 1141.12C1544.76 1161.66 1546.7 1182.25 1546.67 1203.32C1546.66 1207.38 1546.97 1211.46 1544.85 1215.93C1542.59 1218.36 1540.45 1217.39 1538.52 1216.37C1527.11 1210.33 1515.11 1207.93 1502.28 1210.11C1500.62 1210.39 1498.96 1210.08 1496.97 1208.76Z" fill="#8772E1"/>
<path d="M1258.5 1277.36C1270.08 1274.09 1280.59 1279.33 1291.55 1280.92C1298.84 1281.98 1305.89 1284.61 1314.03 1285.01C1318.23 1294.56 1317.63 1304.79 1319.4 1314.65C1322.47 1331.78 1323.2 1349.34 1324.8 1367.44C1324.31 1368.51 1323.94 1368.87 1322.93 1369.62C1311.34 1372.23 1300.33 1371.06 1288.62 1370.7C1282.47 1369.25 1276.85 1369.98 1270.83 1368.69C1266.58 1346.59 1266.09 1324.54 1261.98 1302.87C1260.44 1294.74 1261.25 1286.1 1258.5 1277.36Z" fill="#856FE1"/>
<path d="M1443.9 1095C1443.77 1090.75 1441.09 1089.21 1438.15 1087.28C1422.35 1076.96 1404.6 1071.01 1386.9 1063.65C1386.19 1062.07 1386.05 1060.86 1386.68 1059.94C1394.61 1048.42 1396.92 1035.58 1395.85 1021.89C1395.76 1020.76 1396.43 1019.79 1397.78 1018.64C1415.5 1021.99 1431.65 1028.37 1447.3 1036.15C1450.02 1037.5 1452.85 1038.62 1456.25 1039.88C1460.47 1040.32 1463.27 1042.18 1466.13 1045.1C1467.61 1046.75 1468.7 1048.22 1468.83 1049.8C1470.26 1067.11 1470.32 1084.45 1468.79 1101.75C1468.46 1105.49 1466.06 1108.46 1460.6 1107.08C1453.66 1104.32 1450.43 1097.92 1443.9 1095Z" fill="#917FDE"/>
<path d="M1286.24 1368.71C1298.34 1368.17 1310.08 1368.16 1322.6 1368.19C1324.13 1368.97 1324.11 1370.01 1324.77 1371.28C1329.05 1380.65 1329.6 1390.45 1331.57 1399.9C1334.27 1412.93 1336.35 1426.08 1338.67 1439.19C1341.74 1456.58 1345.86 1473.76 1348.47 1491.26C1350.47 1504.65 1353.87 1517.83 1356.42 1531.14C1358.87 1543.95 1361.08 1556.81 1363.31 1569.67C1364.86 1578.64 1358.41 1580.5 1351.96 1581.36C1347.1 1582.01 1342.06 1581.3 1336.73 1580.57C1338.82 1565.62 1334.46 1551.91 1332.63 1537.27C1332.51 1534.59 1332.94 1532.76 1334.59 1530.58C1336.05 1512.05 1333.92 1494.28 1331.42 1475.82C1326.36 1470.69 1327.79 1464.38 1326.55 1458.86C1325.77 1455.37 1325.43 1451.78 1324.6 1447.57C1323.93 1438.63 1322.32 1430.52 1321.01 1421.69C1320.31 1412.99 1318.06 1405.22 1316.97 1397.26C1316.28 1392.16 1313.32 1388.75 1308.86 1386.4C1303.22 1383.43 1297.78 1380.09 1292.16 1377.07C1289.05 1375.39 1285.5 1373.83 1286.24 1368.71Z" fill="#4F30CD"/>
<path d="M1546.25 1220.17C1555.82 1223.89 1558.07 1232.91 1561.5 1240.88C1562.93 1244.2 1562.73 1248.23 1563.16 1252.63C1548.19 1279.06 1505.72 1289 1477.13 1264.54C1471.25 1259.51 1465.92 1253.82 1460.72 1247.18C1463.69 1235.07 1468.34 1224.25 1479.3 1216.81C1486.46 1216.55 1485.4 1222.29 1486.55 1226.01C1491.82 1243.01 1507.06 1251.48 1524.18 1246.77C1532.9 1244.37 1538.3 1238.51 1541.83 1230.53C1543.29 1227.26 1543.68 1223.56 1546.25 1220.17Z" fill="#654BD2"/>
<path d="M1334.5 1536.29C1336.49 1545.27 1338.12 1553.85 1339.36 1562.49C1340.16 1568.09 1341.86 1573.98 1336.71 1579.4C1296.72 1579.96 1257.08 1579.92 1217.45 1580.07C1211.12 1580.09 1207.87 1577.19 1206.65 1571.29C1204.47 1560.76 1202.26 1550.24 1200.17 1539.03C1207.03 1536.07 1210.33 1541.54 1214.14 1545.01C1230.81 1560.22 1250.39 1567.07 1272.75 1565.7C1292.74 1564.47 1309.18 1555.26 1323.69 1542C1326.65 1539.29 1329.03 1535.37 1334.5 1536.29Z" fill="#856FE1"/>
<path d="M1460.19 1247.39C1463.99 1247.01 1466.04 1249.48 1468.18 1252.16C1479.61 1266.49 1494.44 1275.56 1512.75 1276.28C1530.25 1276.96 1545.78 1270.63 1557.87 1257.36C1559.15 1255.95 1559.82 1254 1562.5 1253.41C1563.15 1257.33 1563.26 1261.34 1563.24 1266.1C1559.15 1267.14 1559.6 1270.8 1558.77 1273.09C1551.42 1293.5 1530.2 1308.52 1511.21 1306.5C1485.21 1303.74 1466.53 1286.95 1463.34 1263.45C1463.09 1261.55 1463.47 1259.46 1460.54 1258.34C1459.97 1254.81 1460.02 1251.45 1460.19 1247.39Z" fill="#5B3FD0"/>
<path d="M1019.11 1544.68C1019.7 1552.05 1019.62 1558.99 1020.04 1565.9C1020.35 1571.01 1018.74 1575.09 1014.9 1579.08C986.37 1579.76 958.044 1579.93 929.717 1579.95C923.606 1579.95 918.531 1574.34 918.391 1567.4C918.194 1557.68 918.379 1547.96 918.511 1537.46C923.317 1534.24 925.809 1538.28 928.585 1540.45C944.414 1552.82 962.125 1558.16 982.153 1555.82C991.37 1554.75 999.949 1552.01 1007.93 1547.26C1011.18 1545.32 1014.33 1542.6 1019.11 1544.68Z" fill="#856FE1"/>
<path d="M1460.07 1107.26C1466.2 1107.05 1466.74 1103 1466.71 1098.07C1466.59 1081.01 1466.65 1063.96 1466.64 1046.15C1476.55 1051.96 1486.44 1058.54 1494.93 1067.75C1492.04 1073.33 1496.92 1077.4 1496.84 1082.29C1496.45 1106.34 1496.67 1130.4 1496.65 1154.46C1496.65 1156.35 1496.95 1158.41 1494.23 1159.8C1488.23 1156.04 1490.04 1149.14 1487 1144.1C1479.19 1131.17 1470.82 1118.7 1460.07 1107.26Z" fill="#8B78DD"/>
<path d="M1019.69 1544.44C1017.25 1544.82 1015.09 1545.48 1013.27 1546.77C985.208 1566.71 945.812 1561.53 921.248 1537.49C920.885 1537.13 920.246 1537.05 919.179 1536.77C918.645 1534.11 918.668 1531.54 919.242 1528.62C953.722 1528.72 987.682 1527.24 1022.3 1529.92C1020.89 1534.26 1019.37 1538.78 1019.69 1544.44Z" fill="#7860DB"/>
<path d="M1335.05 1535.99C1327.38 1538.77 1323.29 1545.62 1317.71 1550.27C1286 1576.67 1238.6 1573.37 1211.47 1545.63C1208.54 1542.63 1205.1 1540.4 1200.84 1538.43C1200.04 1535.86 1199.21 1533.27 1201.67 1530.56C1208.31 1531.48 1214.38 1527.16 1221.21 1529.53C1230.03 1537.45 1238.99 1543.9 1250.03 1546.83C1270.52 1552.25 1289.09 1548.58 1305.5 1534.98C1307.22 1533.56 1308.93 1532.16 1311.19 1530.45C1318.93 1530.02 1326.2 1530.02 1334.26 1530.01C1335.05 1531.79 1335.07 1533.56 1335.05 1535.99Z" fill="#7860DB"/>
<path d="M1546.57 1219.36C1544.79 1239.88 1533.73 1250.47 1515.46 1250.68C1500.23 1250.86 1487.47 1243.12 1483.47 1223.85C1482.97 1221.44 1483.39 1218.8 1480.37 1216.89C1484.79 1213.52 1489.2 1209.39 1495.87 1208.3C1507.06 1206.92 1517.57 1205.39 1528.12 1209.02C1533.63 1210.91 1538.59 1213.68 1544.17 1216.57C1545.29 1217.4 1545.84 1218.16 1546.57 1219.36Z" fill="#6E56D5"/>
<path d="M965.12 1130.61C963.282 1123.01 959.55 1116.99 955.287 1110.61C949.444 1105.88 946.665 1100.45 948.449 1092.9C967.25 1092.92 985.192 1095.11 1002.75 1102.42C1005.2 1119.11 1002.3 1134.46 995.665 1149.67C988.843 1148.89 982.703 1147.82 975.915 1146.64C971.963 1141.42 968.659 1136.29 965.12 1130.61Z" fill="#D5CDF4"/>
<path d="M1326.21 1446.24C1329.93 1455.39 1329.11 1464.83 1331.36 1474.41C1322.36 1474.79 1315.54 1469.21 1308.05 1465.35C1294.14 1458.18 1280.4 1450.68 1266.6 1443.3C1264.36 1442.1 1262 1441.52 1258.8 1441.61C1259.15 1433.88 1262.26 1426.78 1264.97 1418.92C1268.31 1415.5 1271.65 1416.53 1274.55 1418.15C1291.48 1427.62 1309.52 1435.03 1326.21 1446.24Z" fill="#7860DB"/>
<path d="M1286.02 1367.93C1286.75 1370.59 1287.89 1372.31 1290.1 1373.36C1291.84 1374.18 1293.54 1375.1 1295.26 1375.96C1319.11 1387.98 1319.11 1387.98 1323.3 1419.35C1320.42 1422.48 1317.51 1421.23 1314.79 1419.9C1299.45 1412.39 1284.5 1404.13 1269.07 1395.51C1271.35 1386.76 1269.36 1378.21 1270.15 1369.03C1275.29 1366.93 1280.3 1365.69 1286.02 1367.93Z" fill="#5B3FD0"/>
<path d="M1033.46 1369.05C1038.61 1368.85 1043.76 1367.54 1049.32 1369.56C1050.16 1373.27 1052.35 1375.24 1055.17 1376.72C1056.88 1377.62 1058.64 1378.43 1060.34 1379.35C1074.71 1387.13 1076.2 1389.92 1072.74 1405.61C1071.62 1410.68 1072.08 1416.13 1068.86 1421.26C1058.81 1419.54 1051.21 1413.33 1042.68 1408.97C1036.79 1405.96 1031 1402.75 1025.02 1398.76C1028.39 1389 1032.88 1379.98 1033.46 1369.05Z" fill="#5B3FD0"/>
<path d="M1053.94 1469.65C1038.59 1461.58 1023.65 1453.16 1008.76 1444.65C1006.34 1443.27 1004.05 1441.71 1000.5 1441.64C1004.28 1434.78 1008.69 1427.94 1013.36 1420.56C1016.39 1417.86 1018.98 1419.38 1021.31 1420.71C1034.97 1428.51 1048.96 1435.74 1062.69 1444.62C1060.21 1453.12 1057.29 1461.19 1053.94 1469.65Z" fill="#7860DB"/>
<path d="M1268.51 1395.75C1279.28 1397.34 1288.16 1403.49 1297.58 1408.42C1305.58 1412.61 1313.2 1417.58 1322.67 1420.02C1324.35 1428.44 1326.95 1436.62 1326.69 1445.93C1323.14 1446.9 1320.45 1445.02 1317.5 1443.43C1302.7 1435.44 1287.82 1427.62 1272.89 1419.89C1271.02 1418.92 1268.68 1418.84 1265.92 1418.35C1264.9 1410.85 1267.94 1403.83 1268.51 1395.75Z" fill="#6E56D5"/>
<path d="M1063.28 1444.42C1053.92 1443.98 1047.4 1437.35 1039.54 1433.51C1031.12 1429.4 1023.02 1424.65 1014.2 1420.11C1016.34 1412.68 1022.17 1406.81 1024.17 1398.57C1030.52 1397.77 1034.32 1402.06 1038.84 1404.51C1048.56 1409.76 1058.1 1415.36 1068.06 1421.26C1068.68 1429.5 1065.05 1436.41 1063.28 1444.42Z" fill="#6E56D5"/>
<path d="M1095.63 1274.85C1082.53 1269.26 1068.56 1268.93 1055.47 1265.14C1052.59 1264.31 1049.56 1263.96 1045.95 1263.37C1047.32 1258.34 1046.39 1252.48 1050.02 1247.27C1051.79 1245.24 1053.69 1244.8 1055.62 1245.16C1070.4 1247.95 1085.41 1249.81 1099.89 1256.22C1098.95 1262.69 1097.57 1268.6 1095.63 1274.85Z" fill="#7860DB"/>
<path d="M1100.85 1256.51C1084.09 1253.42 1067.84 1250.07 1050.94 1246.7C1050.96 1239.46 1054.01 1232.97 1056.53 1225.71C1061.98 1224.46 1065.43 1228.82 1069.8 1230.87C1080.96 1236.1 1091.86 1241.87 1103.14 1247.96C1103.94 1251.39 1102.06 1253.66 1100.85 1256.51Z" fill="#6E56D5"/>
<path d="M1313.19 1267.65C1295.85 1266.48 1279.43 1261.08 1262.43 1258.21C1262.33 1257.31 1262.24 1256.41 1262.15 1255.51C1277.72 1249.79 1293.29 1244.08 1309.51 1238.38C1311.22 1247.91 1312.27 1257.42 1313.19 1267.65Z" fill="#6E56D5"/>
<path d="M1256.57 1258.96C1259.84 1258.31 1259.46 1260.55 1258.88 1262.99C1256.87 1262.54 1256.65 1261.08 1256.57 1258.96Z" fill="#6E56D5"/>
<path d="M1325.06 1371.06C1324.55 1370.84 1323.99 1370.05 1323.41 1368.74C1323.38 1368.22 1324.03 1368.19 1324.35 1368.18C1324.78 1368.93 1324.9 1369.7 1325.06 1371.06Z" fill="#5B3FD0"/>
<path d="M1391.96 821.323C1372.37 802.39 1352.02 784.554 1328.2 771.001C1313.24 762.49 1297.83 755.042 1280.74 749.834C1277.16 749.141 1276.46 746.706 1276.17 744.286C1275.19 736.14 1271.34 729.452 1265.62 722.962C1263.09 718.743 1258.74 716.375 1258.55 710.805C1259.36 698.835 1258.25 687.505 1259.54 675.575C1261.75 668.959 1267.49 666.466 1271.56 662.401C1282.07 651.9 1284.2 632.931 1276.22 620.053C1268.75 608.006 1251.12 602.024 1237.26 606.841C1222.22 612.069 1212.81 626.308 1214.24 641.657C1214.8 647.631 1217.3 652.846 1220.41 657.848C1222.31 660.903 1224.83 663.583 1226.18 667.679C1224.09 680.533 1219.33 692.01 1215.54 704.444C1214.14 707.423 1212.12 708.992 1209.56 710.895C1200.82 715.542 1194.52 721.782 1190.05 729.904C1188.73 732.304 1187.39 734.691 1184.36 736.46C1164.48 740.304 1144.79 741.83 1125.32 747.87C1081.6 758.691 1044.97 781.028 1013.16 811.296C988.626 834.637 969.793 862.305 955.939 893.295C950.403 905.68 950.285 905.628 962.405 911.807C964.235 916.593 962.267 920.426 961.186 924.309C958.765 933.006 956.336 941.688 955.53 951.424C952.445 963.375 951.376 974.943 949.782 987.091C945.363 991.606 941.687 988.379 938.143 986.757C898.871 968.783 874.78 937.879 862.329 897.197C856.631 878.579 854.131 859.41 853.086 839.412C854.18 835.69 856.522 833.633 859.062 832.037C871.415 824.278 875.623 811.914 878.062 798.621C878.765 794.791 879.6 791.075 881.393 786.963C886.943 778.393 891.334 769.734 898.82 762.651C903.894 762.193 906.152 765.705 908.883 768.299C913.485 772.67 917.799 777.342 922.438 781.675C923.943 783.079 925.823 785.518 927.971 783.194C929.712 781.309 927.291 779.8 926.198 778.361C922.013 772.858 917.323 767.811 912.383 762.975C909.644 760.293 906.577 757.805 905.265 753.334C905.343 747.993 908.631 744.757 910.949 741.073C913.152 737.572 915.504 734.163 917.173 730.361C920.892 721.886 919.125 712.214 912.745 705.89C906.793 699.991 896.155 698.419 888.049 702.271C885.812 703.333 883.954 705.089 880.951 705.99C869.865 701.558 863.271 692.943 856.852 683.304C854.966 676.271 854.377 669.645 853.18 663.127C850.189 646.839 842.291 641.08 825.774 642.993C824.401 643.152 823.043 643.427 821.008 643.596C810.232 639.303 801.813 633.365 799.892 621.195C806.798 617.198 814.386 620.77 822.688 617.055C811.601 614.982 802.058 616.584 792.077 615.693C782.087 614.225 774.879 608.449 767.282 603.44C764.962 601.911 763.296 597.204 760.094 599.879C757.52 602.031 761.114 604.688 762.408 606.947C763.97 609.675 765.753 612.344 761.457 615.095C756.496 616.586 752.04 616.262 747.621 616.266C710.221 616.296 672.822 616.292 635.423 616.273C627.419 616.268 619.484 616.743 610.049 618.996C615.869 620.82 620.038 619.065 624.195 619.03C671.004 618.627 717.814 618.298 765.331 619.345C771.045 620.959 772.739 625.524 775.651 629.83C783.692 641.317 794.284 649.511 803.294 659.198C806.496 662.641 810.072 665.792 810.587 671.518C810.77 676.314 811.858 680.34 812.642 684.416C813.592 689.352 811.594 691.47 806.537 691.835C786.29 693.295 781.492 698.671 781.767 719.486C781.824 723.757 779.989 725.923 776.268 727.667C759.891 735.345 756.489 745.505 764.481 761.91C769.94 773.115 776.022 783.982 782.58 795.296C786.395 807.068 789.48 818.508 798.634 826.906C802.051 830.04 806.016 832.687 808.244 837.715C810.942 855.83 811.908 873.544 815.796 890.894C821.977 918.48 831.979 944.418 848.39 967.569C868.614 996.099 895.278 1016.63 927.506 1030.04C930.812 1031.41 934.325 1032.46 937.156 1035.85C938.855 1040.11 937.105 1044.08 938.586 1048.44C940.704 1057.16 942.778 1065.19 945.014 1073.18C946.027 1076.81 947.679 1080.64 944.043 1084.64C939.141 1086.75 934.665 1086.39 930.252 1086.4C863.2 1086.43 796.148 1086.42 729.096 1086.4C724.948 1086.4 720.769 1086.6 716.005 1084.93C711.575 1080.79 707.09 1079.55 701.801 1079.56C666.071 1079.67 630.34 1079.6 594.61 1079.64C590.425 1079.64 586.27 1079.79 582.137 1083.01C541.981 1083.28 502.55 1083.12 463.124 1083.46C455.361 1083.53 453.173 1080.95 453.18 1073.36C453.348 869.551 453.349 665.743 453.168 461.935C453.162 454.757 455.606 453.227 462.267 453.23C769.646 453.37 1077.02 453.371 1384.4 453.228C1391.1 453.225 1393.49 454.803 1393.48 461.952C1393.27 579.127 1393.33 696.303 1393.29 813.479C1393.29 815.927 1392.76 818.376 1391.96 821.323Z" fill="white"/>
<path d="M715.227 1109.37C670.859 1110.01 627.066 1110.03 582.497 1110.02C581.722 1102.79 581.724 1095.57 581.814 1087.6C584.869 1083.65 588.838 1083.66 592.701 1083.65C630.063 1083.55 667.425 1083.55 704.787 1083.64C707.832 1083.65 710.887 1083.76 714.451 1085.54C719.37 1093.45 719.053 1101.06 715.227 1109.37Z" fill="#797774"/>
<path d="M715.06 1086.42C670.848 1086.84 627.135 1086.77 582.662 1086.77C581.811 1086.04 581.721 1085.25 581.52 1083.86C581.201 1078.34 583.369 1076.72 588.421 1076.75C628.419 1076.95 668.419 1076.88 708.418 1076.82C712.118 1076.82 715.229 1077.07 714.98 1082.62C715.679 1084.1 715.843 1084.97 715.06 1086.42Z" fill="#B2AFAB"/>
<path d="M994.994 1150.68C998.872 1135.08 1000.46 1119.8 1002.68 1103.84C1000.41 1094.04 1001.87 1089.88 1009.39 1086.62C1024.84 1089.3 1039.75 1090.97 1055.13 1094.13C1064.45 1093.94 1072.66 1096.53 1081.05 1097.78C1092.14 1099.43 1094.53 1104.1 1090.31 1115.69C1084.87 1131.61 1083.58 1147.64 1081.67 1164.25C1081.27 1165.87 1080.16 1166.86 1080.26 1167.7C1081.49 1177.63 1076.3 1178.1 1068.44 1176.67C1046.31 1172.63 1024.13 1168.7 1001.85 1165.62C994.474 1164.59 991.898 1162.65 994.789 1155.49C995.275 1154.29 994.954 1152.76 994.994 1150.68Z" fill="#4F30CD"/>
<path d="M1274.54 757.754C1280 766.841 1289.48 769.798 1296.76 775.439C1339.71 808.728 1365.88 852.131 1376.6 905.133C1381.52 929.48 1380.98 953.987 1378.18 978.504C1377.85 981.463 1376.43 984.297 1375.25 987.773C1369.46 990.847 1365.58 987.361 1361.11 984.062C1359.36 980.509 1360.35 977.52 1360.72 974.507C1368.48 911.31 1352.29 855.711 1308.03 809.109C1279.19 778.746 1243.95 760.079 1202.99 751.824C1199.36 751.092 1194.02 751.422 1195.05 744.547C1197.57 742.907 1199.77 742.876 1201.98 743.217C1223.52 746.541 1245.05 749.848 1266.41 754.232C1269.1 754.786 1271.8 755.494 1274.54 757.754Z" fill="#826DDB"/>
<path d="M1397.92 1017.96C1398.39 1024.02 1398.63 1029.71 1398.41 1035.38C1398.02 1045.7 1393.68 1054.45 1386.81 1062.69C1370.23 1079.78 1350.83 1081.47 1329.05 1074.93C1322.14 1075.4 1319.6 1070.26 1316.03 1066.74C1313.71 1064.45 1311.39 1062.16 1308.9 1059.18C1305.39 1054.23 1303.46 1049.18 1301.4 1043.49C1297.86 1028.97 1298.71 1015.85 1308.99 1004.14C1315.44 1003.58 1315.37 1007.99 1315.66 1011.8C1316.01 1016.49 1316.05 1021.17 1317.68 1025.69C1322.99 1040.48 1337.18 1050.65 1352.59 1050.61C1367.76 1050.57 1382.05 1039.45 1387.2 1024C1388.75 1019.36 1388.23 1013.95 1392.84 1009.98C1396.69 1011.38 1396.2 1014.95 1397.92 1017.96Z" fill="#4F30CD"/>
<path d="M1393.41 1009.17C1390.5 1016.33 1390.81 1023.76 1387.45 1030.32C1379.42 1045.99 1361.55 1056 1346.77 1052.53C1324.91 1047.4 1313.58 1034.1 1313.27 1013.49C1313.23 1010.66 1314.64 1007.24 1310.46 1005.08C1307.78 1001.41 1310.34 999.218 1312.26 997.07C1317.41 991.322 1323.27 986.483 1331.23 983.494C1336.42 981.594 1341.11 980.346 1346.59 979.411C1351.98 979.089 1356.79 978.431 1361.14 982.712C1365.7 984.868 1369.75 986.531 1374.4 988.276C1382.4 993.938 1390.34 999.038 1393.41 1009.17Z" fill="#5B3FD0"/>
<path d="M1275.51 758.04C1258 755.324 1241 752.287 1223.99 749.377C1214.81 747.808 1205.59 746.459 1195.7 745.032C1193.38 746.445 1191.51 746.947 1188.68 746.468C1183.68 744.094 1182.08 740.887 1184.59 735.691C1189.64 724.266 1196.1 715.07 1207.63 709.65C1211.03 711.728 1210.53 714.94 1210.75 717.898C1211.7 730.677 1219.47 740.243 1231.04 742.81C1242.46 745.343 1253.91 739.836 1260.13 728.752C1261.73 725.886 1262.77 722.634 1266.53 720.775C1274.67 728.469 1277.81 738.264 1279.82 749.254C1280.01 753.121 1279.09 755.996 1275.51 758.04Z" fill="#4F30CD"/>
<path d="M1302.85 1042.97C1305.55 1047.9 1307.72 1052.46 1310 1057.59C1311.24 1062.69 1308.16 1065.5 1305.66 1068.31C1279.03 1098.11 1246.26 1117.71 1207.32 1126.8C1199.25 1128.69 1191.18 1130.7 1182.26 1131.54C1158.56 1129.24 1135.81 1124.56 1112.93 1120.77C1105.59 1119.55 1098.26 1118.23 1090.34 1116.58C1089.76 1115.37 1089.75 1114.55 1089.79 1113.72C1090.26 1101.26 1090.24 1101.42 1077.56 1099.99C1070.47 1099.19 1063.46 1097.75 1055.71 1096.51C1046.62 1089.6 1038.15 1082.87 1030.84 1074.85C1027.77 1071.49 1024.97 1067.94 1028.54 1062.7C1039.62 1062.03 1049.5 1065.21 1060.02 1068.26C1070.58 1081.26 1084.35 1088.64 1098.7 1094.63C1159.22 1119.87 1215.85 1112.39 1268.22 1073.09C1277.54 1066.09 1285.35 1057.32 1293.03 1048.53C1295.53 1045.67 1297.6 1042.03 1302.85 1042.97Z" fill="#8B78DD"/>
<path d="M1182.18 1132.1C1181.97 1129.4 1183.38 1128.63 1185.61 1128.34C1217.67 1124.14 1247.19 1113.38 1273.46 1094.26C1287.17 1084.28 1299.59 1072.99 1309.85 1058.68C1316.74 1062.61 1320.23 1070.53 1328.03 1074.48C1326.38 1084.63 1318.17 1089.94 1311.98 1096.12C1294.92 1113.16 1275.02 1126.57 1253.09 1136.81C1250.88 1137.83 1248.32 1138.69 1248.38 1142.49C1226.48 1139.55 1204.59 1136.02 1182.18 1132.1Z" fill="#8672DC"/>
<path d="M714.647 1087.66C714.672 1086.11 714.784 1085.31 714.982 1083.91C791.107 1083.3 867.146 1083.3 943.948 1083.29C948.934 1084.73 949.494 1088.1 948.892 1092.46C949.556 1098.73 952.134 1103.84 954.767 1109.57C933.857 1110.16 912.728 1110.19 890.821 1110.17C888.315 1108.2 887.186 1105.9 887.264 1103.37C887.504 1095.61 882.804 1094.61 876.508 1094.6C845.048 1094.56 813.586 1094.93 781.387 1094.35C771.224 1094.83 761.782 1094.72 752.369 1094.42C745.141 1094.19 740.373 1095.77 740.88 1104.23C740.979 1105.87 740.303 1107.49 738.887 1109.47C731.052 1110.09 723.651 1110.12 715.451 1110.07C714.68 1102.8 714.707 1095.61 714.647 1087.66Z" fill="#E4EFF8"/>
<path d="M779.185 1092.4C812.644 1091.72 845.625 1091.69 878.606 1091.67C890.003 1091.66 890.003 1091.68 890.017 1102.74C890.019 1104.68 890.023 1106.62 890.035 1109.34C853.792 1110.16 817.539 1110.2 780.489 1110.17C776.121 1104.6 776.533 1098.88 779.185 1092.4Z" fill="white"/>
<path d="M778.912 1091.75C779.706 1097.35 779.748 1102.95 779.741 1109.32C766.458 1110.08 753.225 1110.07 739.223 1110.05C738.134 1091.72 738.134 1091.71 756.522 1091.72C763.735 1091.72 770.947 1091.74 778.912 1091.75Z" fill="#88CEC4"/>
<path d="M1310.87 1530.02C1308.22 1539.68 1299.45 1543.3 1291.24 1546.67C1268.53 1555.99 1247.09 1552.55 1227.42 1538.08C1225.06 1536.35 1222.59 1534.33 1221.73 1530.56C1251.14 1529.99 1280.61 1530 1310.87 1530.02Z" fill="#6E56D5"/>
<path d="M949.173 1093.23C947.475 1090.11 946.411 1087.2 945.029 1083.79C941.992 1072.11 939.274 1060.93 936.552 1049.08C937.974 1046.77 939.928 1046.41 941.84 1046.73C958.655 1049.52 975.711 1050.99 992.701 1056.27C997.886 1064.86 1002.93 1072.76 1008.96 1080.01C1010.77 1082.18 1012.09 1084.63 1010.35 1088.09C1001.19 1089.84 1005.73 1097.66 1003.08 1102.56C987.878 1100.42 972.839 1097.76 957.806 1095.06C955.129 1094.58 952.474 1093.98 949.173 1093.23Z" fill="#7C67D9"/>
<path d="M1187.78 744.736C1190.24 744.747 1191.97 744.841 1194.35 744.994C1196.13 749.976 1200.8 749.017 1203.82 749.625C1262.56 761.435 1307.08 793.31 1338 844.358C1360.62 881.704 1367.44 922.688 1364.87 965.634C1364.54 971.09 1362.79 976.461 1361.68 982.538C1357.2 982.042 1352.7 981.384 1347.38 981.689C1343.3 973.926 1347.49 966.506 1348.01 958.994C1350.57 921.891 1343.15 886.971 1324.43 855.16C1288.31 793.767 1233.16 762.681 1162.64 763.053C1109.29 763.334 1063.75 784.953 1028.03 825.831C1007.43 849.405 994.236 876.394 987.366 906.714C986.691 909.695 986.09 912.698 983.58 915.613C975.818 918.043 969.058 916.835 962.118 912.594C946.642 909.236 946.482 909.164 952.758 895.126C981.839 830.082 1028.59 783.025 1094.66 755.455C1103.56 751.744 1112.69 749.045 1122.46 746.081C1126.67 747.715 1130.21 746.356 1133.65 745.743C1151.42 742.578 1169.23 743.543 1187.78 744.736Z" fill="#8672DC"/>
<path d="M854.435 837.918C857.221 864.335 860.84 889.96 871.187 914.343C886.21 949.743 911.884 973.788 947.731 988.261C950.497 990.163 950.821 992.649 950.824 995.998C951.489 1007.43 950.849 1018.15 951.393 1029.55C948.394 1035.33 943.122 1035.79 937.575 1036.81C907.875 1025.32 881.581 1009.91 860.432 986.501C831.108 954.047 816.529 915.13 810.052 872.629C808.383 861.678 807.227 850.651 807.365 838.821C809.83 836.307 812.338 836.855 814.711 837.581C826.157 841.086 837.557 841.657 848.988 837.518C850.55 836.952 852.255 836.926 854.435 837.918Z" fill="#8772E1"/>
<path d="M900.239 762.843C894.535 770.804 889.325 778.475 883.592 786.375C881.758 787.077 880.672 786.588 879.267 785.331C875.555 772.829 870.069 762.229 858.746 754.817C841.092 742.619 820.339 742.967 803.529 755.782C792.13 763.902 786.603 774.674 785.125 788.414C784.402 791.544 784.059 794.148 781.913 796.677C772.761 784.416 765.742 770.848 759.411 757.027C753.585 744.311 760.559 729.977 774.247 725.865C779.676 724.234 780.238 722.344 779.225 717.258C776.152 701.837 788.525 687.383 803.816 689.39C811.828 690.441 811.698 687.544 809.942 682.153C808.986 679.22 807.974 676.418 808.602 672.618C813.46 668.788 815.54 673.448 817.925 675.78C832.3 689.835 846.745 703.843 860.489 718.508C865.275 723.614 867.298 722.156 869.991 716.645C873.245 712.648 874.886 708.07 879.524 705.278C892.264 695.755 903.615 695.043 913.209 702.955C921.493 709.787 924.119 721.546 919.264 731.48C917.334 735.427 914.763 739.062 912.442 742.814C910.556 745.864 908.608 748.875 906.514 752.448C905.74 756.924 904.287 760.355 900.239 762.843Z" fill="#8772E1"/>
<path d="M661.667 496.63C696.1 496.711 729.701 496.658 763.299 496.942C777.431 497.062 791.553 498.028 805.686 498.372C824.832 498.838 843.93 497.942 862.929 495.453C867.487 494.856 869.867 496.52 869.994 501.165C870.597 523.345 871.151 545.527 871.823 567.705C871.964 572.343 869.581 574.286 865.375 574.573C862.886 574.743 860.38 574.685 857.882 574.692C796.235 574.856 734.576 574.281 672.948 575.434C631.96 576.201 590.859 574.804 549.973 579.652C541.206 580.691 532.201 580.327 523.345 579.86C511.219 579.22 505.762 574.124 505.227 562.495C504.692 550.86 505.067 539.177 505.297 527.52C505.361 524.3 505.602 519.877 510.12 520.202C515.355 520.578 513.899 524.861 513.758 528.525C513.365 538.784 513.275 549.063 513.392 559.33C513.503 569.061 515.529 571.106 525.031 571.676C541.434 572.659 557.702 570.392 574.024 569.45C577.61 569.242 581.177 568.584 584.762 568.482C664.413 566.224 744.088 566.781 823.756 566.412C835.113 566.36 846.466 565.503 857.825 565.349C862.321 565.288 863.574 563.333 863.417 559.235C862.792 542.888 862.152 526.539 861.853 510.184C861.737 503.868 857.65 504.644 853.855 505.034C828.938 507.591 803.925 507.422 779.006 506.296C723.777 503.801 668.548 505.055 613.326 505.349C581.176 505.521 549.035 507.312 516.89 508.361C514.671 508.433 512.446 508.459 510.228 508.381C508.185 508.31 506.188 507.722 505.776 505.436C505.285 502.705 507.346 501.445 509.48 500.67C510.742 500.211 512.205 500.228 513.583 500.178C530.485 499.564 547.384 498.778 564.292 498.424C596.471 497.749 628.632 496.063 661.667 496.63Z" fill="#9DD4D0"/>
<path d="M936.765 1037.23C940.316 1034.09 943.985 1032.19 948.9 1031.87C956.371 1029.36 963.119 1031.5 969.873 1032.54C977.226 1033.67 984.551 1034.98 992.618 1036.2C1022.12 1041.28 1050.95 1045.96 1079.79 1050.66C1089.03 1052.17 1098.32 1053.47 1108.18 1055.63C1134.17 1059.06 1159.24 1063.77 1184.38 1068C1199.15 1070.48 1213.87 1072.89 1229.59 1072.57C1231.74 1074.49 1232.1 1076.45 1232.08 1079.27C1227.58 1093.13 1223.25 1096.65 1209.57 1095.96C1187.43 1094.83 1165.78 1089.82 1143.95 1086.37C1118.83 1082.4 1093.67 1078.56 1068.79 1073.19C1066.1 1072.61 1063.26 1072.57 1060.45 1070.23C1049.84 1067.68 1039.75 1065.65 1029.01 1063.59C1016.47 1066.68 1005.48 1062.78 993.883 1058.75C977.848 1055.52 962.377 1052.75 946.905 1049.99C943.916 1049.45 940.922 1048.94 937.24 1048.41C934.048 1044.86 935.311 1041.35 936.765 1037.23Z" fill="#4F30CD"/>
<path d="M1225.27 668.538C1214.82 656.047 1207.88 643.245 1213.5 627.038C1218.84 611.66 1236.42 600.273 1250.8 602.759C1272.69 606.544 1282.87 618.323 1283.58 638.576C1284.16 655.054 1274.56 664.421 1262.16 673.069C1251.02 680.156 1235.94 678.387 1225.27 668.538Z" fill="#D5CDF4"/>
<path d="M528.793 855.44C526.252 852.589 526.952 849.716 526.931 847.003C526.763 825.112 526.205 803.23 528.281 781.359C528.949 774.318 531.559 771.771 538.581 771.698C581.277 771.253 623.97 770.499 666.664 769.815C669.982 769.762 673.325 769.676 676.606 769.231C689.813 767.437 695.448 770.833 697.851 783.921C699.742 794.225 700.802 804.752 701.302 815.224C701.884 827.404 701.454 839.632 701.417 852.624C699.122 855.601 696.572 855.479 693.267 853.895C689.797 849.184 690.355 844.348 690.468 839.704C690.849 823.878 689.52 808.15 687.587 792.494C686.324 782.259 685.013 781.572 674.863 781.278C632.758 780.054 590.718 783.689 548.623 782.941C542.33 782.829 540.048 785.409 539.449 791.696C537.735 809.673 537.226 827.611 538.794 845.602C538.964 847.546 538.957 849.476 538.134 852.098C535.716 855.671 532.906 856.599 528.793 855.44Z" fill="#9DD4D0"/>
<path d="M781.498 797.661C781.694 794.438 782.017 791.829 782.742 788.714C788.834 785.841 790.524 790.753 792.571 793.913C797.729 801.871 804.432 807.845 813.145 811.439C835.351 820.599 858.078 813.054 870.896 792.587C872.967 789.28 873.698 784.368 879.637 784.56C880.865 785.374 881.563 785.858 882.666 786.474C881.672 792.528 879.64 798.382 878.998 804.385C877.337 819.9 867.531 829.323 855.31 837.876C839.559 844.723 824.153 844.61 808.166 838.156C794.247 827.871 784.402 815.376 781.498 797.661Z" fill="#5B3FD0"/>
<path d="M961.548 912.779C968.339 913.144 975.128 914.126 982.625 915.067C988.708 912.889 993.931 914.418 999.824 915.769C1006.14 916.756 1011.82 917.471 1018.02 919.029C1023.58 919.064 1028.31 920.105 1033.58 921.728C1034.52 922.282 1034.86 922.556 1035.49 923.411C1035.51 932.92 1029.16 938.172 1023.56 943.749C1019.48 947.816 1015.02 951.538 1009.01 953.961C1005.92 953.925 1004.67 952.03 1003.19 950.405C995.704 942.195 990.941 941.861 981.707 949.319C978.69 952.287 977.478 956.113 973.322 957.975C966.087 957.803 960.068 955.439 953.728 952.17C953.113 938.296 958.585 926.116 961.548 912.779Z" fill="#E3E1E2"/>
<path d="M701.592 861.393C702 871.699 701.676 881.385 701.759 891.068C701.803 896.282 699.924 898.454 694.499 898.611C644.648 900.053 594.786 899.941 544.926 899.605C530.602 899.509 529.7 898.355 527.507 884.244C526.314 876.566 526.593 868.795 527.681 860.473C530.716 858.704 533.094 859.389 535.796 861.654C538.763 867.515 537.648 873.206 538.207 878.687C538.873 885.229 541.805 888.794 548.827 888.676C585.74 888.057 622.686 890.3 659.575 887.35C667.335 886.729 675.125 887.093 682.899 887.043C688.17 887.009 690.295 884.69 690.404 879.477C690.524 873.707 689.508 867.764 692.662 861.613C695.749 859.4 698.368 859.34 701.592 861.393Z" fill="#9DD4D0"/>
<path d="M879.551 704.78C877.647 708.749 875.247 712.465 872.418 716.521C868.626 718.843 866.948 716.158 865.033 714.293C838.115 688.071 813.213 659.882 786.321 633.635C783.725 631.101 781.42 628.315 781.696 623.701C782.851 619.546 785.433 617.464 789.222 615.754C794.19 614.958 796.881 617.629 799.733 621.07C804.221 630.461 811.55 636.294 819.906 641.835C832.452 655.684 846.507 667.477 857.727 682.632C864.996 690.284 872.025 697.404 879.551 704.78Z" fill="#F4F3F3"/>
<path d="M702.881 862.018C699.534 861.967 696.913 861.919 693.519 861.983C689.529 864.975 685.517 864.674 681.673 864.681C636.684 864.764 591.695 864.753 546.706 864.697C543.38 864.693 540.019 864.724 536.277 862.643C533.509 861.557 531.389 860.988 528.655 860.152C528.037 858.678 528.034 857.471 528.068 855.66C530.398 854.52 532.693 853.984 535.577 853.46C539.516 850.402 543.685 850.275 547.863 850.27C592.671 850.214 637.479 850.2 682.287 850.285C685.599 850.292 688.956 850.306 692.559 852.724C695.472 853.301 697.747 853.337 700.696 853.391C705.972 855.887 711.008 854.22 715.802 854.902C718.252 855.25 720.059 856.131 719.886 858.912C719.736 861.331 717.874 862.006 715.855 862.044C711.774 862.122 707.69 862.038 702.881 862.018Z" fill="#88CEC4"/>
<path d="M1224.6 668.557C1236.06 673.585 1247.6 677.202 1260.97 673.318C1261.39 685.731 1261.11 698.129 1260.48 711.106C1259.42 712.273 1258.62 712.637 1257.06 712.743C1245.66 707.942 1234.77 703.993 1222.03 706.777C1219.06 707.236 1216.79 707.224 1214.15 705.614C1217.23 693.136 1220.8 681.144 1224.6 668.557Z" fill="#8B78DD"/>
<path d="M782.605 623.029C783.061 626.104 784.238 628.387 786.314 630.497C814.517 659.17 842.667 687.896 871.411 716.735C870.445 720.763 867.961 724.032 865.488 726.931C847.569 708.717 829.774 690.617 811.936 672.561C811.427 672.046 810.447 671.995 809.123 671.832C808.703 667.555 805.683 665.049 803.028 662.196C793.822 652.304 783.065 643.886 775.048 632.247C774.467 626.463 777.967 624.472 782.605 623.029Z" fill="#E3E1E2"/>
<path d="M768.721 621.063C721.446 621.693 674.537 621.713 627.628 621.88C622.118 621.9 616.615 622.81 611.099 623.144C607.797 623.344 604.306 622.285 604.186 618.724C604.039 614.373 608.139 615.062 611.086 614.88C661.256 611.777 711.484 613.985 762.454 613.27C768.038 613.373 769.037 616.548 768.721 621.063Z" fill="#CBCAC8"/>
<path d="M745.553 706.267C740.511 709.546 735.294 709.729 730.021 709.942C705.029 710.951 680.214 708.303 655.324 706.851C637.365 705.804 619.283 705.888 601.33 708.25C598.157 708.668 594.674 708.357 594.228 704.375C593.712 699.757 597.627 700.284 600.577 699.984C630.761 696.912 660.824 698.286 690.984 701.166C706.358 702.635 722.021 702.727 737.493 700.567C741.809 699.964 745.371 700.291 745.553 706.267Z" fill="#CBCAC8"/>
<path d="M1256.13 711.42C1257.48 711.591 1258.24 711.627 1259.56 711.674C1260.7 715.709 1265.34 716.332 1266.95 720.132C1263.38 725.661 1262.3 732.13 1257.56 736.802C1248.53 745.706 1237.13 748.37 1225.88 744.284C1215.17 740.397 1208.36 729.186 1208.32 716.898C1208.32 714.969 1208.29 713.041 1208.25 710.327C1209.81 708.331 1211.4 707.12 1213.33 705.519C1215.89 705.043 1218.12 704.956 1221.03 704.827C1224.63 707.98 1222.74 711.641 1222.6 715.084C1222.23 724.622 1226.11 730.813 1233.48 732.095C1241.66 733.517 1248.54 728.453 1250.76 719.28C1251.53 716.097 1251.55 712.53 1256.13 711.42Z" fill="#5B3FD0"/>
<path d="M953.021 952.276C960.018 951.318 965.743 954.871 972.582 956.573C975.518 959.142 974.255 961.847 973.437 964.356C971.281 970.96 970.751 977.719 970.964 985.275C971.392 990.497 973.994 994.793 972.046 1000.13C963.722 1003.9 956.754 1000.33 949.137 997.178C948.528 994.371 948.445 992.054 948.345 989.039C947.82 976.267 949.254 964.434 953.021 952.276Z" fill="#EDEBEB"/>
<path d="M605.271 650.028C601.177 649.799 597.823 649.866 594.593 649.266C592.4 648.859 590.462 647.261 590.47 644.694C590.48 641.483 593.096 641.593 595.279 641.59C626 641.554 656.721 641.552 687.443 641.568C689.741 641.569 692.155 641.929 692.426 644.776C692.695 647.593 690.258 648.55 688.155 649.027C685.494 649.632 682.701 649.881 679.963 649.892C655.331 649.99 630.698 650.002 605.271 650.028Z" fill="#CBCAC8"/>
<path d="M858.029 682.469C845.057 670.135 831.171 658.023 820.414 642.506C841.126 636.091 852.368 643.186 855.922 664.473C856.879 670.201 857.38 676.005 858.029 682.469Z" fill="#8B78DD"/>
<path d="M516.371 728.656C514.001 724.775 506.182 723.006 510.254 718.245C514.724 713.02 518.26 719.718 521.657 722.306C529.501 728.282 529.423 728.37 533.504 719.768C537.336 711.691 541.876 704.097 549.335 698.811C552.033 696.9 555.576 694.744 558.262 698.084C561.476 702.08 556.633 702.964 554.63 704.683C545.913 712.168 540.945 721.821 537.593 732.62C534.759 741.751 532.502 742.194 525.092 735.944C522.348 733.63 519.563 731.365 516.371 728.656Z" fill="#CBCAC8"/>
<path d="M545.4 615.357C548.941 611.883 551.55 604.544 556.238 608.271C562.002 612.854 554.671 616.99 551.905 620.125C544.363 628.676 538.664 638.455 532.237 647.729C528.851 652.614 526.157 652.423 522.481 648.489C518.519 644.251 514.356 640.201 510.336 636.016C508.498 634.102 507.157 631.68 509.23 629.428C511.323 627.154 513.696 628.439 515.838 630.062C519.71 632.995 522.644 640.314 526.764 638.773C531.09 637.156 533.55 630.597 536.872 626.233C539.543 622.725 542.283 619.271 545.4 615.357Z" fill="#CBCAC8"/>
<path d="M768.6 622.137C768.19 618.385 765.59 616.466 763.693 613.606C763.242 609.156 759.699 607.301 757.567 604.548C755.505 601.883 754.498 599.448 757.674 596.734C760.611 594.225 762.797 595.505 764.699 597.801C771.091 605.517 780.191 608.937 789.33 613.37C790.533 614.085 790.799 614.794 790.32 616.103C787.885 618.469 785.839 620.37 783.503 622.713C780.614 625.66 778.015 628.165 775.208 631.171C771.195 629.859 770.855 625.682 768.6 622.137Z" fill="#B2AFAB"/>
<path d="M1188.08 744.247C1186.23 747.611 1182.96 746.581 1180.04 746.633C1162.15 746.952 1144.17 745.466 1126.44 749.188C1124.76 749.541 1123.86 748.772 1123.25 746.642C1142.74 739.379 1163.04 736.551 1184.33 735.155C1185.09 738.258 1183.8 741.806 1188.08 744.247Z" fill="#826DDB"/>
<path d="M900.253 763.411C901.654 759.98 903.564 756.826 905.907 753.333C913.419 762.136 922.775 769.189 929.657 778.557C931.666 781.291 933.446 782.892 930.131 785.922C926.95 788.831 924.948 787.58 922.518 785.145C915.324 777.935 908.022 770.833 900.253 763.411Z" fill="#E3E1E2"/>
<path d="M790.515 616.63C789.935 615.887 789.939 615.207 789.926 614.018C800.178 613.431 810.446 613.339 820.715 613.285C823.543 613.27 826.748 613.158 826.621 617.214C826.509 620.804 823.731 621.56 820.705 621.571C814.32 621.594 807.934 621.589 800.77 621.62C796.072 621.709 794.668 617.256 790.515 616.63Z" fill="#CBCAC8"/>
<path d="M993.335 1058.91C1004.54 1059.97 1015.75 1061.66 1027.66 1063.45C1028.75 1074.54 1038.5 1078.39 1044.81 1084.73C1048.26 1088.18 1052.56 1090.76 1054.93 1095.87C1040.3 1094.07 1025.59 1091.73 1010.39 1088.97C1010.48 1081.5 1003.79 1078.74 1000.97 1073.67C998.367 1068.99 993.936 1065.32 993.335 1058.91Z" fill="#8672DC"/>
<path d="M1041.78 1128.51C1042.68 1125.09 1042.32 1120.67 1046.85 1121.93C1054.45 1124.04 1062.39 1124.42 1070.67 1126.86C1063.24 1128.5 1064.19 1134.18 1063.19 1138.91C1062.69 1141.29 1063.72 1145.74 1059.97 1145.17C1056.78 1144.69 1059.15 1141.01 1059.29 1138.76C1059.41 1136.83 1059.76 1134.92 1060.04 1133C1060.41 1130.38 1060.47 1128.03 1057.13 1127.17C1053.9 1126.35 1049.51 1124.95 1047.69 1127.04C1043.49 1131.84 1051.62 1130.3 1051.88 1133.37C1050.94 1137.08 1045.53 1132.47 1045 1137.03C1044.41 1141.98 1050.85 1139.16 1051.49 1142.83C1040.78 1145.03 1039.35 1143.81 1041.05 1134.14C1041.34 1132.51 1041.49 1130.85 1041.78 1128.51Z" fill="#D5CDF4"/>
<path d="M1038.54 1122.71C1037.9 1128.31 1037.21 1133.23 1036.5 1138.15C1036.3 1139.55 1035.97 1141.04 1034.43 1141.42C1032.52 1141.88 1031.28 1140.63 1030.56 1139.04C1028.81 1135.15 1027.17 1131.21 1025.14 1126.49C1022.12 1131.22 1024.12 1136.38 1019.42 1140.07C1017.25 1132.54 1019.82 1126.03 1021.74 1119.9C1022.86 1116.29 1025.7 1118.67 1026.86 1121.08C1028.62 1124.76 1030.11 1128.57 1032.67 1134.56C1033.75 1129.36 1034.32 1126.35 1035 1123.36C1035.48 1121.29 1036.11 1119.28 1038.54 1122.71Z" fill="#D5CDF4"/>
<path d="M1018.74 920.951C1012.64 920.414 1006.97 919.402 1000.64 918.235C996.608 914.454 997.84 910.251 998.699 906.235C1004.27 880.201 1016.24 857.205 1032.84 836.645C1093.86 761.031 1209.86 752.647 1281.34 818.519C1321.9 855.895 1339.52 902.603 1337.32 957.165C1336.95 966.224 1335.59 975.346 1332.12 984.575C1323.25 989.89 1315.26 995.221 1309.94 1004.35C1301.74 1016.22 1300.3 1028.69 1303.36 1042.64C1299.88 1043.43 1297.97 1045.96 1296.1 1048.31C1270.84 1080.06 1238.35 1100.08 1198.65 1108.22C1154.27 1117.32 1113.13 1108.39 1074.97 1084.78C1069.28 1081.26 1062.83 1077.9 1060.01 1070.32C1079.09 1071.37 1097.72 1076.33 1116.7 1079.09C1147.57 1083.59 1178.18 1089.76 1209.18 1093.45C1219.7 1094.7 1226.19 1090.85 1229.74 1080.5C1231.63 1078.44 1233.47 1077.25 1235.43 1076.16C1280.34 1051.28 1306.97 1013.53 1312.53 962.423C1318.68 905.88 1297.82 859.902 1252.74 825.814C1199.45 785.511 1121.14 788.847 1070.47 832.221C1044.93 854.085 1028.55 881.42 1021.22 914.211C1020.74 916.367 1020.59 918.629 1018.74 920.951Z" fill="#917FDE"/>
<path d="M1332.36 985.056C1331.26 971.515 1335.59 958.431 1335.2 944.702C1334.03 903.018 1321.07 865.986 1293.57 834.504C1265.71 802.627 1230.7 783.701 1188.58 778.268C1137.66 771.702 1092.7 785.198 1053.87 818.693C1026.15 842.605 1008.74 872.781 1000.83 908.464C1000.24 911.135 1000.26 913.942 999.984 917.382C994.807 917.288 989.636 916.497 983.899 915.367C989.232 881.006 1003.18 851.062 1025.85 824.637C1056.57 788.829 1095.53 768.603 1141.38 762C1192.68 754.613 1239.4 768.315 1280.06 799.787C1318.36 829.437 1340.87 869.11 1348.63 917.27C1352.07 938.59 1352.5 959.465 1346.68 980.996C1342.11 982.776 1337.56 983.89 1332.36 985.056Z" fill="#8B78DD"/>
<path d="M1362.23 988.786C1373.75 994.745 1379.07 1003.75 1378.3 1016.09C1377.65 1026.61 1371.24 1033.29 1362.48 1037.85C1352.59 1043.01 1338.37 1039.34 1331.89 1030.42C1322.97 1018.15 1323.43 1006.48 1332.45 996.574C1340.65 987.582 1350.1 984.704 1362.23 988.786Z" fill="#654BD2"/>
<path d="M948.517 997.463C956.156 995.836 962.865 1000.49 971.063 999.979C974.114 999.317 975.232 1001.16 976.631 1002.39C984.538 1009.29 988.378 1009.34 996.708 1002.53C998.416 1001.13 1000.04 999.634 1002.63 998.465C1036.38 990.507 1059.74 970.686 1074.46 940.24C1076.01 937.023 1077.16 933.559 1080.52 930.796C1095.56 932.735 1110.44 932.129 1124.89 937.804C1127.28 941.182 1126.33 944.132 1125.33 946.994C1116.21 973.036 1101.26 995.169 1080.58 1013.42C1078.91 1014.9 1077.1 1016.14 1074.19 1016.47C1070.08 1015.99 1067.54 1013.69 1064.97 1011.66C1058.95 1006.94 1052.98 1007.03 1046.48 1010.73C1032.77 1018.55 1019.05 1026.36 1005.15 1033.83C1001.74 1035.66 998.572 1038 993.94 1038.38C979.043 1036.58 964.747 1034.74 949.968 1032.37C947.93 1020.68 948.342 1009.45 948.517 997.463Z" fill="#F4F3F3"/>
<path d="M801.281 755.532C812.262 742.91 834.299 739.842 852.411 747.96C854.892 749.072 857.111 750.769 859.744 752.69C869.215 773.46 861.799 793.397 842.447 800.471C821.74 808.042 799.471 792.865 799.061 770.799C798.969 765.867 798.207 760.769 801.281 755.532Z" fill="#6E56D5"/>
<path d="M801.134 755.157C801.656 760.165 801.905 765.437 801.622 770.679C800.95 783.143 807.683 790.866 817.804 796.372C829.299 802.625 840.592 800.978 850.459 793.323C859.608 786.227 863.143 776.038 861.082 764.497C860.494 761.207 859.986 757.994 860.021 753.931C871.223 760.348 878.276 770.24 880.136 784.235C876.708 785.177 876.039 788.149 874.75 790.521C858.255 820.876 822.683 827.168 797.134 804.202C792.048 799.63 790.755 791.937 783.741 788.31C783.765 774.501 789.073 763.292 801.134 755.157Z" fill="#654BD2"/>
<path d="M1072.56 1015.69C1082.57 1011.45 1088.26 1002.84 1094.77 995.65C1109.04 979.912 1118.39 961.135 1124.97 940.314C1127.39 937.555 1130.19 937.991 1132.94 938.308C1167.11 942.251 1200.8 949.191 1234.72 954.711C1246.24 956.586 1251.96 964.535 1250.33 975.453C1246.28 1002.59 1241.23 1029.56 1235.91 1057.2C1234.76 1062.92 1234.76 1068.25 1230.59 1072.83C1220.55 1077.06 1211.13 1075.23 1201.54 1073.59C1173.26 1068.76 1144.91 1064.29 1116.6 1059.63C1114.43 1059.27 1112.34 1058.48 1109.64 1057.57C1095.26 1044.98 1082.46 1031.82 1072.56 1015.69Z" fill="#FDFDFE"/>
<path d="M1229.99 1073.88C1231.08 1068.66 1232.17 1064.13 1233.47 1058.98C1242.65 1050.53 1252.36 1043.66 1260.78 1035.08C1307.86 987.079 1306.76 904.756 1260.54 855.959C1218.15 811.208 1146.03 802.514 1095.03 836.169C1066.86 854.762 1048.01 880.535 1039.37 913.425C1038.53 916.635 1038.2 920.015 1035.48 923.101C1029.88 922.859 1024.79 922.244 1019.01 921.528C1019.67 900.979 1027.81 882.989 1038.32 865.819C1059.67 830.97 1090.83 809.214 1129.95 799.429C1167.93 789.927 1204.32 795.396 1238.95 814.215C1265.95 828.889 1285.57 850.434 1299.92 876.95C1308.39 892.603 1312.45 909.863 1315.11 927.52C1319.59 957.332 1313.97 985.593 1301.03 1012.08C1286.57 1041.68 1264.6 1064.74 1234.5 1079.3C1233.54 1079.76 1232.36 1079.76 1230.65 1079.98C1230.01 1078.18 1230 1076.37 1229.99 1073.88Z" fill="#9785E0"/>
<path d="M1072.32 1014.86C1082.71 1026.25 1092.68 1037.34 1102.57 1048.5C1104.76 1050.96 1106.71 1053.64 1108.91 1056.74C1092.76 1057.04 1077.06 1052.71 1061.1 1050.22C1038.81 1046.74 1016.58 1042.93 993.83 1038.84C1012.04 1027.8 1030.57 1016.87 1049.5 1006.69C1059.14 1001.5 1065.48 1008.85 1072.32 1014.86Z" fill="#9D8CE2"/>
<path d="M693.184 852.489C649.163 853.372 605.128 853.483 561.093 853.582C553.338 853.6 545.582 853.568 536.996 853.516C535.786 842.41 535.567 831.339 534.982 820.287C534.378 808.877 536.59 797.634 536.614 786.276C536.622 782.252 538.181 779.931 542.502 780.124C543.332 780.161 544.165 780.101 544.998 780.088C589.351 779.423 633.709 778.955 678.053 777.918C686.473 777.721 689.104 781.158 690.208 788.709C693.267 809.639 693.203 830.666 693.184 852.489Z" fill="white"/>
<path d="M1035.01 923.82C1043.74 868.612 1087.27 824.584 1142.18 815.021C1207.11 803.715 1268.56 839.338 1291.41 901.518C1311.44 956.063 1289.76 1022.77 1241.43 1055.09C1239.41 1056.44 1237.64 1058.47 1234.26 1058.34C1238.29 1031.08 1242.85 1003.8 1247.52 976.533C1249.41 965.481 1245.09 958.865 1233.85 957.024C1198.07 951.164 1162.25 945.5 1125.75 939.718C1116.95 936.63 1108.33 936.031 1099.9 935.242C1093.55 934.647 1087.41 933.691 1080.68 931.984C1078.15 933.398 1075.99 933.6 1073.79 933.246C1061.16 931.208 1048.42 929.757 1035.65 925.412C1035.18 924.859 1035.07 924.166 1035.01 923.82Z" fill="#9D8CE2"/>
<path d="M1034.73 925.236C1049.91 925.658 1064.19 929.358 1079.36 931.815C1071.36 957.155 1055.6 976.565 1032.36 989.551C1023.52 994.486 1014.51 999.497 1003.19 999.739C1002.21 998.864 1001.77 997.979 1002.08 997.242C1007.78 983.644 1007.61 969.338 1007.66 954.436C1017.52 945.121 1029.35 938.571 1034.73 925.236Z" fill="#EDEBEB"/>
<path d="M1007.63 953.469C1012.44 969.444 1010.74 984.326 1002.71 999.08C1000.98 1001.28 999.604 1003.03 997.983 1004.52C988.569 1013.16 981.201 1012.03 972.198 1000.33C970.791 996.007 969.812 992.044 968.861 987.477C970.752 984.438 973.38 985.467 975.758 985.342C983.827 984.917 989.889 980.91 991.863 974.711C994.225 967.29 992.254 960.922 986.041 955.562C983.791 953.621 980.752 952.485 979.756 948.82C990.513 937.547 999.42 939.121 1007.63 953.469Z" fill="#4F30CD"/>
<path d="M979.409 948.475C981.212 949.201 982.44 950.286 983.831 951.088C994.586 957.289 998.243 966.203 994.209 976.556C990.882 985.094 981.102 989.283 969.507 986.872C967.203 976.774 968.984 967.17 973.108 957.268C975.102 954.001 977.005 951.353 979.409 948.475Z" fill="#7C67D9"/>
<path d="M535.501 862.849C587.519 862.07 639.408 862.014 692.022 862.026C692.936 869.576 693.006 877.063 693.362 884.536C693.574 888.984 691.507 890.156 687.391 890.274C639.96 891.628 592.519 891.472 545.078 891.446C539.384 891.443 536.483 889.421 535.799 883.504C535.029 876.839 535.286 870.219 535.501 862.849Z" fill="#FDFDFE"/>
<path d="M1256.43 711.054C1254.24 712.835 1253.58 714.967 1253.29 717.653C1252.01 729.63 1244.78 736.001 1233.94 734.97C1224.53 734.074 1219.01 725.944 1220.06 714.282C1220.31 711.569 1221.1 708.906 1221.67 705.502C1234.15 700.888 1245.37 704.343 1256.43 711.054Z" fill="#6E56D5"/>
<path d="M1355.86 1028.19C1341.03 1028.18 1332.4 1017.13 1338.44 1006.62C1341.88 1000.63 1347.19 997.046 1354.25 998.616C1360.43 999.988 1365.57 1003.7 1366.52 1010.44C1367.67 1018.57 1364.92 1025.08 1355.86 1028.19Z" fill="#6E56D5"/>
<path d="M1142.73 978.77C1146.49 972.025 1151.98 967.882 1159.68 969.165C1167.19 970.415 1170.75 976.576 1172.59 983.083C1177.07 998.944 1174.36 1013.91 1165.03 1027.49C1160.75 1033.7 1155.17 1038.44 1146.92 1036.83C1138.63 1035.22 1135.93 1028.26 1133.62 1021.28C1133.1 1019.72 1133.05 1018 1132.78 1015.68C1134.28 1013.34 1136.27 1013.77 1138.17 1013.66C1148.12 1013.07 1155.11 1008.08 1156.83 1000.38C1158.38 993.406 1154.64 986.685 1146.37 981.67C1145.19 980.956 1143.99 980.289 1142.73 978.77Z" fill="#4F30CD"/>
<path d="M1141.97 978.54C1154.84 981.384 1162 991.15 1159.33 1001.32C1156.48 1012.18 1145.67 1018.1 1133.45 1015.06C1130.34 1001.64 1133.97 989.751 1141.97 978.54Z" fill="#7C67D9"/>
</g>
<defs>
<clipPath id="clip0_302_85">
<rect width="2000" height="2000" fill="white"/>
</clipPath>
</defs>
</svg>
