<svg width="512" height="512" viewBox="0 0 512 512" fill="none" xmlns="http://www.w3.org/2000/svg">
<g clip-path="url(#clip0_438_10)">
<path d="M513 367.531C501.269 368.667 489.654 370.304 478.009 371.808C471.227 372.684 464.368 373.27 457.543 373.988C446.695 375.128 435.874 376.477 425.049 377.808C418.257 378.644 411.4 379.208 404.583 379.999C393.75 381.255 382.913 382.492 372.087 383.797C365.129 384.635 358.107 385.23 351.127 386.028C340.456 387.25 329.834 389.023 319.136 389.829C312.437 390.334 305.818 391.284 299.166 392.034C288.165 393.275 277.12 394.086 266.173 395.89C259.579 396.976 252.856 397.258 246.203 398.017C235.531 399.235 224.85 400.341 214.194 401.753C207.097 402.693 199.894 403.276 192.745 404.047C182.231 405.182 171.777 406.946 161.246 407.819C154.233 408.4 147.28 409.505 140.272 409.886C137.613 410.031 135.094 410.572 132.54 411.035C126.975 412.046 122.422 409.266 117.698 407.237C86.0569 393.646 54.4608 379.95 22.803 366.398C15.7483 363.378 8.53022 360.74 1.35557 357.091C1 293.312 1 229.625 1 165.469C12.6819 160.387 23.5714 154.13 34.7952 148.578C64.3736 133.946 93.8355 119.078 123.311 104.239C129.161 101.294 134.903 103.844 140.616 104.388C149.172 105.202 157.656 106.77 166.173 107.994C175.336 109.31 184.496 110.65 193.67 111.884C201.899 112.99 210.156 113.879 218.38 115.019C229.474 116.556 240.508 118.652 251.643 119.73C260.254 120.564 268.742 122.136 277.329 123.064C286.043 124.006 294.695 125.513 303.383 126.713C311.598 127.848 319.837 128.818 328.043 130.019C339.285 131.665 350.551 133.234 361.803 134.708C370.514 135.85 379.233 137.156 387.987 138.107C398.947 139.297 409.808 141.366 420.733 142.903C428.955 144.06 437.221 144.905 445.45 146.017C454.137 147.191 462.796 148.573 471.481 149.761C479.866 150.908 488.268 151.922 496.662 152.999C501.818 153.66 506.973 154.331 512.565 154.999C513 225.687 513 296.375 513 367.531Z" fill="#000102"/>
<path d="M151.901 390.978C148.149 391.339 144.842 391.63 141.55 392.041C138.656 392.402 137.583 391.119 137.844 388.35C137.938 387.359 137.857 386.352 137.857 385.353C137.857 299.712 137.856 214.072 137.857 128.432C137.857 121.775 137.842 121.919 144.221 122.786C167.397 125.934 190.595 128.914 213.768 132.078C236.937 135.242 260.077 138.622 283.247 141.776C306.586 144.952 329.956 147.896 353.294 151.072C373.835 153.868 394.343 156.906 414.882 159.722C435.588 162.562 456.314 165.262 477.032 168.017C482.294 168.717 487.552 169.454 492.825 170.049C495.085 170.304 496.102 171.359 495.988 173.613C495.93 174.776 495.986 175.945 495.986 177.112C495.987 233.261 495.948 289.411 496.065 345.56C496.073 349.744 495.786 352.056 490.586 352.481C477.203 353.574 463.884 355.449 450.537 356.991C434.223 358.876 417.907 360.752 401.59 362.608C388.566 364.089 375.537 365.518 362.514 367.001C346.196 368.858 329.884 370.761 313.566 372.617C300.543 374.098 287.513 375.52 274.489 377.002C258.172 378.86 241.859 380.758 225.542 382.628C212.85 384.083 200.156 385.522 187.463 386.967C175.76 388.299 164.057 389.63 151.901 390.978Z" fill="#284759"/>
<path d="M69.1751 306C69.1751 255.848 69.2322 206.196 69.0663 156.545C69.0531 152.579 70.3224 150.683 73.7679 149.017C87.8491 142.209 101.833 135.194 115.75 128.054C119.622 126.068 120.423 126.943 120.419 131.062C120.335 215.37 120.333 299.678 120.424 383.986C120.429 388.163 119.459 388.818 115.662 387.148C101.351 380.854 86.9676 374.721 72.5286 368.726C69.6436 367.528 69.1131 365.763 69.1267 362.983C69.2191 344.155 69.175 325.328 69.1751 306Z" fill="#0590C5"/>
<path d="M42.6712 164.681C45.8018 163.125 48.6061 161.748 51.4147 160.369C52.5642 162 52.0849 163.52 52.0856 164.928C52.1147 228.033 52.1121 291.139 52.1087 354.244C52.1084 359.864 52.0917 359.87 46.8327 357.626C38.4284 354.038 30.0721 350.333 21.6008 346.912C18.8592 345.805 17.959 344.336 17.9642 341.372C18.0584 287.924 18.064 234.476 17.954 181.028C17.9475 177.856 19.032 176.304 21.7812 175.021C28.7077 171.789 35.4992 168.267 42.6712 164.681Z" fill="#06A8E7"/>
<path d="M418.565 174.363C435.491 176.321 451.969 178.255 468.473 179.947C475.812 180.699 478.944 183.652 478.949 191.087C478.984 237.906 478.98 284.725 478.955 331.544C478.951 338.838 475.791 342.189 467.927 342.839C449.724 344.343 431.497 345.566 413.295 347.081C395.598 348.554 377.927 350.328 360.232 351.821C346.167 353.008 332.076 353.876 318.01 355.056C300.149 356.553 282.307 358.288 264.447 359.795C250.547 360.968 236.625 361.868 222.725 363.033C204.698 364.543 186.675 366.121 168.665 367.821C160.619 368.581 154.682 366.848 154.729 356.149C155.021 290.003 154.873 223.856 154.878 157.709C154.879 147.956 158.248 145.368 167.784 146.632C180.775 148.354 193.839 149.53 206.867 150.98C223.848 152.871 240.822 154.821 257.804 156.71C270.832 158.16 283.87 159.53 296.898 160.981C313.879 162.872 330.853 164.828 347.835 166.718C360.864 168.168 373.898 169.575 386.933 170.971C397.329 172.084 407.729 173.152 418.565 174.363Z" fill="#000102"/>
<path d="M90.4395 306.825C87.0605 304.483 86.2417 301.313 86.2367 297.877C86.2052 276.255 86.2203 254.632 86.2288 233.009C86.229 232.348 86.2764 231.678 86.3857 231.026C87.2507 225.867 90.9147 222.672 95.5289 223.03C100.033 223.38 103.196 226.664 103.222 231.863C103.336 254.317 103.386 276.772 103.202 299.225C103.143 306.453 98.0104 309.432 90.4395 306.825Z" fill="#000304"/>
<path d="M26.6751 243.007C26.6963 238.845 26.5574 235.172 26.7776 231.52C27.0859 226.407 30.2776 223.179 34.828 223.015C39.2722 222.854 42.7368 225.944 43.5517 230.909C43.7656 232.211 43.7563 233.559 43.7572 234.887C43.7697 252.542 43.7662 270.197 43.7648 287.852C43.7647 288.685 43.8016 289.522 43.7288 290.349C43.2317 295.993 39.9108 299.608 35.2041 299.662C30.242 299.72 26.7634 295.981 26.7197 289.974C26.607 274.485 26.6777 258.995 26.6751 243.007Z" fill="#000405"/>
<path d="M205.886 305C205.886 317.989 205.753 330.48 205.972 342.965C206.033 346.435 204.892 347.592 201.569 347.803C193.101 348.341 184.635 349.02 176.199 349.925C172.736 350.296 171.635 349.45 171.674 345.799C171.862 328.316 171.758 310.831 171.758 293.346C171.758 252.383 171.82 211.419 171.673 170.455C171.656 165.831 171.943 163.607 177.681 164.727C185.49 166.251 193.514 166.784 201.472 167.384C205.134 167.66 205.985 169.055 205.974 172.617C205.839 216.578 205.886 260.539 205.886 305Z" fill="#06A9E7"/>
<path d="M222.946 326C222.946 275.512 223 225.523 222.855 175.536C222.842 170.941 223.649 169.522 228.626 170.428C236.296 171.825 244.137 172.365 251.928 172.986C255.464 173.268 257.112 174.092 257.099 178.259C256.942 231.746 256.977 285.234 257.044 338.721C257.047 341.66 256.627 343.133 253.129 343.339C243.999 343.875 234.895 344.866 225.791 345.787C223.485 346.02 222.897 345.081 222.925 342.995C222.999 337.498 222.947 331.998 222.946 326Z" fill="#0378A3"/>
<path d="M308.106 315C308.106 322.159 308.02 328.821 308.15 335.478C308.198 337.948 307.556 338.941 304.869 339.099C296.234 339.605 287.582 340.15 279.008 341.244C274.438 341.827 273.916 340.145 273.953 336.213C274.136 316.568 274.037 296.921 274.037 277.275C274.037 244.975 274.098 212.676 273.953 180.377C273.937 176.656 274.699 175.409 278.618 175.962C287.344 177.194 296.117 178.131 304.896 178.915C307.579 179.155 308.192 180.212 308.146 182.638C308.026 188.963 308.106 195.291 308.106 201.618C308.106 239.245 308.106 276.872 308.106 315Z" fill="#06A9E8"/>
<path d="M359.239 271C359.239 290.812 359.089 310.125 359.351 329.433C359.412 333.933 357.956 334.98 353.724 335.116C345.593 335.378 337.473 336.228 329.371 337.063C326.038 337.407 325.088 336.323 325.094 333.013C325.182 283.736 325.183 234.458 325.094 185.181C325.088 181.72 326 181.144 329.397 181.646C337.447 182.834 345.576 183.534 353.691 184.209C357.837 184.553 359.414 186.01 359.368 190.592C359.104 217.226 359.239 243.864 359.239 271Z" fill="#0377A1"/>
<path d="M410.663 328.376C410.07 330.789 408.293 330.485 406.925 330.61C397.972 331.428 389.001 332.058 380.053 332.931C377.192 333.21 376.324 332.358 376.329 329.454C376.407 283.141 376.407 236.828 376.33 190.515C376.325 187.573 377.215 186.793 380.078 187.154C388.994 188.277 397.923 189.365 406.878 190.091C410.82 190.41 410.733 192.624 410.73 195.491C410.682 239.638 410.693 283.786 410.663 328.376Z" fill="#06A5E3"/>
<path d="M461.465 325.377C450.932 326.714 440.672 327.656 430.423 328.703C428.324 328.917 427.756 327.983 427.811 326.172C427.836 325.34 427.808 324.507 427.808 323.674C427.808 281.883 427.906 240.091 427.68 198.301C427.653 193.214 429.436 192.551 433.705 193.146C441.768 194.27 449.865 195.204 457.974 195.913C460.938 196.172 461.959 197.155 461.95 200.154C461.823 241.776 461.795 283.398 461.465 325.377Z" fill="#0377A2"/>
</g>
<defs>
<clipPath id="clip0_438_10">
<rect width="512" height="512" fill="white"/>
</clipPath>
</defs>
</svg>
