<svg width="2000" height="2000" viewBox="0 0 2000 2000" fill="none" xmlns="http://www.w3.org/2000/svg">
<g clip-path="url(#clip0_302_2)">
<path d="M1297.99 1521.37C1309.41 1521.51 1320.5 1523.47 1331.67 1524.76C1340.27 1525.75 1348.86 1526.8 1357.42 1528.02C1367.71 1529.49 1377.99 1531.07 1388.26 1532.67C1397.24 1534.07 1406.22 1535.48 1415.17 1537.02C1428.59 1539.32 1442.06 1541.4 1455.37 1544.21C1475.56 1548.48 1495.77 1552.72 1515.73 1558C1531.12 1562.07 1546.49 1566.24 1561.61 1571.24C1585.57 1579.17 1609.24 1587.81 1631.52 1599.87C1646.32 1607.89 1660.47 1616.8 1671.86 1629.41C1684.23 1643.12 1689.21 1658.81 1681.67 1676.43C1678.26 1684.41 1672.19 1690.91 1665.71 1697C1651.43 1710.44 1634.59 1719.77 1617.09 1727.87C1593 1739.01 1567.99 1747.81 1542.42 1755.03C1518.21 1761.87 1493.82 1767.87 1469.21 1773.15C1449.13 1777.45 1428.92 1781.03 1408.76 1784.86C1394.57 1787.56 1380.08 1788.64 1365.84 1791.1C1349.47 1793.93 1332.93 1795.36 1316.52 1797.86C1305.69 1799.51 1294.68 1799.92 1283.77 1801.02C1268 1802.61 1252.26 1804.42 1236.49 1805.94C1231.92 1806.39 1227.32 1806.4 1222.72 1806.83C1210.42 1807.99 1198.02 1808.11 1185.7 1809.06C1173.2 1810.03 1160.69 1810.53 1148.18 1811.15C1134.67 1811.82 1121.16 1812.5 1107.65 1813.14C1091.4 1813.91 1075.12 1813.29 1058.9 1814.13C1022.31 1816.02 985.715 1814.95 949.138 1814.68C935.912 1814.58 922.61 1814.69 909.373 1813.95C892.378 1813.01 875.375 1812.44 858.368 1811.84C846.347 1811.41 834.292 1810.73 822.303 1809.8C806.62 1808.59 790.901 1807.76 775.227 1806.23C765.284 1805.27 755.225 1804.81 745.258 1803.88C733.558 1802.78 721.841 1801.75 710.169 1800.21C703.381 1799.32 696.507 1798.75 689.673 1798.02C679.47 1796.93 669.324 1795.32 659.143 1794.22C648.27 1793.06 637.503 1791.24 626.661 1789.92C615.224 1788.53 603.831 1786.7 592.476 1784.73C580.7 1782.7 569.001 1780.22 557.252 1778.01C537.577 1774.32 518.039 1770.05 498.573 1765.35C473.664 1759.34 449.008 1752.53 424.859 1743.98C397.93 1734.45 371.589 1723.58 348.094 1706.95C335.731 1698.2 324.366 1688.19 319.121 1673.47C313.247 1656.98 318.157 1642.53 329.568 1629.94C346.69 1611.05 368.844 1599.98 391.594 1589.66C407.611 1582.4 424.074 1576.43 440.755 1571.03C468.02 1562.19 495.753 1555.04 523.771 1549.06C544.963 1544.53 566.211 1540.3 587.628 1536.86C604.794 1534.11 621.964 1531.43 639.155 1528.84C655.901 1526.32 672.729 1524.5 689.486 1522.12C700.338 1520.57 711.352 1520.2 722.25 1518.94C732.823 1517.72 743.391 1516.55 754.47 1515.97C756.972 1517.91 756.155 1520.28 755.743 1522.52C749.63 1555.78 743.185 1588.98 737.042 1622.24C734.832 1634.2 732.396 1646.11 730.284 1658.09C728.631 1667.46 732.943 1672.98 742.431 1673.38C749.587 1673.68 756.757 1673.35 764.373 1673.49C782.162 1673.19 799.497 1673.12 817.31 1673.52C826.237 1673.07 834.693 1673.34 843.143 1673.35C848.296 1673.37 853.407 1673.03 858.971 1672.48C882.233 1672.32 905.039 1672.49 927.845 1672.4C938.812 1672.36 943.229 1668.82 945.416 1658C947.691 1646.74 949.97 1635.48 951.804 1624.14C952.822 1617.85 953.016 1611.54 950.422 1605.06C949.063 1600.52 946.287 1597.46 943.22 1594.58C918.998 1571.83 900.811 1544.73 886.14 1515.13C884.886 1512.6 882.584 1509.9 886 1506.78C888.539 1505.56 890.86 1505.36 893.196 1505.33C903.669 1505.19 914.163 1504.5 924.593 1504.53C955.536 1504.61 986.462 1502.31 1017.38 1503.46C1037.5 1504.21 1057.63 1503.64 1077.72 1504.43C1095.82 1505.14 1113.93 1505.72 1132.03 1506.32C1133.36 1506.37 1134.69 1506.47 1136.41 1507.06C1138.83 1508.54 1138.92 1510.51 1138.85 1512.57C1138.32 1527.37 1137 1542.12 1136.07 1556.9C1135.31 1569.03 1134.48 1581.15 1133.67 1593.27C1132.45 1611.69 1131.49 1630.14 1129.96 1648.55C1129.64 1652.37 1129.5 1656.2 1129.79 1660.02C1130.3 1666.87 1135.17 1671.65 1142.07 1672.23C1144.06 1672.4 1146.06 1672.33 1148.06 1672.34C1177.55 1672.34 1207.03 1672.34 1236.51 1672.33C1239.35 1672.33 1242.17 1672.37 1245.47 1672.52C1274.67 1670.15 1303.45 1671.81 1332.21 1671.36C1343.19 1671.19 1354.18 1671.55 1365.15 1671.24C1374.53 1670.98 1378.94 1666.63 1379.23 1657.34C1379.41 1651.34 1380.63 1645.43 1380.44 1638.98C1380.94 1630.74 1381.76 1622.95 1381.46 1615.12C1381.33 1611.77 1381.18 1608.46 1379.67 1604.97C1377.67 1598.61 1372.66 1595.31 1368.12 1591.79C1347.96 1576.16 1330.28 1557.89 1312.59 1539.66C1307.24 1534.13 1301.74 1528.5 1297.99 1521.37Z" fill="#DFD8F7"/>
<path d="M847.756 477.097C867.315 471.546 886.708 467.137 906.434 463.776C933.34 459.191 960.352 460.224 987.374 460.025C989.977 460.006 992.433 461.524 995.566 461.093C996.657 464.877 993.475 464.499 991.588 464.919C985.899 466.185 980.044 466.418 974.272 467.206C952.072 470.236 930.58 476.048 909.66 483.929C886.488 492.659 864.852 504.353 844.547 518.537C824.246 532.717 805.917 549.079 789.622 567.723C772.544 587.26 758.221 608.64 746.641 631.862C730.273 664.689 719.968 699.302 716.494 735.833C714.015 761.901 714.373 787.956 718.285 813.903C718.534 815.554 718.89 817.178 719.377 819.166C719.141 822.6 716.39 822.793 714.389 823.609C697.59 830.468 685.7 842.33 678.059 859.083C676.381 862.577 675.629 866.083 673.321 869.28C661.91 873.365 650.418 875.977 639.36 880.075C625.5 885.212 611.919 890.92 598.76 897.647C596.598 898.752 594.493 900.368 591.474 899.273C587.235 873.912 585.041 848.655 586.109 823.245C586.659 810.177 588.086 797.15 589.846 784.144C592.121 767.337 595.645 750.844 600.023 734.508C607.426 706.881 618.62 680.752 632.157 655.643C641.754 637.843 652.858 620.973 665.403 605.067C676.139 591.454 687.44 578.344 700.097 566.49C708.616 558.511 717.537 550.961 726.587 543.081C731.246 538.032 736.817 534.609 742.062 530.853C771.283 509.928 802.522 492.793 836.653 481.191C840.274 479.96 843.771 478.394 847.756 477.097Z" fill="#8065E0"/>
<path d="M1235.74 1095.71C1218.02 1115.3 1198.44 1132.8 1176.21 1147.62C1169.99 1153.41 1162.74 1157.22 1155.74 1161.33C1144.11 1168.15 1132.46 1174.99 1119.92 1180.08C1117.73 1180.97 1115.83 1182.32 1113.65 1183.97C1083.93 1196.67 1053.54 1205.45 1022 1210.66C995.052 1215.11 967.975 1215.15 940.905 1214.34C919.294 1213.69 897.857 1210.52 876.491 1204.76C856.088 1199.69 836.529 1193.35 817.471 1185.49C813.352 1183.8 809.107 1182.29 805.19 1179.29C785.704 1169.62 766.89 1159.58 749.425 1147.14C738.626 1139.46 728.016 1131.59 718.11 1122.74C708.615 1114.25 699.096 1105.8 690.053 1096.39C691.091 1094.64 692.771 1094.49 694.436 1094.35C696.096 1094.21 697.765 1094.25 699.43 1094.25C825.18 1094.24 950.929 1094.24 1076.68 1094.26C1079.5 1094.26 1082.35 1093.99 1085.52 1095.25C1088.7 1099.02 1087.53 1103.17 1087.66 1107.07C1087.89 1113.98 1087.98 1114.27 1094.59 1114.28C1129.92 1114.31 1165.26 1114.32 1200.59 1114.28C1206.94 1114.27 1207.16 1113.9 1207.31 1107.38C1207.4 1103.74 1206.78 1100.03 1208.5 1096.1C1211.09 1094.02 1213.79 1094.19 1216.37 1094.31C1222.71 1094.63 1229.15 1093.22 1235.74 1095.71Z" fill="#8065E0"/>
<path d="M1086.2 1095.48C1048.83 1095.84 1011.83 1095.88 974.835 1095.88C882.508 1095.89 790.181 1095.89 697.855 1095.89C695.523 1095.89 693.191 1095.95 690.387 1096.03C680.637 1086.72 672.234 1076.58 664.134 1066.21C654.597 1054.01 646.118 1041.05 638.023 1027.48C640.608 1024.52 643.946 1025.29 647.016 1025.29C691.994 1025.23 736.973 1025.25 781.951 1025.25C805.107 1025.25 828.262 1025.25 851.418 1025.25C853.583 1025.25 855.748 1025.22 858.4 1025.49C872.667 1024.97 886.442 1025.3 900.215 1025.28C917.805 1025.26 935.397 1025.04 953.481 1025.51C955.63 1025.22 957.296 1025.24 958.963 1025.24C998.281 1025.26 1037.6 1025.24 1076.92 1025.27C1079.74 1025.27 1082.6 1024.99 1085.74 1026.38C1087.78 1028.6 1087.71 1030.97 1087.71 1033.27C1087.76 1051.97 1087.76 1070.68 1087.71 1089.38C1087.71 1091.37 1087.69 1093.37 1086.2 1095.48Z" fill="#D7CEF7"/>
<path d="M719.344 820.303C715.931 817.425 716.581 813.46 716.258 810.263C715.194 799.733 713.244 789.242 713.968 778.562C714.379 772.496 713.665 766.423 713.722 760.328C713.954 735.455 717.643 711.223 724.056 687.258C731.098 660.944 741.835 636.288 755.482 612.758C770.779 586.384 789.738 562.968 812.181 542.489C831.454 524.902 852.663 509.935 875.883 497.769C892.425 489.101 909.488 481.89 927.293 476.429C945.336 470.895 963.603 466.407 982.526 464.812C986.938 464.441 991.841 464.844 995.909 461.523C1004.71 461.243 1013.29 462.634 1021.81 464.095C1036.85 466.672 1051.82 469.61 1066.54 473.799C1093.22 481.394 1118.67 492.005 1143.06 505.087C1161.16 514.79 1178.11 526.296 1194.44 538.794C1209.98 550.689 1224.13 564.052 1237.57 578.163C1256.12 597.637 1272.28 618.93 1286.12 642.079C1301.12 667.172 1313.24 693.449 1322.13 721.292C1326.87 736.159 1330.58 751.258 1333.8 766.504C1334.41 769.393 1332.59 768.978 1330.97 768.984C1324.64 769.005 1318.3 769.004 1311.51 769.057C1305.49 769.959 1299.93 769.775 1293.98 768.972C1291.54 767.557 1291.53 765.429 1291.64 763.482C1292.31 751.453 1291.23 739.472 1289.35 727.684C1287 712.938 1284.11 698.235 1279.06 684.064C1276.94 678.108 1274.7 672.201 1272.51 666.272C1262.18 638.267 1246.28 613.665 1227.38 590.773C1216.62 577.738 1204.54 566.051 1191.58 555.354C1173.53 540.461 1153.74 528.174 1132.39 518.491C1119.02 512.431 1105.36 507.105 1091.14 503.479C1073.24 498.914 1055.14 495.632 1036.61 494.223C1019.74 492.94 1003.01 493.519 986.323 495.483C954.14 499.27 923.582 508.588 894.59 523.167C865.082 538.004 839.211 557.652 816.834 581.812C798.28 601.846 783.337 624.388 771.341 648.987C759.847 672.557 752.335 697.358 747.984 723.036C744.454 743.871 743.47 764.948 745.064 786.171C745.75 795.307 747.37 804.29 748.024 813.398C748.132 814.907 748.301 816.389 747.245 818.076C742.168 819.301 737.197 817.517 732.051 819.353C730.04 819.63 728.492 820.158 726.47 820.368C723.922 820.343 721.819 821.706 719.344 820.303Z" fill="#876EE2"/>
<path d="M591.001 899.335C593.673 899.165 595.612 897.706 597.65 896.651C620.455 884.841 644.347 875.901 669.183 869.442C670.135 869.194 671.141 869.15 672.527 869.02C674.978 871.67 673.516 874.518 673.185 877.171C670.452 899.054 677.079 917.727 692.123 933.614C693.706 935.285 695.639 936.702 696.282 939.479C694.139 942.401 690.937 942.342 688.124 943.125C664.994 949.564 642.564 957.663 622.047 970.431C619.225 972.187 616.547 974.155 613.332 975.971C607.559 977.811 603.641 981.877 599.416 985.257C580.303 1000.54 565.726 1019.58 555.198 1041.59C547.884 1056.88 543.522 1073.11 540.862 1089.9C539.156 1100.66 538.411 1111.49 538.255 1122.27C538.161 1128.79 538.93 1135.43 539.026 1142.49C537.16 1143.9 535.489 1142.85 533.788 1142.32C511.397 1135.28 490.142 1137.24 470.248 1150.24C468.602 1151.31 467.029 1152.68 464.495 1152.18C462.659 1136.24 462.448 1120.45 463.172 1104.74C463.922 1088.47 466.272 1072.31 470.224 1056.44C475.411 1035.61 482.772 1015.56 493.149 996.796C501.981 980.823 512.43 965.976 524.84 952.353C540.758 934.877 558.498 919.837 578.351 907.168C582.443 904.557 586.665 902.15 591.001 899.335Z" fill="#947CE6"/>
<path d="M1314.68 809.642C1316.09 811.31 1315.99 812.922 1315.98 814.593C1315.92 825.741 1316.41 836.916 1315.82 848.034C1314.28 877.032 1310.81 905.797 1303.4 933.96C1302.96 935.649 1303.35 937.609 1301.99 939.436C1300.58 941.642 1298.5 941.649 1296.54 941.649C1278.27 941.646 1260.01 941.977 1241.33 941.415C1233.54 936.769 1227.17 930.881 1220.42 925.52C1204.24 912.679 1187.88 900.065 1172.04 886.786C1159.4 876.183 1149.97 876.324 1136.49 886.244C1128.86 891.862 1122 898.499 1113.42 903.331C1097.13 893.798 1081.14 884.366 1067.18 871.985C1061.6 867.041 1056 862.129 1050.33 856.753C1049.04 848.556 1048.87 840.554 1046.58 832.873C1046.48 832.555 1046.39 832.235 1046.29 831.919C1041.98 818.193 1043.15 820.888 1030.13 822.063C1027.23 822.373 1024.7 822.807 1021.99 821.3C1012.47 805.949 1004.05 790.465 998.221 773.705C997.48 771.577 996.114 769.339 998.858 767.095C1000.85 766.355 1002.51 766.316 1004.16 766.313C1025.53 766.278 1046.89 766.265 1068.26 766.318C1069.42 766.321 1070.58 766.399 1072.15 766.701C1076.41 768.826 1077.54 772.922 1079.56 776.254C1097.8 806.365 1123.14 828.293 1155.14 842.801C1171.25 850.101 1188.22 853.964 1205.59 856.231C1213.14 857.216 1220.82 857.302 1228.73 858.389C1230.83 860.817 1230.65 863.609 1231.07 866.174C1232.56 875.188 1235.96 883.381 1241.2 890.825C1249.54 902.659 1264.09 903.165 1273.3 891.936C1277.89 886.336 1281.01 879.963 1283.05 872.622C1287.38 857.92 1286.97 843.607 1283.02 829.309C1282.67 828.035 1282.24 826.783 1282.3 825.043C1283.02 822.883 1284.69 822.285 1286.15 821.624C1293.93 818.122 1301.06 813.561 1308.13 808.851C1310.09 807.548 1312.7 805.043 1314.68 809.642Z" fill="#F6F5F6"/>
<path d="M1381.51 1637.7C1382.59 1645.47 1381.11 1652.88 1380.7 1660.31C1380.26 1668.35 1374.29 1672.94 1365.74 1672.97C1342.8 1673.04 1319.87 1673.01 1296.93 1673.04C1284.8 1673.05 1272.67 1673.15 1260.54 1673.12C1255.9 1673.1 1251.35 1674.67 1246.23 1673.67C1240.32 1671.35 1237.73 1666.95 1237.72 1661.44C1237.69 1648.65 1236.95 1635.86 1238.27 1623.07C1239.11 1614.89 1236.31 1607.43 1231.2 1601.28C1213.46 1579.95 1202.91 1554.81 1192.56 1529.56C1190.5 1524.54 1187.4 1519.8 1187.37 1513.72C1193.89 1508.29 1201.42 1505.14 1208.44 1501.13C1224.43 1491.99 1240.48 1482.97 1256.64 1474.16C1258.07 1473.38 1259.39 1472.21 1261.53 1472.8C1273 1489.45 1285.45 1504.91 1298.01 1520.71C1313.14 1539.32 1329.78 1556.01 1347.08 1572.09C1356.09 1580.47 1365.69 1588.15 1375.19 1595.96C1377.27 1597.67 1378.72 1599.91 1380.11 1602.58C1377.88 1605.25 1374.89 1604.51 1372.16 1604.52C1339.54 1604.57 1306.92 1604.53 1274.3 1604.59C1271.58 1604.6 1267.68 1603.34 1266.45 1606.08C1265.03 1609.26 1268.85 1611.18 1270.9 1613.1C1290.87 1631.8 1314.16 1642.4 1341.94 1642.54C1353.38 1642.6 1364.51 1641.51 1375.35 1637.78C1377.23 1637.14 1379.17 1636.5 1381.51 1637.7Z" fill="#896EE8"/>
<path d="M1432.15 1043.24C1441.49 1037.11 1452.37 1034.28 1462.7 1030.17C1482.27 1022.37 1502.1 1015.25 1521.74 1007.62C1539.95 1000.55 1555.95 1005.73 1564.24 1021.85C1573.24 1039.35 1563.99 1058.27 1546.64 1064.98C1538.21 1068.24 1529.77 1071.45 1520.25 1075.11C1535.76 1079.64 1550.23 1083.28 1564.29 1088.12C1587.25 1096 1591.29 1122.66 1577.69 1138.69C1573.27 1143.91 1567.02 1146.59 1559.86 1148.61C1564.95 1151.81 1568.58 1155.99 1571.13 1161.28C1576.59 1172.66 1574.74 1187.46 1566.01 1196.39C1556.53 1206.09 1543.65 1208.6 1531.32 1203.76C1525.23 1201.37 1519.83 1197.74 1514.25 1194.49C1511.11 1192.67 1510.77 1194.55 1510.31 1196.39C1507.33 1208.17 1500.12 1216.16 1488.39 1219.03C1475.31 1222.22 1464.4 1219.76 1454.96 1207.63C1443.55 1192.97 1432.65 1177.93 1421.91 1162.37C1423.88 1160.51 1425.65 1161.9 1427.43 1162.61C1467.9 1178.78 1509.67 1154.4 1515.33 1111.3C1519.75 1077.61 1492.03 1044.29 1458.12 1042.35C1451.26 1041.96 1444.52 1042.28 1437.79 1043.59C1436.01 1043.93 1434.2 1044.45 1432.15 1043.24Z" fill="#896EE8"/>
<path d="M1055.58 170.98C1068.36 171.586 1080.54 173.664 1092.78 175.198C1104.18 176.626 1115.53 178.454 1126.9 180.13C1127.37 180.199 1127.8 180.514 1128.61 180.896C1129.6 181.835 1129.61 182.807 1128.96 183.329C1121.58 189.313 1121.09 198.195 1119.78 206.424C1116.67 225.989 1113.89 245.609 1111.01 265.212C1109.06 278.454 1116.11 288.738 1129.13 291.262C1139.74 293.317 1150.51 294.209 1161.2 295.682C1166.91 296.468 1172.87 295.888 1178.6 298.751C1177.61 306.965 1176.45 314.937 1174.95 322.847C1171.65 340.349 1161.01 345.536 1145.2 343.686C1139.8 343.055 1134.36 342.775 1128.97 342.211C1112.09 340.445 1095.16 339.186 1078.3 337.115C1064.73 335.448 1051.07 334.487 1037.49 332.921C1030.79 332.15 1024.18 330.718 1017.26 329.294C1011.99 325.025 1010.7 319.509 1010.45 313.487C1009.78 297.76 1012.16 282.3 1014.39 266.825C1017.71 243.77 1021.49 220.792 1025.94 197.924C1026.89 193.015 1028.17 188.189 1029.77 183.461C1032.44 175.548 1039.83 170.559 1048.16 170.919C1050.49 171.02 1052.81 170.975 1055.58 170.98Z" fill="#3F3C38"/>
<path d="M580.706 1210.83C589.185 1221.88 597.302 1232.87 605.374 1243.89C612.489 1253.61 620.146 1263 626.513 1273.18C638.153 1291.81 632.275 1316.94 609.751 1324.94C592.695 1331 579.734 1324.58 569.148 1311.35C568.248 1310.22 567.7 1308.28 566.253 1308.69C565.512 1308.9 564.994 1311.06 564.939 1312.66C564.568 1323.51 561.213 1333.12 552.921 1340.6C540.591 1351.72 519.389 1352.36 508.003 1340.35C504.758 1336.93 502.547 1336.17 497.833 1338.38C480.842 1346.34 463.692 1339.84 454.284 1325.48C453.119 1323.7 451.899 1323.94 450.585 1324.04C432.003 1325.51 413.899 1306.54 416.011 1287.08C416.846 1279.4 420.264 1272.51 422.94 1265.4C428.356 1251 433.834 1236.63 439.62 1222.07C442.572 1222.99 442.454 1225.64 443.189 1227.75C452.176 1253.55 469.56 1270.01 496.61 1275.57C528.204 1282.05 560.805 1264.68 573.352 1234.97C575.972 1228.76 577.509 1222.34 578.471 1215.73C578.726 1213.97 578.503 1211.98 580.706 1210.83Z" fill="#896EE8"/>
<path d="M612.988 976.45C614.048 972.662 617.38 971.724 619.927 970.137C643.254 955.604 668.692 946.28 695.746 940.003C698.177 939.317 699.713 940.462 701.215 941.456C722.621 955.619 745.1 957.449 768.637 947.401C769.859 946.88 771.104 946.398 772.806 946.128C775.92 946.218 777.105 948.39 778.5 950.204C796.143 973.15 816.415 993.419 839.825 1010.49C845.066 1014.32 850.555 1017.78 855.86 1021.52C857.601 1022.74 859.727 1023.69 859.218 1026.69C828.394 1027.02 797.791 1027.1 767.188 1027.11C724.442 1027.12 681.697 1027.08 638.486 1027.09C628.395 1011 620.114 994.207 612.988 976.45Z" fill="#8065E0"/>
<path d="M1316.69 965.723C1314.47 970.826 1316.25 973.917 1319.92 977.64C1341.93 999.982 1367.27 1017.86 1393.97 1033.99C1402.47 1039.12 1411.21 1043.8 1420.55 1048.09C1421.29 1050.3 1419.57 1051.01 1418.26 1051.91C1399.92 1064.55 1390.5 1082.11 1389.33 1104.24C1389.27 1105.41 1389.16 1106.56 1388.24 1107.84C1377.72 1103.49 1368.01 1097.9 1358.53 1091.96C1343.09 1082.29 1327.73 1072.49 1313.41 1061.15C1305.71 1055.05 1298 1048.97 1290.77 1042.31C1288.48 1040.2 1286.06 1038.25 1283.36 1036.17C1282.59 1035.58 1282.34 1034.97 1282.39 1034.28C1282.75 1028.66 1282.75 1028.64 1276.98 1028.64C1257.17 1028.63 1237.36 1028.64 1217.55 1028.62C1214.9 1028.62 1212.21 1028.88 1209.27 1027.64C1206.3 1023.3 1207.62 1018.74 1207.43 1014.38C1207.17 1008.27 1207.31 1008.38 1201.4 1008.5C1194.32 1008.65 1187.23 1008.89 1179.76 1008.23C1176.56 1006.95 1177.31 1005.13 1178.6 1003.33C1179.88 1001.55 1181.71 1000.34 1183.44 999.035C1193.39 991.489 1203.48 984.115 1212.37 975.275C1214.7 972.957 1217.65 970.931 1215.64 966.843C1215.27 966.09 1216.27 965.423 1217.44 964.874C1219.8 964.239 1221.8 964.279 1223.79 964.278C1252.21 964.26 1280.63 964.258 1309.04 964.284C1311.52 964.286 1314.05 964.06 1316.69 965.723Z" fill="#866BE5"/>
<path d="M1317.38 965.87C1283.66 966.064 1250.29 966.053 1216.46 966.083C1214.52 967.428 1212.71 967.658 1210.87 967.658C1200.93 967.659 1190.98 967.95 1180.55 967.509C1168.06 967.89 1156.06 967.753 1143.57 967.553C1140.1 967.813 1137.1 967.703 1134.11 967.703C1063.54 967.705 992.968 967.705 922.398 967.709C918.06 967.709 913.76 967.642 909.596 966.111C900.383 962.726 894.735 955.134 894.354 945.321C894.212 941.663 894.245 937.999 894.423 933.854C894.628 931.436 894.342 929.369 896.664 927.974C904.496 937.113 914.467 938.479 925.425 938.422C971.398 938.181 1017.37 938.323 1063.35 938.321C1065.01 938.321 1066.68 938.222 1068.82 938.482C1071.14 938.475 1072.95 938.235 1074.79 938.236C1127.03 938.255 1179.28 938.242 1231.52 938.258C1233.85 938.258 1236.19 938.163 1238.84 939.398C1243.06 940.664 1246.9 940.12 1250.71 940.127C1267.49 940.158 1284.28 940.077 1301.53 939.931C1305.5 940.938 1309.24 941.468 1312.28 943.812C1319.14 949.093 1321.23 957.469 1317.38 965.87Z" fill="#512CD4"/>
<path d="M1113.72 1183.49C1114.18 1180.57 1116.47 1180.2 1118.17 1179.46C1137.19 1171.24 1154.9 1160.69 1172.25 1149.47C1173.21 1148.85 1174.35 1148.51 1175.76 1148C1181.58 1158.64 1185.02 1170.11 1188.96 1181.38C1196.8 1203.76 1202.31 1226.8 1206.71 1250.03C1209.4 1264.25 1212.27 1278.55 1213.07 1293.11C1213.31 1297.47 1214.31 1301.8 1214.9 1306.56C1213.46 1308.46 1211.63 1308.65 1209.8 1308.65C1188.78 1308.73 1167.75 1308.85 1146.73 1308.59C1146.07 1308.58 1145.42 1308.43 1144.34 1308.14C1140.73 1305.94 1141.11 1302.43 1140.83 1299.45C1139.97 1290.5 1138.51 1281.64 1137.04 1272.79C1132.43 1245.17 1125.33 1218.19 1115.42 1191.97C1114.44 1189.36 1112.98 1186.83 1113.72 1183.49Z" fill="#896EE8"/>
<path d="M804.938 1179.48C814.311 1182.66 823.746 1186.24 833.147 1189.92C846.894 1195.29 861.023 1199.38 875.742 1202.89C877.507 1205.19 877.008 1207.52 876.728 1209.82C872.622 1243.61 868.227 1277.37 864.121 1311.17C863.26 1318.25 862.458 1325.35 861.584 1332.44C861.299 1334.75 861.062 1337.06 859.785 1339.57C857.853 1341.52 855.855 1341.17 853.899 1340.76C832.172 1336.12 810.428 1331.58 788.689 1327.01C788.374 1326.94 788.094 1326.72 787.485 1326.27C788.441 1315.83 789.686 1305.66 791.009 1295.51C792.229 1286.15 793.6 1276.8 794.774 1267.43C795.626 1260.63 796.175 1253.79 797.021 1246.98C798.206 1237.45 799.6 1227.94 800.798 1218.4C801.937 1209.33 803.086 1200.26 803.927 1191.16C804.273 1187.42 805.694 1183.77 804.938 1179.48Z" fill="#896EE8"/>
<path d="M1314.9 809.537C1312.49 806.619 1310.38 808.711 1308.25 810.27C1300.65 815.808 1292.59 820.511 1283.48 824.001C1280.19 823.063 1280.06 819.915 1278.15 817.717C1275.93 814.761 1273.89 812.137 1271.45 809.838C1263.74 802.572 1253.68 802.451 1245.86 809.558C1243.78 811.451 1242.05 813.784 1238.96 815.019C1200.61 818.135 1166.77 808.261 1137.95 782.772C1134.45 779.675 1131.53 776.024 1128.31 772.656C1126.97 771.261 1125.49 769.582 1127.69 767.209C1129.5 766.417 1131 766.312 1132.5 766.312C1162.94 766.298 1193.38 766.132 1224.31 766.428C1233.82 766.158 1242.85 766.253 1252.36 766.445C1258.59 766.218 1264.34 766.237 1270.57 766.465C1278.12 766.643 1285.27 765.147 1292.61 767.798C1298.82 768.231 1304.65 768.355 1310.76 768.79C1312.01 775.489 1313.42 781.848 1313.82 788.27C1314.26 795.198 1315.62 802.09 1314.9 809.537Z" fill="#EAE8E9"/>
<path d="M764.157 1674.5C756.75 1674.86 749.594 1674.97 742.439 1674.93C732.057 1674.86 726.823 1668.52 728.732 1658.37C737.398 1612.33 746.083 1566.29 754.746 1520.25C754.96 1519.11 754.999 1517.94 755.019 1516.36C758.251 1499 761.722 1482.07 764.882 1465.1C769.39 1440.87 773.482 1416.57 778.169 1392.38C779.437 1385.84 780.36 1379.24 781.961 1372.35C783.401 1370.66 785.053 1370.38 786.718 1370.38C802.78 1370.41 818.845 1369.87 835.328 1370.78C838.454 1372.22 837.648 1374.02 836.326 1375.76C834.877 1377.67 832.747 1378.7 830.66 1379.73C820.674 1384.63 811.146 1390.43 801.014 1395.05C795.098 1397.74 791.959 1401.77 791.025 1408.58C789.539 1419.41 787.62 1430.22 785.513 1441.39C784.265 1455.73 781.304 1469.4 779.437 1483.67C777.464 1498.23 775.092 1512.3 773.437 1526.91C771.169 1544.84 769.346 1562.37 767.899 1579.93C767.27 1587.57 767.866 1595.23 767.526 1603.33C767.588 1608.9 767.974 1614.02 766.748 1619.5C765.786 1628.73 764.429 1637.46 762.62 1646.54C762.423 1649.94 761.792 1652.88 761.274 1655.8C760.23 1661.69 759.78 1667.33 764.085 1672.27C764.518 1672.76 764.491 1673.51 764.157 1674.5Z" fill="#522CD5"/>
<path d="M848.063 476.685C846.096 480.743 841.961 480.687 838.752 481.762C809.252 491.64 781.942 505.909 755.954 522.781C746.238 529.089 737.042 536.2 727.252 542.943C712.349 512.83 722.33 476.051 749.896 456.962C753.828 454.24 757.899 451.915 762.604 449.924C765.022 447.863 767.345 446.498 770.701 446.808C796.546 440.664 819.161 446.057 838.369 464.054C842.11 467.559 845.673 471.545 848.063 476.685Z" fill="#512CD4"/>
<path d="M581.061 1210.43C579.018 1213.39 579.728 1216.61 579.27 1219.44C574.493 1248.93 551.504 1271.98 522.553 1277.02C484.447 1283.66 450.101 1261.22 440.682 1223.5C440.603 1223.18 440.415 1222.89 440.116 1222.24C438.939 1214.9 437.121 1207.95 439.094 1200.41C442.833 1198.68 444.204 1201.83 445.903 1203.76C461.334 1221.29 480.954 1230.42 504.001 1230.42C530.889 1230.41 552.393 1218.79 568.022 1196.61C570.655 1192.88 572.032 1188.12 576.75 1185.82C580.357 1193.65 580.827 1201.79 581.061 1210.43Z" fill="#5F3DD8"/>
<path d="M1055.74 170.673C1052.1 173.326 1047.63 171.426 1043.45 172.79C1037.32 174.789 1032.96 177.976 1031 184.344C1026.56 198.771 1024.59 213.692 1022.05 228.49C1018.42 249.623 1015.11 270.801 1012.78 292.14C1011.91 300.127 1012.27 308.033 1012.06 315.972C1011.93 320.659 1014.81 324.372 1016.96 328.647C1007.12 327.999 997.351 326.116 987.893 323.261C977.274 320.055 975.008 310.638 974.093 301.163C972.952 289.345 976.098 277.815 977.454 266.168C977.853 262.735 978.453 259.326 978.951 255.493C977.779 249.054 979.707 243.297 980.506 237.009C981.658 227.901 982.489 219.178 984.737 210.275C986.325 202.327 987.374 194.672 989.042 187.154C992.004 173.805 1002.05 166.128 1015.72 165.966C1026.51 165.839 1037.01 168.233 1047.62 169.507C1050.23 169.819 1052.93 169.428 1055.74 170.673Z" fill="#33312D"/>
<path d="M984.578 209.95C985.329 218.81 983.019 227.395 981.95 236.545C979.678 239.039 976.881 238.429 974.292 238.384C957.768 238.1 941.378 239.146 925.18 242.647C892.84 249.637 864.341 264.058 838.478 284.787C805.183 311.471 783.598 345.442 771.402 385.866C766.531 402.008 766.287 418.282 770.354 434.647C770.987 437.192 772.174 439.698 771.271 442.785C770.439 444.154 769.495 445.164 770.934 446.631C768.604 447.9 766.145 448.889 763.326 449.866C763.113 446.514 761.547 444.53 758.241 444.02C747.843 442.418 739.893 431.515 740.14 422.126C740.418 411.52 745.998 402.212 758.279 399.099C760.539 398.526 762.307 398.39 763.258 395.389C764.246 392.272 762.704 391.041 761.032 389.586C755.109 384.434 752.19 378.347 751.753 370.171C751.203 359.876 762.634 347.911 774.094 347.994C775.593 348.005 777.136 348.187 778.582 347.901C782.107 347.203 783.387 343.244 781.069 340.57C773.701 332.071 772.998 321.534 779.184 312.294C785.188 303.324 795.303 299.837 805.593 303.327C808.148 304.194 810.508 305.324 812.698 302.65C814.676 300.234 814.509 298.154 813.221 295.186C808.953 285.352 809.769 275.418 821.318 266.329C827.542 261.431 838.161 259.926 846.652 266.218C850.134 268.798 853 269.443 856.608 266.33C858.25 264.913 858.591 264.23 858.239 262.016C855.3 243.551 871.466 229.214 888.471 234.994C891.99 236.19 894.972 238.25 897.436 240.979C899.721 243.51 901.728 245.546 905.743 243.777C909.512 242.117 908.87 239.273 909.021 236.351C909.449 228.035 912.927 221.406 920.359 217.318C934.561 209.504 948.56 217.741 953.84 229.827C954.581 231.524 954.681 233.486 957.082 233.342C959.336 233.207 960.676 231.81 960.931 229.594C962.167 218.818 972.331 210.196 984.578 209.95Z" fill="#625F5B"/>
<path d="M1387.97 1108.52C1387.94 1082.31 1398.79 1062.51 1420.76 1048.45C1424 1046.78 1427.09 1045.39 1430.55 1043.98C1431.19 1043.76 1431.45 1043.55 1431.85 1043.12C1432 1042.92 1431.96 1042.99 1431.92 1042.98C1437.68 1042.83 1443.24 1041.08 1449.09 1040.75C1466.38 1039.78 1481.48 1044.84 1494.45 1056.07C1509.79 1069.35 1517.16 1086.33 1517 1106.64C1516.78 1135.86 1493.63 1163.01 1464.71 1168.02C1449.99 1170.57 1435.99 1168.59 1422.22 1162.03C1404.07 1151.2 1391.82 1136.56 1388.83 1115.24C1388.54 1113.16 1388.01 1111.09 1387.97 1108.52Z" fill="#522CD5"/>
<path d="M577.057 1185.57C573.1 1191.58 569.361 1197.43 565.03 1202.8C552.202 1218.71 535.463 1227.8 515.309 1231.06C500.222 1233.5 485.944 1230.88 472.237 1224.85C461.864 1220.28 452.487 1214.12 445.332 1205.02C443.823 1203.1 442.245 1201.08 439.5 1200.04C439.651 1186.88 444.584 1175.48 452.346 1165.08C455.326 1161.09 458.855 1157.67 462.642 1154.04C465.304 1154.8 465.157 1157.01 465.544 1158.91C469.474 1178.15 483.159 1191.16 502.579 1192.29C519.05 1193.25 535.63 1182.77 541.085 1165.46C542.584 1160.71 543.627 1155.81 543.625 1150.76C543.624 1149.27 543.646 1147.76 544.751 1146.15C560.694 1154.92 571.504 1167.89 577.057 1185.57Z" fill="#6C4CDB"/>
<path d="M771.411 443.053C768.164 433.571 766.321 423.815 766.042 413.847C765.553 396.382 770.695 380.083 777.486 364.341C784.52 348.034 792.31 332.064 803.397 317.969C813.919 304.591 826.222 293.035 839.396 282.344C850.763 273.119 862.832 264.877 875.834 258.214C890.204 250.85 905.564 245.936 921.216 242.041C940.86 237.153 960.896 236.613 981.457 236.976C981.116 242.806 980.315 248.649 979.228 254.786C971.581 254.783 967.478 249.742 963.831 244.339C962.416 242.243 961.284 240.695 958.453 240.956C955.64 241.215 954.756 242.856 953.773 245.237C947.108 261.371 927.753 265.27 915.522 252.895C913.043 250.388 910.921 249.874 907.712 251.072C904.363 252.322 903.821 254.567 903.961 257.699C904.379 267.055 894.291 280.214 882.472 279.176C876.032 278.611 869.783 278.708 865.515 272.961C863.312 269.993 861.786 272.719 860.178 273.467C858.003 274.477 855.375 275.41 856.385 278.861C857.527 282.763 857.56 286.854 856.572 290.669C852.927 304.75 838.874 311.819 825.125 306.404C822.263 305.276 820.828 305.62 818.767 307.597C816.509 309.764 817.154 311.581 818.347 313.763C825.642 327.109 818.718 345.02 800.963 347.868C798.687 348.233 796.411 348.047 794.103 347.242C792.274 346.605 790.321 346.686 788.958 348.955C787.465 351.442 789.087 352.512 790.44 353.956C797.314 361.295 800.221 369.749 795.936 379.279C791.939 388.169 785.073 393.71 774.828 393.994C773.055 394.044 771.476 394.221 771.072 396.385C770.687 398.441 771.339 399.8 773.324 400.741C783.31 405.475 786.913 413.713 785.994 424.323C785.195 433.535 779.863 439.326 771.411 443.053Z" fill="#54514D"/>
<path d="M1208.82 1027.51C1234.91 1027.18 1260.62 1027.18 1286.57 1027.18C1286.34 1030.49 1283.42 1032.41 1283.04 1035.74C1278.34 1043.05 1273.9 1050.19 1268.89 1056.89C1261.75 1066.44 1254.4 1075.84 1246.63 1084.91C1243.43 1088.65 1240.15 1092.27 1236.39 1095.91C1227.48 1095.97 1218.86 1095.89 1209.8 1095.75C1207.2 1094.29 1207.34 1092 1207.33 1089.89C1207.22 1070.97 1207.24 1052.04 1207.3 1033.12C1207.31 1031.29 1207.4 1029.45 1208.82 1027.51Z" fill="#D7CEF7"/>
<path d="M544.872 1145.59C545.333 1159.79 542.613 1172.64 531.911 1182.56C518.452 1195.05 498.751 1197.75 482.573 1187.14C471.386 1179.8 465.387 1169.62 463.909 1156.51C463.837 1155.87 463.494 1155.26 463.115 1154.27C463.293 1153.44 463.633 1152.97 464.067 1152.23C472.273 1147.59 479.81 1142.24 488.952 1139.77C505.837 1135.22 522.253 1135.83 538.719 1142.83C540.938 1143.74 542.822 1144.51 544.872 1145.59Z" fill="#7B5EE3"/>
<path d="M1261.81 1472.67C1247.36 1481.03 1232.94 1489.15 1218.4 1497.03C1208.52 1502.38 1199.06 1508.51 1188.34 1513C1185.96 1513.14 1185.53 1511.46 1185.04 1510.18C1180.56 1498.46 1176.75 1486.52 1173.07 1474.52C1172.82 1473.74 1172.92 1472.89 1173.2 1471.7C1175.3 1468.62 1178.57 1467.96 1181.26 1466.4C1198.78 1456.23 1216.52 1446.46 1234.22 1436.6C1235.52 1435.88 1236.77 1435.04 1238.68 1434.88C1246.12 1447.68 1253.56 1460.24 1261.81 1472.67Z" fill="#7B5EE3"/>
<path d="M837.373 1372.32C819.017 1372.01 801.047 1372.01 782.618 1371.99C781.682 1364.42 783.847 1357.11 784.294 1349.61C784.749 1342 786.065 1334.44 787.083 1326.42C796.245 1325.69 804.669 1329.11 813.404 1330.75C828.334 1333.55 843.163 1336.89 858.437 1339.99C859.895 1340.76 860.179 1341.91 860.058 1343.08C859.136 1351.97 858.25 1360.87 856.608 1369.67C856.456 1370.49 856.024 1371.22 855.218 1372.24C849.176 1374.28 843.469 1374.26 837.373 1372.32Z" fill="#7253E0"/>
<path d="M1239.02 1434.53C1229.55 1441.52 1219.11 1446.56 1209.04 1452.17C1197.65 1458.51 1186.65 1465.59 1174.35 1470.96C1172.43 1471.2 1171.93 1469.99 1171.64 1468.93C1168.44 1457.24 1165.25 1445.54 1163.97 1433.06C1165.09 1430.17 1167.4 1429.04 1169.55 1427.85C1185.79 1418.86 1201.94 1409.72 1218.14 1400.66C1219.72 1399.78 1221.29 1398.72 1223.55 1399.77C1228.17 1411.72 1233.29 1423.08 1239.02 1434.53Z" fill="#6C4CDB"/>
<path d="M1142.82 1307.32C1166.75 1306.99 1190.34 1307 1214.38 1306.99C1215.77 1318.67 1217.22 1330.32 1216.9 1342.53C1215.46 1344.47 1213.62 1344.65 1211.78 1344.66C1191.37 1344.77 1170.96 1344.79 1150.54 1344.66C1149.38 1344.65 1148.23 1344.46 1146.69 1343.85C1144.3 1341.94 1144.11 1339.51 1143.93 1337.26C1143.24 1328.19 1142.6 1319.11 1141.91 1310.04C1141.85 1309.2 1142.1 1308.4 1142.82 1307.32Z" fill="#7B5EE3"/>
<path d="M1145.79 1343.33C1169.42 1343 1192.67 1343 1216.38 1343C1218.51 1353.3 1217.95 1363.68 1217.89 1374.5C1213.38 1377.9 1208.51 1376.55 1203.82 1376.19C1200.01 1375.9 1196.23 1375.42 1191.96 1376.2C1177.65 1377.17 1163.79 1376.62 1149.94 1376.6C1148.78 1376.6 1147.64 1376.33 1146.17 1375.55C1144.87 1374.21 1144.49 1372.94 1144.44 1371.62C1144.17 1363.23 1144.11 1354.84 1144.48 1346.45C1144.53 1345.46 1144.87 1344.52 1145.79 1343.33Z" fill="#7253E0"/>
<path d="M1191.7 1375.24C1194.89 1373.08 1198.24 1373.62 1201.11 1374.21C1206.4 1375.29 1211.65 1374.74 1217.37 1374.97C1219.01 1382.47 1220.49 1389.9 1223.02 1397.48C1223.17 1398.06 1223.3 1398.24 1223.64 1398.7C1223.88 1399.14 1223.92 1399.32 1223.89 1399.75C1216.65 1401.79 1210.88 1406.42 1204.54 1409.85C1191.45 1416.91 1178.59 1424.4 1165.32 1431.86C1162.54 1431.96 1162.82 1429.86 1162.51 1428.41C1160.45 1418.66 1159.78 1408.73 1158.98 1398.83C1158.64 1394.53 1161.88 1392.24 1165.01 1390.4C1173.13 1385.59 1181.42 1381.07 1189.7 1376.52C1190.28 1376.2 1190.88 1375.92 1191.7 1375.24Z" fill="#5F3DD8"/>
<path d="M1150.58 184.993C1160.14 185.207 1168.81 188.196 1177.78 189.425C1181.7 189.962 1185.65 190.428 1189.49 191.344C1203.25 194.629 1206.45 206.235 1204.72 219.089C1202.38 236.564 1199.67 253.991 1196.94 271.412C1196.2 276.124 1195.25 280.884 1193.66 285.363C1191.39 291.77 1186.32 295.311 1179.42 296.901C1172.61 297.954 1166.22 296.691 1159.87 295.867C1153.17 294.997 1146.33 294.902 1139.8 292.858C1129.22 289.538 1123.63 282.196 1123.54 271.047C1123.48 262.194 1125.43 253.518 1126.55 244.779C1128.41 230.251 1130.41 215.727 1133.61 201.418C1135.61 192.52 1140.64 186.447 1150.58 184.993Z" fill="#3F3C38"/>
<path d="M1150.77 184.671C1150.79 185.213 1150.61 185.62 1150.35 185.685C1136.84 189.027 1134.75 200.129 1133.05 211.356C1130.32 229.312 1127.88 247.313 1125.1 265.261C1122.8 280.125 1130.99 291.265 1145.87 292.996C1156.69 294.254 1167.5 295.479 1178.71 296.898C1179.07 297.509 1179.03 297.942 1178.96 298.699C1161.87 296.936 1144.74 295.377 1127.8 292.595C1114.46 290.402 1107.27 277.86 1109.54 264.579C1112.41 247.817 1114.46 230.917 1117.05 214.107C1118.21 206.6 1119.63 199.117 1121.34 191.719C1122.32 187.454 1125.1 184.125 1128.92 181.414C1136.32 181.115 1143.4 182.894 1150.77 184.671Z" fill="#33312D"/>
<path d="M1223.85 1398.71C1223.55 1398.83 1223.33 1398.61 1223.11 1398.1C1223.31 1398.07 1223.59 1398.26 1223.85 1398.71Z" fill="#6C4CDB"/>
<path d="M1431.74 1043C1431.8 1043.2 1431.6 1043.48 1431.16 1043.86C1431.11 1043.66 1431.29 1043.37 1431.74 1043Z" fill="#896EE8"/>
<path d="M1136.98 1508.34C1138.36 1492.08 1139.29 1476.12 1140.14 1460.15C1140.64 1450.62 1141.53 1441.1 1142.12 1431.55C1143.09 1415.76 1144.47 1399.99 1145.11 1384.17C1145.22 1381.43 1146.22 1378.7 1146.09 1375.42C1161.13 1374.98 1176.09 1374.98 1191.53 1374.97C1190.32 1379.9 1185.1 1380.15 1181.58 1382.56C1176.96 1385.73 1171.71 1387.95 1166.84 1390.78C1162.39 1393.37 1159.72 1396.11 1160.65 1402.58C1162.02 1412.17 1162.82 1421.87 1164.73 1431.73C1166.33 1443.81 1169.71 1455.18 1172.4 1466.7C1172.69 1467.98 1173.09 1469.23 1173.72 1470.75C1173.87 1475.29 1175.9 1479.03 1177.19 1482.93C1180.46 1492.85 1184.01 1502.67 1187.7 1512.77C1191.29 1525.04 1196.48 1536.4 1201.62 1547.67C1209.95 1565.92 1218.45 1584.12 1231.79 1599.62C1238.19 1607.06 1240.53 1616.07 1239.45 1626.49C1238.21 1638.51 1238.93 1650.75 1239.09 1662.89C1239.15 1667.38 1242.61 1670.16 1245.75 1673.22C1211.17 1673.67 1176.56 1673.91 1141.94 1673.92C1133.39 1673.92 1127.57 1667.47 1127.94 1658.47C1128.47 1645.18 1129.41 1631.9 1130.29 1618.62C1131.43 1601.37 1132.73 1584.12 1133.87 1566.86C1135.08 1548.61 1136.18 1530.35 1137.34 1512.09C1137.41 1510.94 1137.82 1509.78 1136.98 1508.34Z" fill="#522CD5"/>
<path d="M871.803 1475.74C876.327 1486.38 880.542 1496.81 884.903 1507.57C887.274 1516.91 892.566 1524.44 896.923 1532.41C909.711 1555.79 925.983 1576.49 945.353 1594.77C947.645 1596.94 949.887 1599.18 951.038 1602.63C948.438 1605.42 945.099 1604.51 941.444 1604.53C933.009 1604.79 925.054 1604.81 916.624 1604.5C907.344 1605.14 898.485 1603.97 889.218 1605.32C885.938 1605.85 883.112 1605.73 880.294 1605.73C851.257 1605.74 822.221 1605.74 793.184 1605.74C791.194 1605.74 789.201 1605.81 786.731 1605.51C779.758 1605.43 773.21 1606.74 766.452 1604.26C765.304 1581.36 767.773 1559 770.826 1536.68C771.229 1533.74 771.575 1530.78 771.977 1527.42C781.385 1521.64 791.035 1516.77 800.621 1511.82C822.639 1500.44 844.522 1488.82 866.437 1477.25C868.017 1476.42 869.464 1475.08 871.803 1475.74Z" fill="#896EE8"/>
<path d="M915.761 1603.33C924.01 1603.02 932.033 1603.01 940.524 1603.01C942.928 1605.26 941.675 1607.42 940.702 1609.51C925.603 1641.89 900.298 1662.09 866.238 1671.84C864.327 1672.39 862.276 1672.47 860.268 1673.81C846.348 1675.59 832.638 1674.7 818.484 1674.84C813.937 1672.92 809.59 1671.86 805.293 1670.66C791.385 1666.77 778.95 1659.96 767.405 1651.43C765.538 1650.05 763.602 1648.79 761.39 1647.28C762.419 1638.32 763.728 1629.61 765.059 1620.46C768.465 1618.58 769.862 1621.52 771.592 1623.22C781.824 1633.28 793.288 1641.36 806.95 1646.12C836.648 1656.48 864.356 1652.33 890.12 1634.62C898.562 1628.81 905.618 1621.53 911.513 1613.1C913.56 1610.18 915.359 1607.29 915.761 1603.33Z" fill="#7B5EE3"/>
<path d="M1381.9 1637.54C1376.14 1638.32 1371.06 1641.12 1365.5 1642.11C1334.42 1647.67 1305.86 1642.44 1280.36 1623.02C1275.31 1619.18 1270.48 1615.19 1266.12 1610.61C1264.66 1609.08 1262.64 1607.53 1263.69 1605.13C1264.71 1602.76 1267.17 1603 1269.36 1603C1305.15 1603 1340.94 1602.99 1376.73 1602.99C1377.56 1602.99 1378.39 1602.97 1379.71 1602.94C1382.35 1606.04 1383.01 1609.56 1383.02 1613.28C1383.05 1621.24 1383.1 1629.2 1381.9 1637.54Z" fill="#7B5EE3"/>
<path d="M860.477 1674.14C860.366 1671.46 862.495 1671.42 864.424 1670.93C885.78 1665.44 904.268 1654.92 919.482 1638.94C928.216 1629.77 935.181 1619.32 940.14 1607.61C940.641 1606.43 940.721 1605.07 940.995 1603.4C944.078 1603 947.164 1602.99 950.72 1602.96C955.966 1611.59 954.114 1620.6 952.541 1629.54C950.818 1639.33 948.769 1649.06 946.973 1658.84C945.018 1669.48 939.732 1673.96 928.857 1673.99C906.219 1674.05 883.581 1674.12 860.477 1674.14Z" fill="#866BE5"/>
<path d="M761.074 1647.45C763.216 1646.79 764.802 1647.56 766.512 1648.91C778.892 1658.71 792.594 1665.97 807.934 1670.04C811.381 1670.95 815.177 1671.24 817.936 1674.45C800.294 1674.86 782.567 1674.94 764.373 1674.92C755.935 1666.58 759.736 1657.09 761.074 1647.45Z" fill="#866BE5"/>
<path d="M774.06 946.752C762.995 951.426 752.205 955.24 740.212 955.12C725.974 954.978 713.119 951.098 701.367 943.218C699.852 942.201 698.294 941.248 696.456 940.129C687.495 931.385 679.827 922.17 675.526 910.425C670.639 897.08 669.785 883.631 672.951 869.44C674.101 865.829 675.269 862.629 676.701 859.195C680.423 859.882 679.962 862.995 680.224 865.384C681.473 876.787 685.651 886.781 692.943 895.736C712.798 920.12 750.7 922.846 773.396 900.986C788.694 886.252 794.377 868.284 789.875 847.315C789.366 844.94 788.136 842.523 790.108 839.875C793.096 839.298 793.816 841.82 795.695 843.314C804.5 854.803 809.022 867.532 810.405 881.86C810.925 895.592 808.195 908.17 801.509 920.215C795.919 929.828 788.89 937.62 780.088 943.781C778.343 945.003 776.69 946.46 774.06 946.752Z" fill="#522CD5"/>
<path d="M791.081 839.697C788.757 844.416 791.661 848.397 792.295 852.433C794.42 865.973 791.297 878.348 784.489 889.638C767.269 918.189 730.744 925.994 703.391 907.128C688.994 897.198 680.528 883.455 678.952 865.762C678.764 863.647 678.018 861.581 677.248 859.227C683.728 842.145 695.783 830.513 712.135 823.115C714.238 822.165 716.429 821.41 718.81 820.295C721.092 819.695 723.143 819.365 725.586 819.036C727.215 822.393 724.127 822.424 722.497 823.245C716.056 826.489 709.923 830.045 705.435 835.931C695.618 848.805 693.922 862.874 700.901 877.219C708.114 892.047 720.768 899.365 737.325 898.828C758.214 898.15 774.84 880.396 774.601 859.572C774.365 838.982 757.588 822.134 736.651 821.336C734.405 821.25 731.397 822.254 730.802 818.35C736.069 817.17 741.112 816.171 746.595 817.922C749.288 816.111 751.748 817.302 754.118 817.583C760.23 818.307 765.855 820.601 771.721 823.351C777.141 826.64 782.301 829.641 786.785 833.598C788.612 835.211 790.728 836.694 791.081 839.697Z" fill="#5F3DD8"/>
<path d="M1209.14 1026.7C1209.21 1049.73 1209.23 1072.28 1209.3 1095.27C1209.26 1100.69 1208.88 1105.68 1209.14 1110.64C1209.36 1114.75 1208.08 1116.04 1203.87 1116.02C1174.78 1115.88 1145.69 1115.98 1116.6 1116C1107.96 1116.01 1099.31 1115.83 1090.67 1116.09C1086.86 1116.2 1085.73 1114.91 1085.93 1111.23C1086.2 1106.43 1085.96 1101.6 1085.88 1096.3C1085.8 1073.27 1085.77 1050.73 1085.67 1027.75C1083.24 1021.34 1084.1 1015.18 1084.8 1009.12C1085.19 1005.77 1088.25 1005.4 1090.98 1005.35C1098.95 1005.19 1106.93 1005.17 1115.41 1005.42C1133.86 1005.28 1151.83 1005.2 1169.79 1005.28C1172.27 1005.29 1174.8 1005 1177.56 1006.43C1187.25 1006.87 1196.54 1007.56 1205.79 1006.26C1208.3 1005.9 1209.03 1007 1209.02 1009.29C1208.99 1014.93 1209.06 1020.58 1209.14 1026.7Z" fill="#512CD4"/>
<path d="M1116.31 1006.65C1107.84 1006.91 1099.66 1007.27 1091.52 1006.89C1086.69 1006.66 1085.51 1008.44 1085.82 1012.85C1086.14 1017.32 1085.83 1021.84 1085.69 1026.82C1068.47 1027.24 1051.35 1027.13 1034.23 1027.1C1007.79 1027.07 981.362 1027.08 954.463 1027.03C944.281 1024.13 934.554 1021.34 925.08 1017.7C904.783 1009.9 885.661 999.988 867.604 987.801C841.029 969.864 819.079 947.363 800.05 921.333C803.917 912.455 807.37 903.785 808.506 894.285C808.962 890.475 808.771 886.704 809.026 882.46C812.631 880.914 813.172 884.16 814.244 886.011C821.448 898.444 829.756 910.075 839.169 920.911C853.431 937.33 869.325 951.954 887.529 963.928C914.57 981.715 943.922 993.946 975.847 999.562C999.223 1003.67 1022.67 1004.77 1046.39 1001.68C1077.68 997.599 1107.1 988.386 1134.52 972.76C1137.44 971.097 1140.11 969.159 1142.7 966.45C1155.01 966.148 1167.04 966.11 1179.53 966.115C1182.99 968.708 1182.13 971.118 1179.52 973.182C1164.13 985.382 1147.64 995.821 1129.72 1003.93C1125.58 1005.81 1120.99 1005.65 1116.31 1006.65Z" fill="#917AE4"/>
<path d="M799.66 921.191C805.121 924.238 807.726 929.778 811.496 934.27C824.639 949.934 838.844 964.451 855.002 977.067C867.458 986.792 880.637 995.408 894.612 1002.64C912.14 1011.71 930.285 1019.45 949.582 1024.13C951.109 1024.5 952.944 1024.54 953.925 1026.62C922.64 1027.01 891.285 1027.05 859.463 1027.03C857.778 1022.03 852.836 1021.21 849.486 1018.9C832.251 1006.99 815.964 993.998 801.439 978.89C791.799 968.862 782.998 958.092 774.044 947.018C783.804 939.914 793.041 932.105 799.66 921.191Z" fill="#876EE2"/>
<path d="M772.283 824.655C764.368 821.184 756.31 818.882 747.428 817.968C745.733 806.296 744.026 794.672 743.31 782.987C742.672 772.557 742.384 762.057 743.611 751.599C744.477 744.214 744.6 736.799 745.693 729.373C747.359 718.06 749.775 706.991 752.512 695.936C758.749 670.738 769.421 647.381 782.548 625.165C790.472 611.754 799.757 599.229 809.994 587.392C825.298 569.695 842.504 554.141 861.743 540.944C882.331 526.823 904.449 515.735 928.172 507.546C941.685 502.881 955.338 499.038 969.299 496.631C979.509 494.871 989.773 492.992 1000.3 492.771C1007.91 492.611 1015.56 491.698 1023.17 492.078C1035.55 492.697 1047.88 493.655 1060.21 495.574C1073.67 497.67 1086.97 500.431 1099.88 504.377C1114.77 508.928 1129.29 514.8 1143.16 522.077C1154.33 527.935 1165.31 534.133 1175.6 541.412C1187.25 549.645 1198.25 558.701 1208.58 568.567C1231.82 590.784 1250.51 616.386 1264.96 645.051C1270.86 656.733 1275.04 669.127 1279.56 681.405C1283.65 692.51 1286.4 703.895 1288.67 715.329C1292.07 732.362 1293.99 749.675 1292.99 767.629C1285.97 768.137 1278.95 768.166 1271.46 768.152C1268.38 762.662 1269.17 756.681 1268.75 750.997C1265.48 707.08 1252.13 666.72 1227.96 629.802C1203.07 591.784 1170.16 562.897 1129.74 542.605C1109.14 532.265 1087.35 525.144 1064.61 520.732C1049.63 517.825 1034.53 516.72 1019.45 516.604C975.089 516.262 933.251 526.854 894.698 548.912C860.523 568.465 831.982 594.304 810.04 627.308C793.342 652.425 781.311 679.554 774.131 708.72C769.958 725.67 767.577 742.984 767.343 760.571C767.081 780.286 768.015 799.819 772.885 819.017C773.341 820.812 773.529 822.638 772.283 824.655Z" fill="#8D75E3"/>
<path d="M730.654 818.057C731.553 820.808 733.783 819.987 735.431 819.967C758.588 819.686 776.504 838.926 775.983 861.374C775.531 880.823 759.177 898.866 739.469 900.103C716.806 901.525 699.044 887.51 695.956 865.088C693.561 847.7 702.726 832.014 717.219 824.341C720.104 822.813 723.42 822.074 725.922 819.38C727.414 818.716 728.849 818.394 730.654 818.057Z" fill="#6C4CDB"/>
<path d="M1225.23 767.79C1194.78 768.115 1164.57 768.128 1134.37 768.154C1132.21 768.156 1130.06 768.255 1127.46 768.441C1125.51 769.416 1123.89 769.696 1122.2 769.702C1107.72 769.756 1093.24 769.754 1078.77 769.698C1077.43 769.693 1076.1 769.598 1074.41 768.817C1068.51 767.715 1063.03 768.244 1057.58 768.235C1038.01 768.2 1018.44 768.307 998.424 768.511C996.303 769.55 994.484 769.635 992.64 769.673C968.525 770.171 944.416 771.145 920.286 770.688C918.124 770.647 915.956 770.619 913.798 770.792C903.81 771.595 898.294 776.813 896.987 786.687C896.615 789.501 896.711 792.335 896.678 795.164C896.197 837.266 898.413 879.346 897.695 921.449C897.661 923.438 897.956 925.448 897.029 927.774C895.677 929.369 896.126 930.87 895.933 932.619C893.419 934.369 891.764 932.554 890.165 931.293C860.475 907.882 838.689 878.629 824.748 843.424C813.583 815.228 809.103 786.003 810.666 755.861C812.007 730.008 818.181 705.318 828.983 681.662C839.923 657.704 854.61 636.454 873.429 618.213C895.978 596.354 922.232 580.365 952.151 570.369C977.276 561.976 1003.05 558.252 1029.38 559.726C1061.07 561.501 1090.96 570.092 1118.87 585.508C1136.51 595.255 1152.44 607.311 1166.53 621.55C1186.9 642.146 1202.11 666.233 1212.52 693.376C1218.83 709.82 1222.7 726.818 1225.01 744.161C1226.03 751.833 1225.77 759.695 1225.23 767.79Z" fill="#9E89E7"/>
<path d="M896.853 928.478C896.476 926.022 896.032 923.898 895.995 921.767C895.88 915.272 895.951 908.774 895.899 902.278C895.61 866.642 895.305 831.007 895.009 795.371C894.991 793.206 894.935 791.038 895.01 788.875C895.437 776.492 902.26 769.389 914.668 768.886C922.651 768.563 930.656 768.794 938.651 768.745C958.128 768.627 977.604 768.49 997.53 768.511C1003.1 784.249 1009.97 799.02 1018.62 812.957C1019.93 815.077 1021.31 817.116 1021.92 819.951C1016.8 822.82 1011.79 820.578 1006.79 819.827C1000.78 818.923 999.852 818.947 997.885 824.732C990.57 846.249 991.039 867.399 1002.52 887.447C1011.98 903.944 1028.43 904.473 1039.41 889.021C1042.53 884.628 1044.72 879.79 1046 874.131C1047.61 870.122 1048.44 866.35 1048.68 862.43C1048.8 860.638 1049.22 858.903 1050.76 857.237C1055.38 858.97 1058.57 862.363 1061.94 865.474C1074.4 876.975 1087.81 887.138 1102.68 895.372C1106.26 897.359 1109.87 899.396 1112.94 902.603C1112.15 906.329 1109.09 907.859 1106.75 909.745C1094.36 919.708 1082.25 930.022 1068.96 939.366C1066.98 939.654 1065.34 940.025 1063.7 940.025C1015.25 940.039 966.8 940.093 918.351 939.928C909.546 939.898 901.526 937.452 896.853 928.478Z" fill="#FEFEFF"/>
<path d="M1073.98 768.937C1084.86 767.601 1095.79 768.384 1106.71 768.205C1113.17 768.1 1119.63 768.258 1126.55 768.436C1135.73 780.048 1146.61 789.048 1158.9 796.461C1170.5 803.455 1183.06 808.203 1196.1 811.34C1203.92 813.219 1212.05 814.186 1220.21 814.024C1226.2 813.906 1232.19 814.011 1238.66 814.029C1239.51 815.265 1239.02 816.34 1238.47 817.356C1232.12 829.034 1230.02 841.639 1230.26 854.76C1230.28 856.099 1230.22 857.415 1229.07 858.788C1210.04 859.204 1191.53 856.725 1173.78 851.463C1152.37 845.113 1132.67 834.573 1115.43 820.121C1098.4 805.85 1084.23 789.129 1073.98 768.937Z" fill="#F0EFEE"/>
<path d="M1069.08 939.657C1075.6 932.147 1084.14 926.705 1091.81 920.208C1098.59 914.461 1105.52 908.896 1112.69 903.095C1121.4 896.411 1129.56 889.526 1138.28 883.446C1148.28 876.48 1158.02 874.391 1167.73 881.971C1191.73 900.696 1215.32 919.945 1239.19 939.289C1237.99 939.767 1236.68 940.091 1235.38 940.091C1180.76 940.094 1126.15 940.068 1071.53 940.037C1070.87 940.036 1070.21 939.921 1069.08 939.657Z" fill="#9E89E7"/>
<path d="M1228.81 859.433C1228.37 849.036 1229.27 839.253 1231.99 829.567C1233.51 824.156 1236.01 819.385 1239 814.362C1240.96 813.604 1241.52 811.831 1242.61 810.65C1252.71 799.773 1266.33 800.282 1275.54 811.949C1276.67 813.376 1277.64 814.923 1278.83 816.718C1278.13 820.375 1275.06 819.417 1272.94 819.891C1265.43 821.569 1259.25 825.12 1255.23 831.791C1249.86 840.71 1249.92 849.782 1255.06 858.816C1260.1 867.67 1268.1 871.192 1277.9 871.591C1280.08 871.68 1282.54 870.129 1284.36 872.879C1281.7 881.975 1278.01 890.095 1270.93 896.157C1261.29 904.414 1248.44 902.861 1240.78 892.645C1233.49 882.921 1229.8 871.896 1228.81 859.433Z" fill="#522CD5"/>
<path d="M1047.37 873.706C1045.8 880.983 1042.95 887.487 1038.12 892.982C1027.43 905.136 1013.72 904.801 1003.85 891.957C996.317 882.15 993.018 870.688 992.163 858.546C991.218 845.119 992.363 831.979 998.822 819.746C999.946 817.617 1000.84 817.022 1003.35 817.635C1009.14 819.052 1015 820.377 1021.48 820.387C1024.29 821.341 1026.76 820.584 1029.59 820.807C1030.18 823.931 1027.34 824.352 1025.61 825.583C1009.56 836.997 1010.92 860.583 1028.24 869.972C1031.53 871.756 1035.01 872.594 1038.75 872.619C1041.55 872.638 1044.42 872.105 1047.37 873.706Z" fill="#522CD5"/>
<path d="M1047.82 873.69C1040.54 873.968 1033.4 874.867 1026.77 870.929C1008.71 860.21 1008.15 835.103 1025.84 823.755C1027.09 822.95 1028.39 822.218 1029.84 821.152C1033.58 820.27 1037.14 819.69 1040.7 819.109C1043.54 818.646 1043.95 821.069 1044.64 822.741C1049.07 833.406 1051 844.57 1051.02 856.552C1049.76 862.413 1050.1 868.136 1047.82 873.69Z" fill="#8065E0"/>
<path d="M1284.55 872.968C1280.36 871.909 1276.3 873.516 1272.25 872.651C1258.26 869.66 1248.79 857.674 1249.93 842.342C1250.83 830.208 1261.64 819.688 1275.53 818.04C1276.51 817.924 1277.49 817.752 1278.72 817.314C1280.9 818.769 1281.26 821.422 1282.9 823.733C1288.27 840.073 1289.34 856.277 1284.55 872.968Z" fill="#8065E0"/>
<path d="M1070.98 211.04C1078.75 212.379 1086.05 213.889 1093.43 214.911C1097.86 215.525 1099.58 217.672 1099.02 221.93C1097.99 229.807 1097 237.689 1095.89 245.555C1094.67 254.237 1093.28 262.896 1092.05 271.577C1091.23 277.42 1090.03 278.24 1084.33 277.308C1075.34 275.842 1066.33 274.544 1057.32 273.259C1052.69 272.599 1050.69 270.049 1050.96 265.412C1051.55 255.12 1054.08 245.126 1055.55 234.971C1056.26 230.056 1057.32 225.192 1057.97 220.271C1059.24 210.662 1061.26 209.108 1070.98 211.04Z" fill="#625F5B"/>
<path d="M1116.47 1006.91C1116.84 1003.68 1119.65 1005.11 1121.48 1004.79C1132.28 1002.91 1141.21 996.914 1150.37 991.65C1160.29 985.956 1169.63 979.311 1178.7 972.289C1181 970.511 1181.09 969.037 1180.04 966.503C1191.68 966.121 1203.37 966.085 1215.52 966.087C1219.41 969.42 1218.04 971.687 1215.01 974.667C1205.05 984.448 1193.94 992.76 1182.82 1001.08C1180.96 1002.48 1179.13 1003.9 1178.04 1006.39C1157.63 1006.79 1137.28 1006.87 1116.47 1006.91Z" fill="#8D75E3"/>
<path d="M1225.45 768.129C1224.33 746.163 1221.78 724.458 1214.82 703.588C1209.78 688.481 1203.12 674.005 1194.89 660.271C1186.74 646.675 1177.08 634.194 1166.07 622.962C1156.7 613.404 1146.38 604.673 1135.2 597.158C1120.41 587.204 1104.72 578.844 1087.84 573.003C1073.75 568.124 1059.36 564.531 1044.42 562.748C1032.98 561.384 1021.59 560.564 1010.17 561.104C991.099 562.006 972.422 565.192 954.178 571.24C938.947 576.289 924.401 582.637 910.853 591.127C894.085 601.635 878.871 613.896 865.435 628.706C848.426 647.455 835.702 668.588 826.204 691.771C818.826 709.779 814.284 728.526 812.803 748.069C812.249 755.382 812.205 762.654 812.008 769.947C811.595 785.284 813.718 800.362 817.28 815.211C821.04 830.884 826.364 846.061 833.757 860.419C841.833 876.103 851.67 890.573 863.272 903.942C872.799 914.919 883.384 924.561 895.557 932.945C896.032 938.462 895.435 944.084 896.461 949.394C898.394 959.403 907.586 965.987 918.349 965.99C990.922 966.015 1063.49 966.021 1136.07 966.035C1138.06 966.036 1140.06 966.062 1142.52 966.131C1143.2 968.51 1141.87 969.829 1140.07 970.982C1125.27 980.444 1109.31 987.43 1092.66 992.864C1081.31 996.57 1069.82 999.94 1057.96 1001.45C1039.74 1003.77 1021.6 1006 1003.02 1004.27C983.123 1002.42 963.661 999.234 944.622 993.14C928.06 987.84 912.439 980.471 897.45 971.845C876.41 959.738 858.102 944.092 841.795 926.191C830.156 913.414 820.085 899.414 811.644 884.288C811.166 883.432 810.832 882.43 809.394 882.059C807.802 868.329 803.28 855.872 795.088 844.416C790.062 830.768 787.08 816.966 784.599 803.009C781.776 787.133 782.572 771.139 782.605 755.174C782.647 735.18 787.073 715.878 792.772 696.865C798.74 676.958 807.552 658.195 818.795 640.834C829.832 623.791 842.344 607.784 857.753 594.187C867.653 585.452 877.897 577.285 888.869 569.968C912.143 554.446 937.486 543.896 964.677 537.416C986.098 532.31 1007.8 530.81 1029.66 531.656C1066.07 533.065 1100.12 543.204 1132.08 560.646C1154.68 572.979 1174.6 588.713 1192.04 607.565C1208.1 624.925 1221.08 644.393 1231.29 665.758C1239.6 683.143 1245.79 701.228 1249.59 720.074C1252.38 733.933 1254.57 747.923 1254.42 762.148C1254.4 763.965 1254.58 765.837 1253.24 767.789C1243.97 768.123 1234.94 768.141 1225.45 768.129Z" fill="#957EE5"/>
<path d="M1253.46 768.143C1253.19 741.152 1248.34 715.14 1239.51 689.666C1231.27 665.877 1219.64 643.914 1204.29 624.196C1184.95 599.358 1161.68 578.759 1133.93 563.339C1116.68 553.756 1098.75 545.983 1079.75 540.941C1066.35 537.384 1052.8 534.523 1038.76 533.753C1028.45 533.188 1018.14 532.728 1007.88 533.111C978.76 534.197 950.861 540.753 924.064 552.371C903.298 561.374 884.426 573.376 867.124 587.718C853.963 598.628 842.223 611.017 831.869 624.824C822.752 636.982 814.814 649.729 807.935 663.194C798.9 680.878 792.653 699.595 788.251 718.897C782.92 742.275 782.898 766.139 784.342 789.808C785.344 806.25 789.217 822.525 794.288 838.344C794.81 839.974 795.043 841.568 794.97 843.673C793.787 842.864 792.619 841.624 791.185 840.208C786.231 833.353 779.175 829.62 772.3 825.12C772.846 820.465 770.741 816.412 769.834 812.273C765.67 793.269 765.494 774.037 766.091 754.788C766.507 741.395 768.733 728.188 771.334 715.009C773.655 703.244 777.162 691.887 781.303 680.739C788.138 662.335 796.788 644.826 807.67 628.367C818.442 612.076 830.592 596.967 844.891 583.776C866.641 563.71 890.968 547.45 918.285 535.662C933.294 529.185 948.73 524.226 964.611 520.793C977.2 518.071 989.896 515.271 1002.96 516.016C1008.3 516.321 1013.46 514.521 1018.84 514.962C1034.49 516.249 1050.19 516.331 1065.74 519.565C1083.18 523.192 1099.96 528.4 1116.43 535.099C1151.9 549.521 1181.76 571.819 1207.23 599.951C1227.9 622.79 1243.26 649.175 1254.35 677.922C1259.16 690.408 1262.47 703.355 1265.26 716.5C1268.82 733.253 1270.33 750.131 1270.99 767.633C1265.3 768.132 1259.62 768.157 1253.46 768.143Z" fill="#917AE4"/>
<path d="M872.069 1475.55C855.671 1484.56 839.232 1493.17 822.789 1501.77C810.587 1508.16 798.422 1514.62 786.154 1520.88C781.796 1523.1 777.989 1526.59 772.399 1527C773.307 1512.85 775.555 1498.83 778.002 1484.42C780.244 1481.41 783.304 1479.97 786.226 1478.49C809.307 1466.8 831.985 1454.34 855.016 1442.56C857.031 1441.53 858.957 1439.97 861.809 1440.74C865.42 1452.35 868.723 1463.75 872.069 1475.55Z" fill="#7B5EE3"/>
<path d="M915.52 1603.02C917.178 1605.87 916.589 1608.23 914.82 1610.85C899.101 1634.13 877.593 1648.24 849.663 1652.03C823.074 1655.64 799.602 1648.4 778.799 1631.51C774.29 1627.85 770.833 1623.05 765.417 1620.06C766.584 1615.06 765.789 1609.94 766.049 1604.42C772.409 1603.97 778.741 1603.99 785.541 1604.01C795.557 1615.52 807.526 1623.44 822.157 1626.39C848.258 1631.66 870.793 1625.17 888.76 1604.25C895.133 1601.92 901.434 1603.45 907.637 1603.04C910.098 1602.87 912.58 1603.01 915.52 1603.02Z" fill="#7253E0"/>
<path d="M862.077 1440.53C850.273 1445.38 839.717 1452.38 828.417 1457.92C815.64 1464.17 803.188 1471.08 790.593 1477.71C786.643 1479.79 782.687 1481.85 778.379 1483.97C779.494 1474.06 780.986 1464.11 782.425 1454.16C783.014 1450.08 783.49 1445.98 784.023 1441.46C791.253 1435.64 799.616 1432.29 807.479 1428.07C821.487 1420.54 835.641 1413.29 849.695 1405.84C851.421 1404.93 853.106 1403.66 855.557 1404.77C857.948 1409.83 857.312 1415.13 858.487 1420.15C860.025 1426.72 860.885 1433.44 862.077 1440.53Z" fill="#6C4CDB"/>
<path d="M855.916 1404.56C852.379 1404.69 849.988 1407.2 847.29 1408.58C829.016 1417.93 810.913 1427.61 792.698 1437.08C790.09 1438.44 787.996 1440.89 784.4 1441.01C786.293 1428.35 788.706 1415.71 790.708 1402.99C791.158 1400.13 792.366 1398.42 794.638 1397.21C806.656 1390.82 818.693 1384.46 830.745 1378.13C833.26 1376.81 835.859 1375.66 836.952 1372.37C842.633 1372.01 848.279 1372 854.381 1371.99C855.255 1382.69 854.54 1393.44 855.916 1404.56Z" fill="#5F3DD8"/>
<path d="M1460.68 1060.99C1481.19 1064.1 1494.97 1075.69 1500.41 1094.65C1508.45 1122.65 1491.18 1148.61 1463.87 1154.02C1438.83 1158.98 1413.01 1140.82 1408.73 1115.29C1404.08 1087.53 1427.13 1058.78 1456.72 1060.98C1457.88 1061.07 1459.05 1060.99 1460.68 1060.99Z" fill="#5F3DD8"/>
<path d="M1132.06 271.43C1130.15 261.978 1133.27 253.327 1134.25 244.555C1135.55 232.922 1138.09 221.431 1139.9 209.849C1140.24 207.632 1141.33 205.803 1142 203.373C1143.55 199.081 1146.81 197.901 1150.48 198.239C1162.44 199.337 1174.17 201.763 1185.63 205.343C1190.63 206.905 1193.09 210.648 1193.41 215.834C1193.52 217.498 1193.6 219.171 1193.35 220.816C1190.86 237.429 1189.15 254.148 1186.56 270.743C1184.9 281.365 1180.73 284.686 1170.21 283.286C1160.32 281.97 1150.45 280.453 1140.65 278.573C1136.65 277.806 1133.44 276.032 1132.06 271.43Z" fill="#625F5B"/>
<path d="M1131.76 271.235C1134.6 274.668 1137.82 276.89 1142.59 277.446C1152.91 278.649 1163.12 280.826 1173.45 281.863C1180.53 282.575 1183.38 280.181 1184.62 273.375C1186.06 265.424 1186.9 257.364 1187.99 249.348C1189.18 240.517 1190.05 231.628 1191.62 222.864C1193.47 212.539 1190.98 208.001 1180.84 205.467C1171.22 203.062 1161.53 201.08 1151.66 199.777C1147.8 199.266 1145.35 200.787 1142.36 202.841C1141.41 196.278 1148.77 190.733 1156.69 192.172C1164.32 193.56 1171.9 195.254 1179.53 196.673C1183.26 197.366 1187.16 197.383 1190.66 198.928C1196.03 201.299 1199.78 208.071 1198.89 214.079C1196.42 230.723 1193.75 247.337 1191.17 263.965C1190.54 268.042 1190.26 272.194 1189.34 276.202C1186.54 288.39 1183.35 290.971 1171.06 289.876C1162.2 289.086 1153.36 287.721 1144.63 285.979C1134.71 283.997 1132.98 281.703 1131.76 271.235Z" fill="#54514D"/>
<path d="M888.544 1603.97C889.312 1606.25 887.893 1607.63 886.449 1609.07C874.501 1620.95 860.492 1627.88 843.371 1629.17C822.4 1630.74 804.703 1624.32 789.56 1610.07C787.959 1608.56 786.621 1606.91 786.044 1604.37C820.031 1604 854.053 1603.98 888.544 1603.97Z" fill="#6C4CDB"/>
<path d="M1120.02 1059.24C1120.02 1063.86 1119.98 1068.02 1120.04 1072.17C1120.06 1073.95 1119.62 1074.95 1117.55 1074.9C1115.47 1074.86 1115.11 1073.76 1115.11 1072.04C1115.15 1064.22 1115.08 1056.41 1115.17 1048.6C1115.18 1047.13 1114.25 1044.95 1116.72 1044.51C1118.84 1044.13 1120.83 1044.16 1122.26 1046.59C1125.62 1052.31 1129.27 1057.86 1132.82 1063.47C1133.32 1064.25 1133.9 1064.98 1135.39 1065.44C1135.39 1059.72 1135.37 1054 1135.41 1048.29C1135.43 1046.58 1134.78 1044.44 1137.79 1044.39C1140.81 1044.33 1140.23 1046.44 1140.24 1048.17C1140.27 1055.82 1140.29 1063.46 1140.21 1071.11C1140.2 1072.42 1141.02 1074.4 1138.79 1074.76C1136.83 1075.09 1135 1075.11 1133.64 1072.89C1129.58 1066.24 1125.28 1059.74 1120.83 1052.79C1119.52 1054.96 1120.25 1056.94 1120.02 1059.24Z" fill="#F6F5F6"/>
<path d="M1154.02 1044.26C1156.49 1044.27 1158.48 1044.28 1160.48 1044.29C1162.21 1044.29 1162.77 1045.27 1162.7 1046.86C1162.64 1048.31 1161.91 1048.95 1160.5 1048.94C1159.17 1048.94 1157.83 1049.04 1156.51 1048.94C1153.56 1048.71 1151.57 1048.89 1151.59 1052.95C1151.6 1056.87 1153.33 1057.37 1156.41 1057.06C1157.57 1056.95 1158.74 1057.02 1159.9 1057.09C1161.45 1057.18 1161.72 1058.27 1161.7 1059.54C1161.68 1060.65 1161.29 1061.53 1160.07 1061.64C1158.91 1061.74 1157.72 1061.85 1156.58 1061.71C1153.1 1061.28 1151.56 1062.23 1151.59 1066.23C1151.61 1070.25 1153.61 1070.12 1156.53 1070.4C1158.79 1070.62 1163.17 1068.01 1162.97 1072.91C1162.79 1077.08 1158.78 1074.77 1156.68 1074.83C1146.63 1075.12 1146.65 1074.96 1146.61 1064.79C1146.59 1060.47 1146.54 1056.15 1146.29 1051.84C1145.85 1044.26 1145.78 1044.27 1154.02 1044.26Z" fill="#DFD8F7"/>
<path d="M1178.1 1050.33C1178.05 1057.29 1178.13 1063.79 1177.98 1070.28C1177.94 1072.07 1179.35 1075.01 1175.46 1074.89C1172.05 1074.78 1173.19 1072.19 1173.15 1070.47C1172.99 1064.64 1172.82 1058.81 1173.03 1052.99C1173.15 1049.75 1172.23 1048.5 1168.89 1048.81C1167.4 1048.95 1164.93 1049.99 1164.77 1046.86C1164.59 1043.39 1167.22 1044.44 1168.97 1044.4C1173.3 1044.29 1177.64 1044.25 1181.96 1044.42C1183.66 1044.48 1186.41 1043.18 1186.57 1046.5C1186.73 1049.91 1183.97 1048.59 1182.24 1048.9C1180.86 1049.15 1179.2 1048.22 1178.1 1050.33Z" fill="#F0EFEE"/>
<path d="M1110.12 1072.89C1108.65 1075.7 1106.83 1075.87 1105.01 1073.89C1103.99 1072.79 1104.32 1071.15 1105.52 1070.48C1107.67 1069.27 1109.62 1069.47 1110.12 1072.89Z" fill="#F6F5F6"/>
<path d="M723.805 881.395C709.099 871.105 707.161 854.048 719.068 842.433C727.494 834.213 742.205 833.76 750.942 841.452C761.255 850.532 762.972 864.215 755.082 874.446C747.421 884.38 736.224 886.958 723.805 881.395Z" fill="#7253E0"/>
<path d="M1439.76 1083.62C1455.91 1074.38 1471.82 1080.4 1479.87 1093.43C1485.5 1102.52 1485.12 1112.09 1480.25 1121.33C1475.39 1130.57 1467.35 1135.27 1456.97 1136C1435.22 1137.55 1421.46 1115.49 1428.81 1097.18C1431.02 1091.67 1434.33 1087.01 1439.76 1083.62Z" fill="#7253E0"/>
<path d="M1175.76 216.256C1187.66 231.045 1183.64 258.265 1168.39 268.104C1160.31 273.314 1150.92 271.151 1145.97 262.939C1137.47 248.848 1140.45 227.296 1152.45 216.04C1159.76 209.193 1168.33 209.177 1175.76 216.256Z" fill="#54514D"/>
<path d="M1152.96 227.033C1156.31 222.696 1160.16 219.968 1165.55 221.368C1171.37 222.882 1173.94 227.231 1175.06 232.867C1177.05 242.918 1174.73 251.535 1167.01 258.46C1162.27 262.709 1155.66 261.921 1151.85 256.752C1146.08 248.935 1146.47 236.694 1152.96 227.033Z" fill="#33312D"/>
</g>
<defs>
<clipPath id="clip0_302_2">
<rect width="2000" height="2000" fill="white"/>
</clipPath>
</defs>
</svg>
